<svg width="703" height="532" viewBox="0 0 703 532" fill="none" xmlns="http://www.w3.org/2000/svg">
<rect x="102" y="16" width="500" height="500" rx="250" fill="#CBFF96"/>
<rect width="150.81" height="174.987" rx="12.4813" transform="matrix(-0.868151 0.4963 0.4963 0.868151 201.088 63.1815)" fill="black"/>
<rect x="-0.371852" y="1.36445" width="140.799" height="161.321" rx="11.4813" transform="matrix(-0.868151 0.4963 0.4963 0.868151 190.595 67.2248)" fill="white" stroke="black" stroke-width="2"/>
<rect width="108.596" height="33.3483" transform="matrix(-0.868151 0.4963 0.4963 0.868151 188.365 91.5729)" fill="black"/>
<rect x="-0.371852" y="1.36445" width="33.0585" height="31.3483" rx="3.88398" transform="matrix(-0.868151 0.4963 0.4963 0.868151 211.607 134.993)" fill="#F6F6F6" stroke="black" stroke-width="2"/>
<rect x="-0.371852" y="1.36445" width="33.0585" height="31.3483" rx="3.88398" transform="matrix(-0.868151 0.4963 0.4963 0.868151 231.128 169.141)" fill="#EBF3FF" stroke="black" stroke-width="2"/>
<rect x="-0.371852" y="1.36445" width="33.0585" height="31.3483" rx="3.88398" transform="matrix(-0.868151 0.4963 0.4963 0.868151 175.975 155.363)" fill="#EBF3FF" stroke="black" stroke-width="2"/>
<rect x="-0.371852" y="1.36445" width="33.0585" height="31.3483" rx="3.88398" transform="matrix(-0.868151 0.4963 0.4963 0.868151 195.496 189.511)" fill="#F6F6F6" stroke="black" stroke-width="2"/>
<rect x="-0.371852" y="1.36445" width="33.0585" height="70.6822" rx="3.88398" transform="matrix(-0.868151 0.4963 0.4963 0.868151 140.343 175.733)" fill="#F6F6F6" stroke="black" stroke-width="2"/>
<rect x="251.155" y="112.182" width="241.184" height="318.061" fill="black"/>
<rect x="238.589" y="95.0938" width="239.184" height="316.061" fill="#CBFF96" stroke="black" stroke-width="2"/>
<path d="M367.184 124.101C357.552 119.591 346.967 117.506 336.354 118.021L340.514 183.133L340.551 183.718L340.058 184.036L286.495 218.657L292.415 228.355C299.981 236.247 309.409 242.111 319.834 245.409C330.292 248.718 341.416 249.337 352.177 247.208C362.939 245.079 372.989 240.272 381.401 233.231C389.812 226.19 396.312 217.141 400.301 206.923C404.29 196.704 405.638 185.645 404.221 174.767C402.804 163.89 398.667 153.545 392.194 144.689C385.72 135.833 377.119 128.752 367.184 124.101Z" fill="black" stroke="black" stroke-width="2"/>
<mask id="path-13-inside-1_201_3194" fill="white">
<path d="M284.964 217.662C292.656 225.679 302.255 231.634 312.873 234.976C323.491 238.319 334.785 238.941 345.711 236.786C356.637 234.631 366.843 229.768 375.385 222.646C383.928 215.524 390.53 206.373 394.582 196.039C398.635 185.706 400.007 174.523 398.571 163.525C397.135 152.526 392.938 142.068 386.368 133.115C379.798 124.162 371.067 117.005 360.981 112.305C350.896 107.604 339.782 105.513 328.667 106.223L332.873 172.066L284.964 217.662Z"/>
</mask>
<path d="M284.964 217.662C292.656 225.679 302.255 231.634 312.873 234.976C323.491 238.319 334.785 238.941 345.711 236.786C356.637 234.631 366.843 229.768 375.385 222.646C383.928 215.524 390.53 206.373 394.582 196.039C398.635 185.706 400.007 174.523 398.571 163.525C397.135 152.526 392.938 142.068 386.368 133.115C379.798 124.162 371.067 117.005 360.981 112.305C350.896 107.604 339.782 105.513 328.667 106.223L332.873 172.066L284.964 217.662Z" fill="white" stroke="black" stroke-width="4" mask="url(#path-13-inside-1_201_3194)"/>
<path d="M319.456 160.252L316.462 144.738C297.571 136.163 258.875 124.273 253.943 144.543C249.01 164.813 264.38 187.776 271.932 198.491L319.456 160.252Z" fill="black" stroke="black" stroke-width="2"/>
<path d="M315.394 144.324L266.333 183.666C259.662 175.072 255.308 164.903 253.698 154.132C252.038 143.031 253.353 131.689 257.507 121.262C261.661 110.835 268.506 101.696 277.344 94.7775C285.92 88.0646 296.074 83.6751 306.828 82.0235L315.394 144.324Z" fill="white" stroke="black" stroke-width="2"/>
<path d="M427.382 328.171C427.382 328.724 427.83 329.171 428.382 329.171C428.934 329.171 429.382 328.724 429.382 328.171H427.382ZM429.382 369.149C429.382 368.597 428.934 368.149 428.382 368.149C427.83 368.149 427.382 368.597 427.382 369.149H429.382ZM427.382 320.203V328.171H429.382V320.203H427.382ZM427.382 369.149V377.117H429.382V369.149H427.382Z" fill="black"/>
<path d="M441.663 328.171H421.743C419.278 328.171 416.913 329.25 415.17 331.171C413.426 333.093 412.447 335.698 412.447 338.415C412.447 341.132 413.426 343.738 415.17 345.659C416.913 347.581 419.278 348.66 421.743 348.66H435.023C437.488 348.66 439.853 349.739 441.596 351.66C443.339 353.582 444.319 356.187 444.319 358.904C444.319 361.621 443.339 364.227 441.596 366.148C439.853 368.07 437.488 369.149 435.023 369.149H414.724" stroke="black" stroke-width="2" stroke-linecap="square"/>
<path d="M276.781 277.996H442.595" stroke="black" stroke-width="2"/>
<path d="M276.781 311.159H442.595" stroke="black" stroke-width="2"/>
<path d="M276.781 344.322H376.269" stroke="black" stroke-width="2"/>
<path d="M276.781 377.484H376.269" stroke="black" stroke-width="2"/>
<rect x="420.984" y="132.779" width="23.6258" height="23.6258" rx="3" fill="white" stroke="black" stroke-width="2"/>
<rect x="420.984" y="173.478" width="23.6258" height="23.6258" rx="3" fill="white" stroke="black" stroke-width="2"/>
<rect x="420.984" y="214.178" width="23.6258" height="23.6258" rx="3" fill="white" stroke="black" stroke-width="2"/>
<path d="M635.005 460.067H578.998C592.3 441.865 602.626 345.721 606.126 299.924H613.127L635.005 460.067Z" fill="black" stroke="black" stroke-width="2"/>
<path d="M398.728 392.685C405.728 366.082 408.645 319.76 409.229 299.924H606.126C606.826 377.633 586.582 444.899 576.373 468.818H374.225C379.475 454.525 391.727 419.288 398.728 392.685Z" fill="white" stroke="black" stroke-width="2"/>
<rect x="425.105" y="331.553" width="157.268" height="17.2522" fill="#F6F6F6" stroke="black" stroke-width="2"/>
<path d="M484.487 437.315H525.616C530.235 428.433 533.847 413.615 536.475 398.811H495.346C492.718 413.615 489.105 428.433 484.487 437.315Z" fill="#EBF3FF"/>
<path d="M541.368 361.182C540.65 370.089 539.026 384.444 536.475 398.811M500.239 361.182C499.52 370.089 497.896 384.444 495.346 398.811M461.734 361.182C460.276 379.267 455.083 419.813 445.982 437.315M575.855 398.811H536.475M418.337 398.811H495.346M536.475 398.811C533.847 413.615 530.235 428.433 525.616 437.315H484.487C489.105 428.433 492.718 413.615 495.346 398.811M536.475 398.811H495.346M580.748 361.182C579.289 379.267 574.097 419.813 564.996 437.315H407.478C416.579 419.813 421.771 379.267 423.23 361.182H580.748Z" stroke="black" stroke-width="2"/>
<path d="M431.107 288.548V309.551" stroke="black" stroke-width="2"/>
<path d="M453.859 288.548V309.551" stroke="black" stroke-width="2"/>
<path d="M476.612 288.548V309.551" stroke="black" stroke-width="2"/>
<path d="M499.364 288.548V309.551" stroke="black" stroke-width="2"/>
<path d="M522.116 288.548V309.551" stroke="black" stroke-width="2"/>
<path d="M543.118 288.548V309.551" stroke="black" stroke-width="2"/>
<path d="M565.871 288.548V309.551" stroke="black" stroke-width="2"/>
<path d="M586.874 288.548V309.551" stroke="black" stroke-width="2"/>
</svg>
