<svg width="703" height="524" viewBox="0 0 703 524" fill="none" xmlns="http://www.w3.org/2000/svg">
<rect x="102" y="12" width="500" height="500" rx="250" fill="#FF9E8D"/>
<path d="M367.793 92.4426L245.767 40.6853C221.966 114.792 167.552 180.891 143.321 204.678C173.56 220.185 240.752 254.453 267.609 267.467C323.395 200.662 357.643 122.949 367.793 92.4426Z" fill="white" stroke="black" stroke-width="2"/>
<path d="M228.685 220.207L255.126 188.136L243.936 182.714L216.639 214.345L228.685 220.207Z" fill="#F6F6F6"/>
<path d="M250.195 230.676L283.631 188.907L270.623 183.07L237.289 224.395L250.195 230.676Z" fill="#F6F6F6"/>
<path d="M208.035 210.157L225.298 188.975L214.108 183.553L196.419 204.504L208.035 210.157Z" fill="#F6F6F6"/>
<path d="M213.22 162.317C206.598 174.572 191.516 191.78 184.803 198.851L196.419 204.504M258.799 234.864L250.195 230.676M250.195 230.676L283.631 188.907L270.623 183.07L237.289 224.395M250.195 230.676L237.289 224.395M237.289 224.395L228.685 220.207M228.685 220.207L255.126 188.136L243.936 182.714L216.639 214.345M228.685 220.207L216.639 214.345M216.639 214.345L208.035 210.157M208.035 210.157L225.298 188.975L214.108 183.553L196.419 204.504M208.035 210.157L196.419 204.504" stroke="black" stroke-width="2"/>
<path d="M248.294 75.679L335.219 113.687" stroke="black" stroke-width="2"/>
<path d="M236.619 101.694L321.934 138.378" stroke="black" stroke-width="2"/>
<path d="M225.359 125.892L309.558 163.278" stroke="black" stroke-width="2"/>
<rect x="310.75" y="131.792" width="256.397" height="337.024" rx="6" fill="black"/>
<path d="M550.216 141.064C552.437 141.064 554.23 142.854 554.2 145.075C553.998 159.948 552.987 215.984 548.453 309.922C548.358 311.874 548.121 313.864 548.121 314.754C540.303 418.96 445.79 442.276 434.203 443.611C428.854 444.056 418.314 446.073 400.041 446.073C377.77 446.945 343.948 447.39 291.447 447.826C289.955 447.838 288.921 446.344 289.547 444.989C322.78 372.999 323.872 175.14 323.842 144.949C323.84 142.728 325.639 141.064 327.86 141.064H550.216Z" fill="#FF9E8D" stroke="black" stroke-width="2" stroke-miterlimit="10" stroke-linejoin="round"/>
<path d="M352.677 242.252H516.754" stroke="black" stroke-width="2"/>
<path d="M352.677 273.697H516.754" stroke="black" stroke-width="2"/>
<path d="M352.677 305.141H516.754" stroke="black" stroke-width="2"/>
<path d="M323.458 214.651L324.635 141.661H441.98V215.444L323.458 214.651Z" fill="#EBF3FF" stroke="black" stroke-width="2"/>
<path d="M340.212 195.681C339.889 195.681 339.599 195.617 339.341 195.488C339.115 195.391 339.003 195.246 339.003 195.052C339.003 194.794 339.115 194.585 339.341 194.423C339.567 194.262 339.889 194.149 340.309 194.085C341.534 193.827 342.437 193.472 343.018 193.02C343.598 192.537 343.889 191.763 343.889 190.698V171.106C343.889 169.783 343.856 168.784 343.792 168.106C343.727 167.429 343.631 166.978 343.502 166.752C343.405 166.494 343.244 166.349 343.018 166.316C342.695 166.187 342.292 166.107 341.808 166.075C341.325 166.042 340.857 166.026 340.405 166.026H338.906C337.971 166.026 337.067 166.252 336.197 166.703C335.326 167.123 334.649 167.703 334.165 168.445C334.036 168.638 333.826 168.913 333.536 169.267C333.278 169.622 332.988 169.945 332.665 170.235C332.375 170.525 332.069 170.67 331.746 170.67C331.52 170.67 331.359 170.59 331.262 170.428C331.198 170.267 331.166 170.09 331.166 169.896C331.166 169.509 331.262 169.122 331.456 168.735C332.004 167.639 332.407 166.687 332.665 165.881C332.955 165.042 333.149 164.059 333.246 162.93C333.31 162.446 333.439 162.14 333.633 162.011C333.858 161.85 334.084 161.769 334.31 161.769C334.504 161.769 334.729 161.979 334.987 162.398C335.278 162.785 335.536 163.107 335.761 163.365C336.052 163.656 336.568 163.881 337.309 164.043C338.051 164.172 338.68 164.236 339.196 164.236L357.047 164.188C357.95 164.188 358.708 164.123 359.321 163.994C359.934 163.833 360.417 163.672 360.772 163.511C361.256 163.22 361.643 162.93 361.933 162.64C362.223 162.317 362.562 162.156 362.949 162.156C363.11 162.156 363.223 162.253 363.288 162.446C363.384 162.608 363.433 162.817 363.433 163.075C363.433 163.236 363.417 163.43 363.384 163.656C363.352 163.849 363.32 164.027 363.288 164.188C363.159 164.801 363.03 165.349 362.901 165.833C362.772 166.284 362.659 166.72 362.562 167.139C362.498 167.526 362.465 167.977 362.465 168.493V169.316C362.465 169.767 362.401 170.154 362.272 170.477C362.143 170.799 361.933 170.961 361.643 170.961C361.385 170.961 361.159 170.815 360.966 170.525C360.804 170.203 360.627 169.719 360.433 169.074C360.143 168.042 359.659 167.284 358.982 166.8C358.305 166.284 357.241 166.026 355.789 166.026H352.5C351.887 166.026 351.403 166.139 351.048 166.365C350.726 166.591 350.484 167.09 350.323 167.864C350.194 168.606 350.129 169.767 350.129 171.348V190.65C350.129 191.682 350.419 192.44 351 192.924C351.581 193.375 352.5 193.762 353.757 194.085C354.144 194.181 354.451 194.294 354.677 194.423C354.902 194.552 355.015 194.746 355.015 195.004C355.015 195.23 354.902 195.391 354.677 195.488C354.483 195.584 354.225 195.633 353.903 195.633C353.129 195.633 352.355 195.617 351.581 195.584C350.806 195.552 350.032 195.52 349.258 195.488C348.517 195.455 347.791 195.439 347.081 195.439C346.372 195.439 345.63 195.455 344.856 195.488C344.114 195.52 343.34 195.552 342.534 195.584C341.76 195.649 340.986 195.681 340.212 195.681Z" fill="black"/>
<path d="M361.331 195.729C360.944 195.729 360.622 195.665 360.364 195.536C360.106 195.439 359.977 195.262 359.977 195.004C359.977 194.714 360.09 194.488 360.316 194.327C360.574 194.165 360.896 194.02 361.283 193.891C362.218 193.633 363.025 193.246 363.702 192.73C364.411 192.182 364.976 191.44 365.395 190.505C366.201 188.602 366.975 186.78 367.717 185.038C368.459 183.264 369.168 181.507 369.846 179.765C370.523 178.024 371.2 176.25 371.878 174.444C372.587 172.638 373.297 170.735 374.006 168.735C374.361 167.735 374.603 166.961 374.732 166.413C374.861 165.865 374.974 165.462 375.07 165.204C375.554 165.075 376.006 164.946 376.425 164.817C376.844 164.688 377.312 164.526 377.828 164.333C378.279 164.107 378.666 163.817 378.989 163.462C379.311 163.107 379.553 162.833 379.715 162.64C379.811 162.575 379.908 162.543 380.005 162.543C380.102 162.511 380.198 162.575 380.295 162.737C380.392 162.93 380.472 163.124 380.537 163.317C380.601 163.511 380.666 163.72 380.73 163.946C381.44 166.236 382.166 168.558 382.907 170.912C383.681 173.234 384.439 175.54 385.181 177.83C385.923 180.088 386.632 182.265 387.31 184.361C388.019 186.425 388.664 188.328 389.245 190.069C389.535 190.94 389.89 191.634 390.309 192.15C390.761 192.666 391.244 193.069 391.76 193.359C392.309 193.617 392.905 193.827 393.55 193.988C393.97 194.085 394.292 194.214 394.518 194.375C394.744 194.536 394.856 194.762 394.856 195.052C394.856 195.246 394.744 195.391 394.518 195.488C394.324 195.584 394.066 195.633 393.744 195.633C393.163 195.633 392.422 195.617 391.519 195.584C390.648 195.552 389.745 195.52 388.809 195.488C387.874 195.423 387.036 195.391 386.294 195.391C385.649 195.391 384.923 195.407 384.117 195.439C383.343 195.471 382.553 195.504 381.746 195.536C380.972 195.568 380.311 195.584 379.763 195.584C379.44 195.584 379.15 195.536 378.892 195.439C378.666 195.31 378.554 195.133 378.554 194.907C378.554 194.649 378.683 194.439 378.941 194.278C379.199 194.085 379.505 193.956 379.86 193.891C381.021 193.698 381.859 193.407 382.375 193.02C382.891 192.601 383.085 192.004 382.956 191.23C382.859 190.682 382.714 190.037 382.52 189.295C382.327 188.521 382.117 187.731 381.892 186.925C381.698 186.086 381.488 185.328 381.263 184.651C381.198 184.393 381.101 184.216 380.972 184.119C380.843 183.99 380.601 183.926 380.247 183.926H371.539C371.313 183.926 371.136 184.006 371.007 184.167C370.878 184.296 370.781 184.506 370.717 184.796C370.588 185.216 370.426 185.699 370.233 186.248C370.071 186.764 369.894 187.312 369.701 187.892C369.539 188.441 369.378 188.957 369.217 189.44C369.088 189.924 368.991 190.343 368.927 190.698C368.765 191.569 368.91 192.262 369.362 192.778C369.846 193.262 370.668 193.649 371.829 193.939C372.7 194.165 373.135 194.504 373.135 194.955C373.135 195.149 373.022 195.31 372.797 195.439C372.603 195.536 372.313 195.584 371.926 195.584C371.184 195.584 370.41 195.552 369.604 195.488C368.798 195.455 367.911 195.439 366.943 195.439C365.976 195.439 365.024 195.488 364.089 195.584C363.186 195.681 362.267 195.729 361.331 195.729ZM372.845 181.7H379.569C380.021 181.7 380.247 181.603 380.247 181.41C380.247 181.313 380.231 181.233 380.198 181.168C380.198 181.104 380.182 181.007 380.15 180.878L376.764 169.703C376.635 169.251 376.522 169.025 376.425 169.025C376.36 169.025 376.248 169.235 376.086 169.654L372.023 180.878C371.958 181.039 371.926 181.168 371.926 181.265C371.926 181.426 372.007 181.539 372.168 181.603C372.361 181.668 372.587 181.7 372.845 181.7Z" fill="black"/>
<path d="M396.74 195.778C396.353 195.778 396.015 195.729 395.724 195.633C395.434 195.536 395.289 195.359 395.289 195.101C395.289 194.81 395.418 194.601 395.676 194.472C395.966 194.343 396.305 194.214 396.692 194.085C397.305 193.891 397.95 193.617 398.627 193.262C399.336 192.907 400.062 192.424 400.804 191.811C401.546 191.166 402.271 190.392 402.981 189.489L408.931 181.894C409.318 181.41 409.528 180.91 409.56 180.394C409.624 179.878 409.431 179.314 408.979 178.701L402.255 169.219C401.739 168.477 401.239 167.864 400.755 167.381C400.304 166.865 399.836 166.462 399.353 166.171C398.869 165.881 398.32 165.655 397.708 165.494C397.321 165.365 396.998 165.236 396.74 165.107C396.514 164.946 396.402 164.736 396.402 164.478C396.402 164.252 396.514 164.091 396.74 163.994C396.966 163.898 397.24 163.849 397.563 163.849C398.788 163.849 400.143 163.898 401.626 163.994C403.11 164.091 404.545 164.123 405.932 164.091C406.964 164.091 407.964 164.059 408.931 163.994C409.899 163.898 410.818 163.849 411.689 163.849C412.011 163.849 412.301 163.914 412.559 164.043C412.85 164.139 412.995 164.301 412.995 164.526C412.995 164.784 412.85 164.994 412.559 165.155C412.301 165.284 411.963 165.413 411.543 165.542C410.64 165.768 409.963 165.994 409.512 166.22C409.06 166.445 408.834 166.8 408.834 167.284C408.834 167.735 409.189 168.445 409.899 169.413L414.398 175.701C414.72 176.121 414.994 176.346 415.22 176.379C415.446 176.379 415.704 176.185 415.994 175.798L420.396 169.848C420.816 169.3 421.122 168.816 421.316 168.397C421.509 167.945 421.606 167.558 421.606 167.236C421.606 166.849 421.428 166.526 421.074 166.268C420.751 165.978 420.203 165.736 419.429 165.542C419.106 165.478 418.768 165.365 418.413 165.204C418.09 165.01 417.929 164.784 417.929 164.526C417.929 164.301 418.058 164.139 418.316 164.043C418.606 163.946 418.961 163.898 419.38 163.898C419.961 163.898 420.461 163.914 420.88 163.946C421.299 163.946 421.719 163.962 422.138 163.994C422.557 164.027 423.057 164.043 423.638 164.043C424.573 164.043 425.444 163.994 426.25 163.898C427.088 163.769 427.927 163.704 428.766 163.704C429.153 163.704 429.491 163.769 429.781 163.898C430.104 163.994 430.265 164.172 430.265 164.43C430.265 164.688 430.12 164.881 429.83 165.01C429.54 165.139 429.185 165.268 428.766 165.397C427.992 165.623 427.153 166.123 426.25 166.897C425.347 167.639 424.525 168.461 423.783 169.364L417.494 177.056C417.107 177.508 416.881 177.895 416.817 178.217C416.784 178.507 416.913 178.894 417.204 179.378L425.089 190.602C425.669 191.44 426.314 192.166 427.024 192.778C427.734 193.359 428.443 193.762 429.153 193.988C429.572 194.052 429.959 194.181 430.314 194.375C430.668 194.568 430.846 194.81 430.846 195.101C430.846 195.294 430.717 195.439 430.459 195.536C430.233 195.665 429.927 195.729 429.54 195.729C428.604 195.729 427.637 195.697 426.637 195.633C425.669 195.6 424.702 195.552 423.734 195.488C422.799 195.423 421.848 195.407 420.88 195.439C419.913 195.439 418.961 195.455 418.026 195.488C417.123 195.52 416.252 195.536 415.414 195.536C415.091 195.536 414.785 195.488 414.494 195.391C414.204 195.262 414.059 195.101 414.059 194.907C414.059 194.649 414.22 194.439 414.543 194.278C414.898 194.085 415.22 193.956 415.51 193.891C416.091 193.73 416.655 193.504 417.204 193.214C417.784 192.891 418.074 192.44 418.074 191.859C418.074 191.634 418.042 191.424 417.978 191.23C417.913 191.037 417.784 190.811 417.591 190.553L412.414 183.2C412.092 182.684 411.801 182.394 411.543 182.329C411.285 182.265 410.979 182.49 410.624 183.006L405.4 190.118C405.077 190.602 404.867 191.021 404.771 191.376C404.706 191.73 404.69 192.004 404.722 192.198C404.755 192.617 404.964 192.988 405.351 193.311C405.738 193.633 406.27 193.859 406.948 193.988C407.367 194.052 407.722 194.181 408.012 194.375C408.302 194.536 408.447 194.746 408.447 195.004C408.447 195.23 408.302 195.391 408.012 195.488C407.754 195.584 407.431 195.633 407.044 195.633C406.27 195.633 405.448 195.6 404.577 195.536C403.739 195.504 402.981 195.488 402.303 195.488C401.304 195.488 400.352 195.536 399.449 195.633C398.546 195.729 397.643 195.778 396.74 195.778Z" fill="black"/>
<path d="M546.99 312.398C540.617 420.895 444.259 441.96 432.424 443.294C426.961 443.738 416.492 444.628 397.829 444.628C446.99 422.395 473.391 382.375 472.936 351.249C496.606 353.028 535.155 352.862 546.99 312.398Z" fill="black" stroke="white" stroke-width="2" stroke-miterlimit="10" stroke-linejoin="round"/>
<path d="M490.551 129.979V141.559C490.551 142.45 490.551 142.895 490.551 143.786C489.214 151.357 482.974 157.592 474.952 157.592H400.526C392.505 157.592 386.265 151.357 384.928 143.786C384.928 142.895 384.928 142.45 384.928 141.559V129.979C384.928 128.198 386.265 125.971 388.494 125.971H425.038C425.038 125.08 425.038 124.635 425.038 124.189C425.038 117.063 431.277 110.828 438.408 110.828C445.539 110.828 451.778 117.063 451.778 124.189C451.778 125.08 451.778 125.526 451.778 125.971H488.322C489.214 126.416 490.551 127.752 490.551 129.979Z" fill="black" stroke="black" stroke-width="2" stroke-miterlimit="10" stroke-linejoin="round"/>
<path d="M363.667 496.42H162.194C158.328 496.42 155.194 493.286 155.194 489.42V337.774C155.194 333.908 158.328 330.774 162.194 330.774H382.957C386.823 330.774 389.957 333.908 389.957 337.774V489.42C389.957 493.286 386.823 496.42 382.957 496.42H363.667Z" fill="white" stroke="black" stroke-width="2"/>
<path d="M154.929 413.44V391.381L158.238 343.955L368.531 342.642L357.869 411.97L237.649 427.043L154.929 413.44Z" fill="black"/>
<path d="M358.133 341.774C358.133 335.699 363.058 330.774 369.133 330.774H384.282C389.253 330.774 393.282 334.804 393.282 339.774V496.42L358.133 496.42V341.774Z" fill="#E4EEFC" stroke="black" stroke-width="2" stroke-linejoin="round"/>
<path d="M248.284 306.18C245.038 308.334 242.899 312.022 242.899 316.209V317.642V330.245H226.517V321.18C226.517 312.895 233.232 306.18 241.517 306.18H248.284Z" fill="black" stroke="black" stroke-width="2" stroke-linejoin="round"/>
<path d="M288.736 306.18C292.438 308.502 294.899 312.62 294.899 317.312V317.642V330.245H311.281V321.18C311.281 312.895 304.565 306.18 296.281 306.18H288.736Z" fill="black" stroke="black" stroke-width="2" stroke-linejoin="round"/>
<path d="M389.057 330.832L378.448 332.03C368.686 333.133 360.581 340.074 357.991 349.551L344.246 399.836C343.372 403.032 340.619 405.358 337.322 405.687L233.147 416.07C232.475 416.137 231.796 416.118 231.128 416.015L144.997 402.661C140.706 401.996 137.729 398.029 138.289 393.723L145.566 337.8C146.085 333.814 149.48 330.832 153.5 330.832H389.057Z" fill="white" stroke="black" stroke-width="2" stroke-linejoin="round"/>
<path d="M248.14 385.106L243.111 400.597C242.709 401.834 241.557 402.671 240.257 402.671H231.962C229.96 402.671 228.52 400.747 229.083 398.826L233.628 383.335C234.003 382.057 235.175 381.179 236.507 381.179H245.287C247.325 381.179 248.77 383.167 248.14 385.106Z" fill="black" stroke="black" stroke-width="2"/>
<path d="M290.222 305.915H243.899" stroke="black" stroke-width="2" stroke-linejoin="round"/>
</svg>
