<svg width="703" height="532" viewBox="0 0 703 532" fill="none" xmlns="http://www.w3.org/2000/svg">
<rect x="102" y="16" width="500" height="500" rx="250" fill="#FFEB7F"/>
<path d="M367.045 187.59L227.727 188.601L226.364 288.364L368.817 290.138L367.045 187.59Z" fill="#F6F6F6" stroke="black" stroke-width="2"/>
<path d="M237.54 271.143L262.202 239.909L290.459 267.933L328.562 215.067L342.78 230.561L429.253 100.654M429.253 100.654L433.451 121.216M429.253 100.654L408.853 104.865M460 105.805L483.821 85.0299M383.5 103.804L362.863 79.7778" stroke="black" stroke-width="2"/>
<path d="M419.156 229.353H507.4" stroke="black" stroke-width="2"/>
<path d="M419.156 256.996H507.4" stroke="black" stroke-width="2"/>
<path d="M419.156 284.639H507.4" stroke="black" stroke-width="2"/>
<path d="M310.406 430.027L330.607 358.793H399.714L419.914 430.027M313.831 417.95C282.128 420.127 261.5 424.16 261.5 428.963C261.5 436.01 307.672 441.722 364.629 441.722C421.586 441.722 467.758 436.01 467.758 428.963C467.758 424.268 447.021 420.165 416.489 417.95" stroke="black" stroke-width="2"/>
<path fill-rule="evenodd" clip-rule="evenodd" d="M193.95 367.299V375.804H544.802V135.524H536.296V367.299H193.95Z" fill="black"/>
<path d="M193.95 375.804H192.95V376.804H193.95V375.804ZM193.95 367.299V366.299H192.95V367.299H193.95ZM544.802 375.804V376.804H545.802V375.804H544.802ZM544.802 135.524H545.802V134.524H544.802V135.524ZM536.296 135.524V134.524H535.296V135.524H536.296ZM536.296 367.299V368.299H537.296V367.299H536.296ZM194.95 375.804V367.299H192.95V375.804H194.95ZM544.802 374.804H193.95V376.804H544.802V374.804ZM543.802 135.524V375.804H545.802V135.524H543.802ZM536.296 136.524H544.802V134.524H536.296V136.524ZM535.296 135.524V367.299H537.296V135.524H535.296ZM536.296 366.299H193.95V368.299H536.296V366.299Z" fill="black"/>
<path d="M370.873 135.524H193.5V337.53H537.972V135.524H451.854" stroke="black" stroke-width="2"/>
<rect x="193.5" y="318.353" width="342" height="51" fill="#EBF3FF" stroke="black" stroke-width="2"/>
<circle cx="366.186" cy="343.909" r="10.6319" fill="black"/>
<circle cx="191.359" cy="399.396" r="60.1163" fill="black"/>
<circle cx="187.065" cy="395.102" r="56.5399" fill="#F6F6F6" stroke="black" stroke-width="2"/>
<circle cx="187.065" cy="395.102" r="47.9519" fill="#F6F6F6" stroke="black" stroke-width="2"/>
<path d="M170.469 370.779L174.856 378.05M201.807 422.717L197.42 415.446" stroke="black" stroke-width="2" stroke-linecap="round"/>
<path d="M186.975 370.739L168.796 381.708C166.546 383.065 164.983 385.352 164.45 388.065C163.917 390.779 164.458 393.696 165.954 396.175C167.45 398.655 169.779 400.493 172.427 401.287C175.076 402.08 177.828 401.763 180.078 400.406L192.197 393.093C194.447 391.736 197.199 391.419 199.848 392.212C202.497 393.005 204.825 394.844 206.321 397.324C207.817 399.803 208.358 402.72 207.825 405.434C207.292 408.147 205.729 410.434 203.479 411.791L184.954 422.969" stroke="black" stroke-width="2" stroke-linecap="round"/>
<circle cx="29.5776" cy="29.5776" r="29.5776" transform="matrix(-0.346033 -0.938222 -0.938222 0.346033 183.344 326)" fill="black"/>
<circle cx="28.31" cy="28.31" r="27.31" transform="matrix(-0.346033 -0.938222 -0.938222 0.346033 179.901 323.265)" fill="#F6F6F6" stroke="black" stroke-width="2"/>
<circle cx="24.0846" cy="24.0846" r="23.0846" transform="matrix(-0.346033 -0.938222 -0.938222 0.346033 174.475 320.763)" fill="#F6F6F6" stroke="black" stroke-width="2"/>
<path d="M153.372 294.542L150.771 297.739M134.794 317.376L137.395 314.179" stroke="black" stroke-width="2" stroke-linecap="round"/>
<path d="M156.097 302.075L148.105 295.573C147.116 294.768 145.815 294.429 144.489 294.631C143.162 294.833 141.919 295.559 141.032 296.649C140.145 297.739 139.687 299.104 139.759 300.444C139.832 301.783 140.428 302.988 141.417 303.793L146.745 308.128C147.734 308.933 148.33 310.138 148.403 311.478C148.475 312.817 148.017 314.182 147.13 315.273C146.243 316.363 145 317.088 143.673 317.29C142.347 317.492 141.046 317.153 140.057 316.348L131.913 309.722" stroke="black" stroke-width="2" stroke-linecap="round"/>
<mask id="path-23-inside-1_201_3119" fill="white">
<path d="M442.908 208.861C425.258 175.397 438.078 133.961 471.542 116.311C505.006 98.6611 546.442 111.481 564.092 144.945C581.742 178.409 568.922 219.844 535.458 237.494C501.994 255.144 460.558 242.324 442.908 208.861ZM531.82 161.966C523.57 146.326 504.204 140.334 488.563 148.583C472.923 156.832 466.931 176.199 475.18 191.839C483.43 207.48 502.796 213.471 518.437 205.222C534.077 196.973 540.069 177.606 531.82 161.966Z"/>
</mask>
<path d="M442.908 208.861C425.258 175.397 438.078 133.961 471.542 116.311C505.006 98.6611 546.442 111.481 564.092 144.945C581.742 178.409 568.922 219.844 535.458 237.494C501.994 255.144 460.558 242.324 442.908 208.861ZM531.82 161.966C523.57 146.326 504.204 140.334 488.563 148.583C472.923 156.832 466.931 176.199 475.18 191.839C483.43 207.48 502.796 213.471 518.437 205.222C534.077 196.973 540.069 177.606 531.82 161.966Z" fill="white" stroke="black" stroke-width="4" mask="url(#path-23-inside-1_201_3119)"/>
<mask id="path-24-inside-2_201_3119" fill="white">
<path d="M487.041 110.406C474.227 113.578 462.602 120.385 453.565 130.007C444.529 139.63 438.464 151.658 436.102 164.646L471.935 171.162C473.041 165.079 475.881 159.446 480.113 154.939C484.346 150.433 489.79 147.245 495.791 145.759L487.041 110.406Z"/>
</mask>
<path d="M487.041 110.406C474.227 113.578 462.602 120.385 453.565 130.007C444.529 139.63 438.464 151.658 436.102 164.646L471.935 171.162C473.041 165.079 475.881 159.446 480.113 154.939C484.346 150.433 489.79 147.245 495.791 145.759L487.041 110.406Z" fill="#EBF3FF" stroke="black" stroke-width="4" mask="url(#path-24-inside-2_201_3119)"/>
<path d="M438.058 156.655C434.053 169.599 433.977 183.439 437.838 196.426C441.699 209.412 449.325 220.962 459.75 229.615C470.176 238.268 482.933 243.635 496.409 245.038C509.885 246.44 523.474 243.815 535.458 237.494L518.463 205.271C512.852 208.231 506.489 209.46 500.18 208.803C493.871 208.147 487.898 205.634 483.017 201.583C478.135 197.531 474.565 192.124 472.757 186.043C470.949 179.963 470.985 173.483 472.86 167.423L438.058 156.655Z" fill="black"/>
</svg>
