<svg width="275" height="38" viewBox="0 0 275 38" fill="none" xmlns="http://www.w3.org/2000/svg">
<path fill-rule="evenodd" clip-rule="evenodd" d="M45.071 0.27234C44.4715 0.380326 43.5652 0.623295 43.0354 0.825769C40.0543 1.9178 37.7465 4.13806 36.9982 7.15646C36.5836 8.90368 36.7257 10.7665 37.2213 12.4883C37.4165 13.1902 37.8208 14.2835 38.0997 14.918C38.3786 15.5524 38.8665 16.5648 39.2012 17.1857C39.3374 17.4329 39.4573 17.6437 39.5516 17.8096C39.689 18.0512 39.7721 18.1972 39.7721 18.2213C38.5789 18.6065 37.0734 19.2088 35.8385 19.8381H24.368V26.4248H29.7241C27.3323 29.4959 23.5473 31.4033 19.4094 31.4033C12.4456 31.4033 6.80039 25.9355 6.80039 19.1905C6.80039 12.4456 12.4456 6.97778 19.4094 6.97778H19.8825C22.875 6.97778 25.8007 7.83575 28.2906 9.44355L32.0628 3.96312C28.4557 1.634 24.2176 0.391121 19.8825 0.391121H19.4094C8.6899 0.391121 0 8.80791 0 19.1905C0 29.5732 8.6899 37.99 19.4094 37.99C24.3745 37.99 29.0068 36.1908 32.5349 33.144C32.6082 33.2247 32.6832 33.3046 32.7597 33.3836C33.8065 34.4771 35.0176 35.337 36.3848 36.0158C39.3291 37.441 42.7413 38 46.0051 38C48.8107 38 51.5616 37.4383 54.1616 36.4207L55.3467 35.9348C56.7549 36.6907 57.7169 37.0821 58.414 37.3116C59.7888 37.7723 61.3198 38.0138 62.7777 37.9808L80.4864 37.989C91.206 37.989 99.8959 29.5722 99.8959 19.1896C99.8959 8.80694 91.206 0.39015 80.4864 0.390151L64.9022 0.390151V18.1575H58.0655V19.5074C59.2052 19.5074 60.1649 19.7338 61.0353 20.4792C62.7034 21.8715 62.7535 24.1936 62.1925 26.0945C61.8394 27.3153 61.3163 28.427 60.617 29.4961L60.1429 30.2385C58.9439 29.0911 57.94 27.9978 57.1313 27.0664C56.3227 26.135 54.9284 24.4342 54.0361 23.2869C53.1298 22.1395 51.8053 20.3713 51.0802 19.3724C50.9251 19.1587 50.7634 18.9454 50.601 18.7312C50.2095 18.2151 49.8137 17.6931 49.4943 17.1438C49.3791 16.9457 49.2817 16.7781 49.2817 16.7402C49.2817 16.6997 49.5466 16.6322 49.8672 16.5917C50.2019 16.5378 50.9687 16.3353 51.5822 16.1328C52.8014 15.7304 53.9428 15.2472 55.026 14.567C56.7162 13.5335 58.1835 11.9024 58.8184 10.0586C59.825 7.3297 58.8886 4.17819 56.5179 2.41856C53.2585 0.104535 48.9817 -0.39426 45.057 0.27234H45.071ZM71.2776 31.4023V31.4902C69.6812 34.1618 66.6213 34.5813 63.9214 33.1001C63.5031 32.8842 62.6665 32.3307 62.067 31.8718C61.6081 31.5255 61.1443 31.1742 61.0126 31.028C61.3086 30.6076 61.6083 30.1895 61.908 29.7714C62.2983 29.227 62.6886 28.6825 63.0709 28.1328C64.019 26.7694 65.0647 25.3116 65.3993 24.9067C66.3903 23.6553 67.4763 22.4639 68.7037 21.4241C69.591 20.6752 70.5961 20.0435 71.7228 19.6988V18.1575H71.7026V6.97681L80.4864 6.97681C87.4502 6.97681 93.0955 12.4446 93.0955 19.1896C93.0955 25.9345 87.4502 31.4023 80.4864 31.4023L72.2565 31.4014L72.2557 31.4023H71.2776ZM49.0028 1.71666C48.1056 1.22031 46.6769 1.11204 45.7263 1.52768C45.003 1.84595 44.4967 2.47229 44.2066 3.17447C43.6134 4.59084 44.0389 6.64702 44.5412 8.03385C44.7782 8.73576 45.3359 10.0181 45.7542 10.8685C46.1725 11.7189 46.9393 13.1362 47.4831 14.0136C48.0129 14.8775 48.5009 15.5929 48.5845 15.5929C48.6682 15.5929 49.0865 15.2689 49.5326 14.864C51.2641 13.2835 51.7911 10.9345 51.8889 8.70876C51.9544 7.09271 51.821 5.54052 51.1221 4.05186C50.6547 3.11866 49.9514 2.23093 49.0028 1.71666ZM40.7627 19.9123C40.7348 19.9123 40.5675 20.1148 40.4002 20.3443C37.6961 24.2712 38.945 30.5044 42.408 33.6806C45.2259 36.3349 49.8347 36.7778 53.3947 35.3678C53.8688 35.1789 53.9245 35.1249 53.7433 34.9764C53.6577 34.9039 53.285 34.609 52.8393 34.2564L52.8387 34.2559L52.8384 34.2557L52.4187 33.9235C51.8053 33.4376 50.6201 32.3442 49.7696 31.4938C48.9191 30.6569 47.6364 29.2261 46.8975 28.3487C46.1725 27.4579 45.0989 26.0945 44.5133 25.3116C43.9277 24.5287 42.8681 23.0034 42.143 21.8966C41.432 20.8032 40.8046 19.9123 40.7627 19.9123Z" fill="black"/>
<path d="M124.914 25.675C125.979 26.2917 127.268 26.6 128.782 26.6C129.833 26.6 130.773 26.4458 131.6 26.1375C132.427 25.8151 133.149 25.3596 133.765 24.771L133.008 23.026C132.336 23.6147 131.677 24.0351 131.032 24.2874C130.401 24.5397 129.665 24.6658 128.824 24.6658C127.226 24.6658 126.007 24.1753 125.166 23.1942C124.325 22.1991 123.904 20.7975 123.904 18.9895C123.904 17.1815 124.325 15.7869 125.166 14.8058C126.007 13.8247 127.226 13.3342 128.824 13.3342C129.665 13.3342 130.401 13.4603 131.032 13.7126C131.677 13.9649 132.336 14.3783 133.008 14.953L133.765 13.208C133.149 12.6194 132.427 12.1709 131.6 11.8625C130.773 11.5542 129.833 11.4 128.782 11.4C127.268 11.4 125.979 11.7083 124.914 12.325C123.848 12.9417 123.028 13.8177 122.454 14.953C121.893 16.0882 121.612 17.4337 121.612 18.9895C121.612 20.5452 121.893 21.8977 122.454 23.047C123.028 24.1823 123.848 25.0583 124.914 25.675Z" fill="black"/>
<path fill-rule="evenodd" clip-rule="evenodd" d="M138.897 14.953C138.351 16.0882 138.077 17.4337 138.077 18.9895C138.077 20.5312 138.351 21.8767 138.897 23.026C139.458 24.1613 140.257 25.0443 141.294 25.675C142.332 26.2917 143.572 26.6 145.016 26.6C146.432 26.6 147.658 26.2917 148.695 25.675C149.747 25.0443 150.553 24.1613 151.113 23.026C151.688 21.8767 151.975 20.5242 151.975 18.9685C151.975 17.4267 151.688 16.0882 151.113 14.953C150.553 13.8177 149.754 12.9417 148.716 12.325C147.679 11.7083 146.446 11.4 145.016 11.4C143.572 11.4 142.325 11.7083 141.273 12.325C140.236 12.9417 139.444 13.8177 138.897 14.953ZM141.547 23.1942C140.762 22.1851 140.369 20.7835 140.369 18.9895C140.369 17.1815 140.762 15.7799 141.547 14.7848C142.332 13.7897 143.488 13.2921 145.016 13.2921C146.516 13.2921 147.665 13.7897 148.464 14.7848C149.277 15.7799 149.684 17.1815 149.684 18.9895C149.684 20.7975 149.277 22.2061 148.464 23.2152C147.651 24.2103 146.502 24.7079 145.016 24.7079C143.488 24.7079 142.332 24.2033 141.547 23.1942Z" fill="black"/>
<path d="M157.49 26.4108V11.5892H159.172L167.751 22.8411V11.5892H169.79V26.4108H168.129L159.53 15.1052V26.4108H157.49Z" fill="black"/>
<path d="M177.549 26.1585C178.516 26.4528 179.595 26.6 180.787 26.6C181.936 26.6 182.931 26.4248 183.772 26.0744C184.613 25.71 185.258 25.2054 185.707 24.5607C186.169 23.916 186.401 23.1662 186.401 22.3112C186.401 21.246 186.064 20.4121 185.391 19.8094C184.718 19.1927 183.674 18.7372 182.258 18.4429L179.967 18.0014C179.07 17.8192 178.425 17.5529 178.032 17.2025C177.654 16.8521 177.465 16.3686 177.465 15.7519C177.465 14.981 177.766 14.3713 178.369 13.9228C178.986 13.4743 179.834 13.2501 180.913 13.2501C181.824 13.2501 182.637 13.3832 183.352 13.6495C184.067 13.9018 184.74 14.3012 185.37 14.8479L186.085 13.187C185.482 12.5983 184.74 12.1568 183.856 11.8625C182.973 11.5542 182.006 11.4 180.955 11.4C179.82 11.4 178.824 11.5822 177.969 11.9466C177.128 12.311 176.469 12.8296 175.993 13.5024C175.516 14.1751 175.278 14.96 175.278 15.857C175.278 16.9642 175.607 17.8402 176.266 18.4849C176.939 19.1156 177.955 19.5711 179.315 19.8515L181.607 20.314C182.574 20.5102 183.247 20.7695 183.625 21.0918C184.018 21.4142 184.214 21.8697 184.214 22.4584C184.214 23.1451 183.934 23.6988 183.373 24.1192C182.826 24.5397 181.964 24.7499 180.787 24.7499C180.1 24.7499 179.462 24.6939 178.873 24.5817C178.299 24.4556 177.752 24.2734 177.233 24.0351C176.729 23.7969 176.238 23.4955 175.762 23.1311L175.026 24.855C175.741 25.4157 176.582 25.8502 177.549 26.1585Z" fill="black"/>
<path d="M197.624 26.6C195.564 26.6 194.029 26.0814 193.02 25.0443C192.024 24.0071 191.527 22.4724 191.527 20.4401V11.5892H193.714V20.3981C193.714 21.8277 194.022 22.9069 194.639 23.6357C195.269 24.3505 196.265 24.7079 197.624 24.7079C198.914 24.7079 199.888 24.3505 200.547 23.6357C201.206 22.9069 201.535 21.8277 201.535 20.3981V11.5892H203.68V20.4401C203.68 22.4724 203.168 24.0071 202.145 25.0443C201.122 26.0814 199.615 26.6 197.624 26.6Z" fill="black"/>
<path d="M209.595 11.5892V26.4108H219.057V24.5397H211.782V11.5892H209.595Z" fill="black"/>
<path d="M224.562 26.4108V13.4183H219.495V11.5892H231.816V13.4183H226.749V26.4108H224.562Z" fill="black"/>
<path d="M236.386 11.5892V26.4108H238.572V11.5892H236.386Z" fill="black"/>
<path d="M244.576 26.4108V11.5892H246.258L254.836 22.8411V11.5892H256.876V26.4108H255.215L246.615 15.1052V26.4108H244.576Z" fill="black"/>
<path d="M265.707 25.696C266.828 26.2987 268.209 26.6 269.849 26.6C270.774 26.6 271.699 26.5019 272.624 26.3057C273.563 26.1095 274.355 25.8502 275 25.5278V18.527H269.512V20.1668H273.171V24.1561C272.727 24.3162 272.272 24.4441 271.804 24.5397C271.187 24.6518 270.564 24.7079 269.933 24.7079C268.111 24.7079 266.772 24.2243 265.917 23.2573C265.076 22.2902 264.655 20.8816 264.655 19.0315C264.655 17.2095 265.097 15.8009 265.98 14.8058C266.863 13.8107 268.153 13.3131 269.849 13.3131C270.451 13.3131 270.977 13.3692 271.426 13.4813C271.874 13.5794 272.309 13.7406 272.729 13.9649C273.15 14.1891 273.584 14.4905 274.033 14.8689L274.811 13.166C274.18 12.5913 273.465 12.1568 272.666 11.8625C271.867 11.5542 270.928 11.4 269.849 11.4C268.279 11.4 266.933 11.7083 265.812 12.325C264.704 12.9417 263.849 13.8177 263.247 14.953C262.658 16.0882 262.364 17.4408 262.364 19.0105C262.364 20.5803 262.644 21.9328 263.205 23.0681C263.765 24.2033 264.599 25.0793 265.707 25.696Z" fill="black"/>
</svg>
