<svg width="307" height="60" viewBox="0 0 307 60" fill="none" xmlns="http://www.w3.org/2000/svg">
<path fill-rule="evenodd" clip-rule="evenodd" d="M61.071 11.2723C60.4715 11.3803 59.5652 11.6233 59.0354 11.8258C56.0543 12.9178 53.7465 15.1381 52.9982 18.1565C52.5836 19.9037 52.7257 21.7665 53.2213 23.4883C53.4165 24.1902 53.8208 25.2835 54.0997 25.918C54.3786 26.5524 54.8665 27.5648 55.2012 28.1857C55.3374 28.4329 55.4573 28.6437 55.5516 28.8096C55.689 29.0512 55.7721 29.1972 55.7721 29.2213C54.5789 29.6065 53.0734 30.2088 51.8385 30.8381H40.368V37.4248H45.7241C43.3323 40.4959 39.5473 42.4033 35.4094 42.4033C28.4456 42.4033 22.8004 36.9355 22.8004 30.1905C22.8004 23.4456 28.4456 17.9778 35.4094 17.9778H35.8825C38.875 17.9778 41.8007 18.8357 44.2906 20.4436L48.0628 14.9631C44.4557 12.634 40.2176 11.3911 35.8825 11.3911H35.4094C24.6899 11.3911 16 19.8079 16 30.1905C16 40.5732 24.6899 48.99 35.4094 48.99C40.3745 48.99 45.0068 47.1908 48.5349 44.144C48.6082 44.2247 48.6832 44.3046 48.7597 44.3836C49.8065 45.4771 51.0176 46.337 52.3848 47.0158C55.3291 48.441 58.7413 49 62.0051 49C64.8107 49 67.5616 48.4383 70.1616 47.4207L71.3467 46.9348C72.7549 47.6907 73.7169 48.0821 74.414 48.3116C75.7888 48.7723 77.3198 49.0138 78.7777 48.9808L96.4864 48.989C107.206 48.989 115.896 40.5722 115.896 30.1896C115.896 19.8069 107.206 11.3902 96.4864 11.3902L80.9022 11.3902V29.1575H74.0655V30.5074C75.2052 30.5074 76.1649 30.7338 77.0353 31.4792C78.7034 32.8715 78.7535 35.1936 78.1925 37.0945C77.8394 38.3153 77.3163 39.427 76.617 40.4961L76.1429 41.2385C74.9439 40.0911 73.94 38.9978 73.1313 38.0664C72.3227 37.135 70.9284 35.4342 70.0361 34.2869C69.1298 33.1395 67.8053 31.3713 67.0802 30.3724C66.9251 30.1587 66.7634 29.9454 66.601 29.7312C66.2095 29.2151 65.8137 28.6931 65.4943 28.1438C65.3791 27.9457 65.2817 27.7781 65.2817 27.7402C65.2817 27.6997 65.5466 27.6322 65.8672 27.5917C66.2019 27.5378 66.9687 27.3353 67.5822 27.1328C68.8014 26.7304 69.9428 26.2472 71.026 25.567C72.7162 24.5335 74.1835 22.9024 74.8184 21.0586C75.825 18.3297 74.8886 15.1782 72.5179 13.4186C69.2585 11.1045 64.9817 10.6057 61.057 11.2723H61.071ZM87.2776 42.4023V42.4902C85.6812 45.1618 82.6213 45.5813 79.9214 44.1001C79.5031 43.8842 78.6665 43.3307 78.067 42.8718C77.6081 42.5255 77.1443 42.1742 77.0126 42.028C77.3086 41.6076 77.6083 41.1895 77.908 40.7714C78.2983 40.227 78.6886 39.6825 79.0709 39.1328C80.019 37.7694 81.0647 36.3116 81.3993 35.9067C82.3903 34.6553 83.4763 33.4639 84.7037 32.4241C85.591 31.6752 86.5961 31.0435 87.7228 30.6988V29.1575H87.7026V17.9768L96.4864 17.9768C103.45 17.9768 109.095 23.4446 109.095 30.1896C109.095 36.9345 103.45 42.4023 96.4864 42.4023L88.2565 42.4014L88.2557 42.4023H87.2776ZM65.0028 12.7167C64.1056 12.2203 62.6769 12.112 61.7263 12.5277C61.003 12.846 60.4967 13.4723 60.2066 14.1745C59.6134 15.5908 60.0389 17.647 60.5412 19.0338C60.7782 19.7358 61.3359 21.0181 61.7542 21.8685C62.1725 22.7189 62.9393 24.1362 63.4831 25.0136C64.0129 25.8775 64.5009 26.5929 64.5845 26.5929C64.6682 26.5929 65.0865 26.2689 65.5326 25.864C67.2641 24.2835 67.7911 21.9345 67.8889 19.7088C67.9544 18.0927 67.821 16.5405 67.1221 15.0519C66.6547 14.1187 65.9514 13.2309 65.0028 12.7167ZM56.7627 30.9123C56.7348 30.9123 56.5675 31.1148 56.4002 31.3443C53.6961 35.2712 54.945 41.5044 58.408 44.6806C61.2259 47.3349 65.8347 47.7778 69.3947 46.3678C69.8688 46.1789 69.9245 46.1249 69.7433 45.9764C69.6577 45.9039 69.285 45.609 68.8393 45.2564L68.8387 45.2559L68.8384 45.2557L68.4187 44.9235C67.8053 44.4376 66.6201 43.3442 65.7696 42.4938C64.9191 41.6569 63.6364 40.2261 62.8975 39.3487C62.1725 38.4579 61.0989 37.0945 60.5133 36.3116C59.9277 35.5287 58.8681 34.0034 58.143 32.8966C57.432 31.8032 56.8046 30.9123 56.7627 30.9123Z" fill="black"/>
<path d="M140.914 36.675C141.979 37.2917 143.268 37.6 144.782 37.6C145.833 37.6 146.773 37.4458 147.6 37.1375C148.427 36.8151 149.149 36.3596 149.765 35.771L149.008 34.026C148.336 34.6147 147.677 35.0351 147.032 35.2874C146.401 35.5397 145.665 35.6658 144.824 35.6658C143.226 35.6658 142.007 35.1753 141.166 34.1942C140.325 33.1991 139.904 31.7975 139.904 29.9895C139.904 28.1815 140.325 26.7869 141.166 25.8058C142.007 24.8247 143.226 24.3342 144.824 24.3342C145.665 24.3342 146.401 24.4603 147.032 24.7126C147.677 24.9649 148.336 25.3783 149.008 25.953L149.765 24.208C149.149 23.6194 148.427 23.1709 147.6 22.8625C146.773 22.5542 145.833 22.4 144.782 22.4C143.268 22.4 141.979 22.7083 140.914 23.325C139.848 23.9417 139.028 24.8177 138.454 25.953C137.893 27.0882 137.612 28.4337 137.612 29.9895C137.612 31.5452 137.893 32.8977 138.454 34.047C139.028 35.1823 139.848 36.0583 140.914 36.675Z" fill="black"/>
<path fill-rule="evenodd" clip-rule="evenodd" d="M154.897 25.953C154.351 27.0882 154.077 28.4337 154.077 29.9895C154.077 31.5312 154.351 32.8767 154.897 34.026C155.458 35.1613 156.257 36.0443 157.294 36.675C158.332 37.2917 159.572 37.6 161.016 37.6C162.432 37.6 163.658 37.2917 164.695 36.675C165.747 36.0443 166.553 35.1613 167.113 34.026C167.688 32.8767 167.975 31.5242 167.975 29.9685C167.975 28.4267 167.688 27.0882 167.113 25.953C166.553 24.8177 165.754 23.9417 164.716 23.325C163.679 22.7083 162.446 22.4 161.016 22.4C159.572 22.4 158.325 22.7083 157.273 23.325C156.236 23.9417 155.444 24.8177 154.897 25.953ZM157.547 34.1942C156.762 33.1851 156.369 31.7835 156.369 29.9895C156.369 28.1815 156.762 26.7799 157.547 25.7848C158.332 24.7897 159.488 24.2921 161.016 24.2921C162.516 24.2921 163.665 24.7897 164.464 25.7848C165.277 26.7799 165.684 28.1815 165.684 29.9895C165.684 31.7975 165.277 33.2061 164.464 34.2152C163.651 35.2103 162.502 35.7079 161.016 35.7079C159.488 35.7079 158.332 35.2033 157.547 34.1942Z" fill="black"/>
<path d="M173.49 37.4108V22.5892H175.172L183.751 33.8411V22.5892H185.79V37.4108H184.129L175.53 26.1052V37.4108H173.49Z" fill="black"/>
<path d="M193.549 37.1585C194.516 37.4528 195.595 37.6 196.787 37.6C197.936 37.6 198.931 37.4248 199.772 37.0744C200.613 36.71 201.258 36.2054 201.707 35.5607C202.169 34.916 202.401 34.1662 202.401 33.3112C202.401 32.246 202.064 31.4121 201.391 30.8094C200.718 30.1927 199.674 29.7372 198.258 29.4429L195.967 29.0014C195.07 28.8192 194.425 28.5529 194.032 28.2025C193.654 27.8521 193.465 27.3686 193.465 26.7519C193.465 25.981 193.766 25.3713 194.369 24.9228C194.986 24.4743 195.834 24.2501 196.913 24.2501C197.824 24.2501 198.637 24.3832 199.352 24.6495C200.067 24.9018 200.74 25.3012 201.37 25.8479L202.085 24.187C201.482 23.5983 200.74 23.1568 199.856 22.8625C198.973 22.5542 198.006 22.4 196.955 22.4C195.82 22.4 194.824 22.5822 193.969 22.9466C193.128 23.311 192.469 23.8296 191.993 24.5024C191.516 25.1751 191.278 25.96 191.278 26.857C191.278 27.9642 191.607 28.8402 192.266 29.4849C192.939 30.1156 193.955 30.5711 195.315 30.8515L197.607 31.314C198.574 31.5102 199.247 31.7695 199.625 32.0918C200.018 32.4142 200.214 32.8697 200.214 33.4584C200.214 34.1451 199.934 34.6988 199.373 35.1192C198.826 35.5397 197.964 35.7499 196.787 35.7499C196.1 35.7499 195.462 35.6939 194.873 35.5817C194.299 35.4556 193.752 35.2734 193.233 35.0351C192.729 34.7969 192.238 34.4955 191.762 34.1311L191.026 35.855C191.741 36.4157 192.582 36.8502 193.549 37.1585Z" fill="black"/>
<path d="M213.624 37.6C211.564 37.6 210.029 37.0814 209.02 36.0443C208.024 35.0071 207.527 33.4724 207.527 31.4401V22.5892H209.714V31.3981C209.714 32.8277 210.022 33.9069 210.639 34.6357C211.269 35.3505 212.265 35.7079 213.624 35.7079C214.914 35.7079 215.888 35.3505 216.547 34.6357C217.206 33.9069 217.535 32.8277 217.535 31.3981V22.5892H219.68V31.4401C219.68 33.4724 219.168 35.0071 218.145 36.0443C217.122 37.0814 215.615 37.6 213.624 37.6Z" fill="black"/>
<path d="M225.595 22.5892V37.4108H235.057V35.5397H227.782V22.5892H225.595Z" fill="black"/>
<path d="M240.562 37.4108V24.4183H235.495V22.5892H247.816V24.4183H242.749V37.4108H240.562Z" fill="black"/>
<path d="M252.386 22.5892V37.4108H254.572V22.5892H252.386Z" fill="black"/>
<path d="M260.576 37.4108V22.5892H262.258L270.836 33.8411V22.5892H272.876V37.4108H271.215L262.615 26.1052V37.4108H260.576Z" fill="black"/>
<path d="M281.707 36.696C282.828 37.2987 284.209 37.6 285.849 37.6C286.774 37.6 287.699 37.5019 288.624 37.3057C289.563 37.1095 290.355 36.8502 291 36.5278V29.527H285.512V31.1668H289.171V35.1561C288.727 35.3162 288.272 35.4441 287.804 35.5397C287.187 35.6518 286.564 35.7079 285.933 35.7079C284.111 35.7079 282.772 35.2243 281.917 34.2573C281.076 33.2902 280.655 31.8816 280.655 30.0315C280.655 28.2095 281.097 26.8009 281.98 25.8058C282.863 24.8107 284.153 24.3131 285.849 24.3131C286.451 24.3131 286.977 24.3692 287.426 24.4813C287.874 24.5794 288.309 24.7406 288.729 24.9649C289.15 25.1891 289.584 25.4905 290.033 25.8689L290.811 24.166C290.18 23.5913 289.465 23.1568 288.666 22.8625C287.867 22.5542 286.928 22.4 285.849 22.4C284.279 22.4 282.933 22.7083 281.812 23.325C280.704 23.9417 279.849 24.8177 279.247 25.953C278.658 27.0882 278.364 28.4408 278.364 30.0105C278.364 31.5803 278.644 32.9328 279.205 34.0681C279.765 35.2033 280.599 36.0793 281.707 36.696Z" fill="black"/>
</svg>
