<svg width="36" height="36" viewBox="0 0 36 36" fill="none" xmlns="http://www.w3.org/2000/svg">
<g id="free-icon-telegram-1946547">
<g id="g1746">
<g id="g1748">
<g id="Clip path group">
<mask id="mask0_280_6059" style="mask-type:luminance" maskUnits="userSpaceOnUse" x="3" y="3" width="30" height="30">
<g id="clipPath1754">
<path id="path1752" d="M3 3H33V33H3V3Z" fill="white"/>
</g>
</mask>
<g mask="url(#mask0_280_6059)">
<g id="g1750">
<g id="g1756">
<path id="path1758" d="M30.225 6.3464L4.8313 16.04C3.54324 16.5316 3.56445 17.2757 4.87824 17.6937L10.5832 19.3261L13.582 27.9015C14.037 29.2029 15.2391 29.5035 16.2533 28.5698L20.0686 25.057L25.43 29.3743C26.5195 30.2192 27.6346 29.8049 27.9082 28.4538L32.069 7.90909C32.3426 6.55804 31.5129 5.85491 30.225 6.3464Z" stroke="white" stroke-width="1.5" stroke-miterlimit="10" stroke-linecap="round" stroke-linejoin="round"/>
</g>
<g id="g1760">
<path id="path1762" d="M10.6602 19.2877L25.9419 11.4805L16.1407 21.8949L14.4067 28.918" stroke="white" stroke-width="1.5" stroke-miterlimit="10" stroke-linecap="round" stroke-linejoin="round"/>
</g>
<g id="g1764">
<path id="path1766" d="M16.1875 21.9304L25.3843 29.3359" stroke="white" stroke-width="1.5" stroke-miterlimit="10" stroke-linecap="round" stroke-linejoin="round"/>
</g>
</g>
</g>
</g>
</g>
</g>
</g>
</svg>
