<svg width="36" height="36" viewBox="0 0 36 36" fill="none" xmlns="http://www.w3.org/2000/svg">
<g id="Frame 512520">
<g id="Group">
<path id="Vector" d="M20.3848 1.66637C26.7825 2.5417 32.217 7.34736 33.9271 13.6499C34.6563 16.3375 34.6909 19.3395 34.0223 22.0008C32.6506 27.4453 28.5623 31.8659 23.2492 33.6428C18.7089 35.166 13.6739 34.6405 9.63728 32.2161C9.26391 31.9972 8.92556 31.8133 8.89054 31.8133C8.86448 31.8133 7.44063 32.26 5.73054 32.8114C4.029 33.3542 2.63161 33.7742 2.63161 33.7306C2.63161 33.6957 3.08316 32.3212 3.63853 30.6843L4.64545 27.7081L4.1939 27.0253C3.62957 26.1676 2.71793 24.3029 2.37958 23.3138C-0.267392 15.5759 3.23096 7.0148 10.575 3.2684C13.6047 1.72796 16.895 1.19381 20.3848 1.66637Z" stroke="white" stroke-width="1.5"/>
<path id="Vector_2" d="M11.0035 9.18235C10.3709 9.51983 9.4978 10.8361 9.17735 11.9358C9.11311 12.1523 9.03309 12.7237 9.00905 13.2001C8.95308 14.3084 9.15331 15.2697 9.70592 16.5165C10.1143 17.4343 11.0595 18.9755 11.9968 20.2398C13.6388 22.4649 15.6652 24.2835 17.5875 25.2793C19.0853 26.0501 21.392 26.8725 22.3691 26.985C23.7069 27.1324 25.7411 26.1711 26.4542 25.0454C26.9189 24.318 27.1751 22.5343 26.8625 22.2229C26.7025 22.0669 23.6667 20.4652 23.066 20.2142C22.8578 20.1277 22.6013 20.0842 22.4972 20.1192C22.377 20.1451 22.0648 20.4916 21.712 20.9675C20.8472 22.1441 20.4227 22.5945 20.1902 22.5945C19.878 22.5945 18.3239 21.7806 17.4512 21.1572C16.3377 20.3604 14.9041 18.8021 14.1272 17.5464C13.8068 17.0355 13.5506 16.5161 13.5506 16.4036C13.5506 16.2821 13.7587 15.9446 14.1111 15.5032C14.6235 14.8538 15.072 14.0834 15.072 13.8405C15.072 13.7886 14.7035 12.7842 14.2549 11.6065C13.7264 10.2383 13.3578 9.38988 13.2218 9.23393C13.0137 9.00893 12.9735 9 12.1726 9C11.4919 9.00041 11.2837 9.03493 11.0035 9.18235Z" stroke="white" stroke-width="1.5"/>
</g>
</g>
</svg>
