<svg width="190" height="155" viewBox="0 0 190 155" fill="none" xmlns="http://www.w3.org/2000/svg">
<g clip-path="url(#clip0_234_641)">
<path d="M70.6221 97.1682C90.6221 93.1682 87.1221 84.1682 87.1221 68.6682C87.1221 53.1682 77.1221 9.16821 122.622 27.1682" stroke="black" stroke-width="1.5"/>
<rect x="9.14575" y="89.3923" width="66.6678" height="66.6678" rx="10" transform="rotate(-15.14 9.14575 89.3923)" fill="black"/>
<rect x="2.46167" y="85.5549" width="66.6678" height="66.6678" rx="10" transform="rotate(-15.14 2.46167 85.5549)" fill="white" stroke="black" stroke-width="1.5"/>
<path d="M21.9606 122.908C17.6099 131.319 23.096 138.2 26.3829 140.589L69.7318 115.038C64.7297 105.898 59.2476 107.984 55.5328 104.535C51.818 101.086 53.1506 93.5046 52.0925 91.5712C51.0344 89.6377 47.6807 81.4228 37.3732 86.3785C27.0657 91.3343 29.1059 97.9838 29.2458 106.587C29.3858 115.19 27.399 112.394 21.9606 122.908Z" fill="black" stroke="black" stroke-width="1.5"/>
<path fill-rule="evenodd" clip-rule="evenodd" d="M81.5213 128.399C80.5427 131.566 78.0114 134.179 74.5747 135.108L29.5267 147.297C28.5048 147.574 27.477 147.681 26.473 147.637L26.2904 140.938C26.1133 134.437 27.5869 127.89 32.1803 123.595C35.2524 120.722 39.5469 117.563 45.2265 115.206C51.7084 112.516 58.7112 111.715 63.6618 111.535C67.8522 111.382 71.6938 113.745 74.1215 117.365L81.5213 128.399Z" fill="#EBF3FF"/>
<path d="M81.5213 128.399L82.2379 128.62L82.3436 128.278L82.1442 127.981L81.5213 128.399ZM26.473 147.637L25.7232 147.657L25.7423 148.356L26.44 148.386L26.473 147.637ZM26.2904 140.938L25.5407 140.958L26.2904 140.938ZM32.1803 123.595L31.6681 123.047L32.1803 123.595ZM45.2265 115.206L44.939 114.513L45.2265 115.206ZM63.6618 111.535L63.6345 110.785L63.6345 110.785L63.6618 111.535ZM74.1215 117.365L73.4986 117.782L74.1215 117.365ZM80.8048 128.177C79.8989 131.109 77.557 133.525 74.3789 134.384L74.7706 135.832C78.4659 134.833 81.1866 132.023 82.2379 128.62L80.8048 128.177ZM74.3789 134.384L29.3309 146.573L29.7226 148.021L74.7706 135.832L74.3789 134.384ZM29.3309 146.573C28.3843 146.829 27.4337 146.929 26.5059 146.888L26.44 148.386C27.5203 148.434 28.6253 148.318 29.7226 148.021L29.3309 146.573ZM25.5407 140.958L25.7232 147.657L27.2227 147.617L27.0402 140.917L25.5407 140.958ZM31.6681 123.047C26.8487 127.554 25.3609 134.36 25.5407 140.958L27.0402 140.917C26.8657 134.514 28.3251 128.227 32.6926 124.142L31.6681 123.047ZM44.939 114.513C39.1631 116.91 34.7943 120.123 31.6681 123.047L32.6926 124.142C35.7105 121.32 39.9308 118.216 45.514 115.899L44.939 114.513ZM63.6345 110.785C58.6406 110.967 51.5376 111.774 44.939 114.513L45.514 115.899C51.8793 113.257 58.7817 112.463 63.689 112.284L63.6345 110.785ZM74.7444 116.947C72.2042 113.159 68.1374 110.621 63.6345 110.785L63.689 112.284C67.567 112.143 71.1834 114.33 73.4986 117.782L74.7444 116.947ZM82.1442 127.981L74.7444 116.947L73.4986 117.782L80.8984 128.817L82.1442 127.981Z" fill="black"/>
<path d="M52.0925 91.571C51.5139 89.5121 50.2062 88.2634 49.6247 87.8964C49.5451 88.1684 49.3396 89.8798 47.247 91.4818C46.2792 92.2227 43.924 93.7572 44.1199 96.6194C44.2799 98.9584 41.6758 98.4907 39.3545 98.819C38.4296 98.9498 37.6508 99.5345 37.3776 100.994C36.9415 103.325 39.5191 104.798 40.9209 105.465C41.3503 105.669 41.7009 106.007 41.9027 106.437L42.9533 108.679C44.4793 113.554 41.0304 117.269 39.3059 119.126C40.6448 119.764 44.3486 120.661 48.453 119.145C52.5575 117.63 52.9954 115.898 52.7012 115.221L49.3344 109.069C55.6325 107.222 54.4327 103.082 54.2822 102.25C54.0566 101.003 53.6718 100.3 54.6303 99.5471C55.5887 98.7942 56.2752 97.9617 55.8904 97.2586C55.5056 96.5555 52.8157 94.1446 52.0925 91.571Z" fill="white" stroke="black" stroke-width="1.5"/>
<rect x="125.968" y="6.24365" width="66.6678" height="66.6678" rx="10" transform="rotate(19.16 125.968 6.24365)" fill="black"/>
<rect x="122.944" width="66.6678" height="66.6678" rx="10" transform="rotate(19.16 122.944 0)" fill="#EBF3FF" stroke="black" stroke-width="1.5"/>
<path fill-rule="evenodd" clip-rule="evenodd" d="M160.678 81.7274C158.75 82.2921 156.634 82.2832 154.592 81.5737L111.785 66.6999L124.362 55.3074C127.964 52.0441 132.128 49.4629 136.651 47.6897L143.588 44.9698L151.059 47.132L157.466 55.6042C162.389 62.1132 163.939 70.5765 161.645 78.4195L160.678 81.7274Z" fill="#F6F6F6"/>
<path d="M160.678 81.7274L160.889 82.4472C161.134 82.3753 161.326 82.1834 161.398 81.938L160.678 81.7274ZM154.592 81.5737L154.839 80.8652L154.592 81.5737ZM111.785 66.6999L111.281 66.144C111.085 66.3218 110.997 66.59 111.05 66.8495C111.102 67.109 111.288 67.3214 111.538 67.4084L111.785 66.6999ZM124.362 55.3074L123.858 54.7515L124.362 55.3074ZM136.651 47.6897L136.377 46.9914L136.377 46.9914L136.651 47.6897ZM143.588 44.9698L143.797 44.2493C143.638 44.2034 143.468 44.2112 143.314 44.2715L143.588 44.9698ZM151.059 47.132L151.657 46.6796C151.56 46.5506 151.423 46.4565 151.268 46.4116L151.059 47.132ZM157.466 55.6042L156.868 56.0566L157.466 55.6042ZM161.645 78.4195L162.365 78.6301L161.645 78.4195ZM160.467 81.0077C158.684 81.53 156.728 81.5218 154.839 80.8652L154.346 82.2821C156.541 83.0445 158.816 83.0543 160.889 82.4472L160.467 81.0077ZM154.839 80.8652L112.031 65.9914L111.538 67.4084L154.346 82.2821L154.839 80.8652ZM123.858 54.7515L111.281 66.144L112.288 67.2558L124.865 55.8633L123.858 54.7515ZM136.377 46.9914C131.77 48.7978 127.528 51.4272 123.858 54.7515L124.865 55.8633C128.401 52.6609 132.487 50.1279 136.925 48.3879L136.377 46.9914ZM143.314 44.2715L136.377 46.9914L136.925 48.3879L143.862 45.668L143.314 44.2715ZM151.268 46.4116L143.797 44.2493L143.38 45.6902L150.851 47.8524L151.268 46.4116ZM158.065 55.1518L151.657 46.6796L150.461 47.5844L156.868 56.0566L158.065 55.1518ZM162.365 78.6301C164.726 70.5596 163.131 61.8504 158.065 55.1518L156.868 56.0566C161.648 62.3761 163.153 70.5934 160.926 78.209L162.365 78.6301ZM161.398 81.938L162.365 78.6301L160.926 78.209L159.958 81.5169L161.398 81.938Z" fill="black"/>
<path d="M155.785 40.4971C154.682 41.1505 153.461 43.3164 153.175 43.7207C148.751 41.8382 149.893 34.7788 150.83 32.0814C148.43 27.6487 144.339 18.9151 146.227 18.0163C148.587 16.893 152.135 16.9873 156.816 19.2617C161.498 21.5361 165.448 25.2841 163.763 31.3927C162.079 37.5014 157.163 39.6803 155.785 40.4971Z" fill="black" stroke="black" stroke-width="1.5" stroke-linejoin="round"/>
<path d="M138.205 46.7796L140.694 39.6162C139.341 39.1461 136.568 38.3996 135.821 36.1871C135.073 33.9745 137.541 30.6093 137.483 30.1548C137.468 30.0329 135.307 28.3138 136.03 27.4801C136.378 27.078 137.689 26.1271 139.052 25.1699C140.675 24.0297 141.803 22.332 143.006 20.7549C144.182 19.2141 145.58 18.2685 146.22 18.1022C146.513 20.3741 149.773 23.4596 154.79 25.8536L152.016 30.0973C154.613 29.4807 156.478 30.3459 155.797 32.9299C155.22 35.119 151.327 34.6313 150.83 36.6285C150.166 39.2957 152.42 42.0268 153.4 42.946L151.584 48.1734C150.673 48.508 148.725 50.4348 144.799 50.8677C140.174 51.3779 135.731 49.9558 134.451 48.8602L138.205 46.7796Z" fill="white" stroke="black" stroke-width="1.5" stroke-linejoin="round"/>
<circle cx="108" cy="107" r="4" fill="black"/>
<circle cx="123" cy="107" r="4" fill="black"/>
<circle cx="139" cy="107" r="4" fill="black"/>
<path d="M20 44H66" stroke="black" stroke-width="1.5"/>
<path d="M20 52H66" stroke="black" stroke-width="1.5"/>
<path d="M20 59H43" stroke="black" stroke-width="1.5"/>
</g>
<defs>
<clipPath id="clip0_234_641">
<rect width="190" height="155" fill="white"/>
</clipPath>
</defs>
</svg>
