<svg width="191" height="155" viewBox="0 0 191 155" fill="none" xmlns="http://www.w3.org/2000/svg">
<g clip-path="url(#clip0_201_3731)">
<path fill-rule="evenodd" clip-rule="evenodd" d="M28.802 49.3691C19.4132 49.3691 11.802 56.9803 11.802 66.3691V113.168C11.802 122.557 19.4131 130.168 28.802 130.168H35.6024L28.2697 147.672L57.1274 130.168H103.745C113.133 130.168 120.745 122.557 120.745 113.168V66.3691C120.745 56.9803 113.133 49.3691 103.745 49.3691H28.802Z" fill="black"/>
<path fill-rule="evenodd" clip-rule="evenodd" d="M25.842 45.7373C18.0879 45.7373 11.802 52.0232 11.802 59.7773V112.496C11.802 120.25 18.0879 126.536 25.842 126.536H31.0632L23.7305 144.04L52.5882 126.536H102.165C109.919 126.536 116.205 120.25 116.205 112.496V59.7773C116.205 52.0232 109.919 45.7373 102.165 45.7373H25.842Z" fill="white"/>
<path d="M31.0632 126.536L31.755 126.826L32.1905 125.786H31.0632V126.536ZM23.7305 144.04L23.0388 143.75L22.1477 145.877L24.1195 144.681L23.7305 144.04ZM52.5882 126.536V125.786H52.3786L52.1993 125.895L52.5882 126.536ZM12.552 59.7773C12.552 52.4374 18.5021 46.4873 25.842 46.4873V44.9873C17.6737 44.9873 11.052 51.609 11.052 59.7773H12.552ZM12.552 112.496V59.7773H11.052V112.496H12.552ZM25.842 125.786C18.5021 125.786 12.552 119.836 12.552 112.496H11.052C11.052 120.665 17.6737 127.286 25.842 127.286V125.786ZM31.0632 125.786H25.842V127.286H31.0632V125.786ZM24.4223 144.33L31.755 126.826L30.3715 126.247L23.0388 143.75L24.4223 144.33ZM52.1993 125.895L23.3415 143.399L24.1195 144.681L52.9772 127.178L52.1993 125.895ZM102.165 125.786H52.5882V127.286H102.165V125.786ZM115.455 112.496C115.455 119.836 109.505 125.786 102.165 125.786V127.286C110.334 127.286 116.955 120.665 116.955 112.496H115.455ZM115.455 59.7773V112.496H116.955V59.7773H115.455ZM102.165 46.4873C109.505 46.4873 115.455 52.4374 115.455 59.7773H116.955C116.955 51.609 110.334 44.9873 102.165 44.9873V46.4873ZM25.842 46.4873H102.165V44.9873H25.842V46.4873Z" fill="black"/>
<path d="M34.7316 93.7602C25.4102 100.639 27.7115 111.155 30.0273 115.553L91.4111 110.947C90.8626 98.2122 83.7185 97.5385 81.5062 91.7455C79.2939 85.9524 84.8549 78.3524 84.7389 75.6586C84.6228 72.9648 85.3832 62.1367 71.3926 62.0033C57.402 61.8699 56.0464 70.2701 51.5494 79.787C47.0524 89.3039 46.3833 85.1618 34.7316 93.7602Z" fill="black"/>
<path fill-rule="evenodd" clip-rule="evenodd" d="M96.8639 126.393L93.7492 114.913C92.5422 110.464 89.7585 106.57 85.5761 104.631C80.5224 102.289 72.8524 99.4856 64.1486 98.8751C57.5454 98.412 51.7898 99.158 47.1509 100.287C38.4832 102.396 32.5994 109.662 29.0434 117.843L26.2338 124.307L25.3639 126.393H31.1221L23.7288 144.042L52.8252 126.393H96.8639Z" fill="#EBF3FF"/>
<path d="M96.8639 126.393V127.143H97.8446L97.5878 126.197L96.8639 126.393ZM93.7492 114.913L93.0254 115.11V115.11L93.7492 114.913ZM85.5761 104.631L85.2608 105.312L85.2608 105.312L85.5761 104.631ZM64.1486 98.8751L64.0962 99.6233L64.1486 98.8751ZM47.1509 100.287L47.3282 101.016H47.3282L47.1509 100.287ZM29.0434 117.843L28.3555 117.544L29.0434 117.843ZM26.2338 124.307L25.5458 124.008L25.5415 124.018L26.2338 124.307ZM25.3639 126.393L24.6716 126.105L24.2385 127.143H25.3639V126.393ZM31.1221 126.393L31.8139 126.683L32.2495 125.643H31.1221V126.393ZM23.7288 144.042L23.037 143.752L22.146 145.879L24.1177 144.683L23.7288 144.042ZM52.8252 126.393V125.643H52.6155L52.4363 125.752L52.8252 126.393ZM97.5878 126.197L94.4731 114.717L93.0254 115.11L96.1401 126.59L97.5878 126.197ZM94.4731 114.717C93.221 110.102 90.3158 106.001 85.8915 103.951L85.2608 105.312C89.2012 107.138 91.8634 110.827 93.0254 115.11L94.4731 114.717ZM85.8915 103.951C80.7893 101.586 73.0273 98.7461 64.2011 98.127L64.0962 99.6233C72.6775 100.225 80.2554 102.992 85.2608 105.312L85.8915 103.951ZM64.2011 98.127C57.5108 97.6577 51.6773 98.4135 46.9736 99.5581L47.3282 101.016C51.9024 99.9024 57.5801 99.1662 64.0962 99.6233L64.2011 98.127ZM46.9736 99.5581C37.9782 101.747 31.9547 109.263 28.3555 117.544L29.7312 118.142C33.244 110.06 38.9883 103.045 47.3282 101.016L46.9736 99.5581ZM28.3555 117.544L25.5459 124.008L26.9216 124.606L29.7312 118.142L28.3555 117.544ZM25.5415 124.018L24.6716 126.105L26.0561 126.682L26.926 124.596L25.5415 124.018ZM25.3639 127.143H31.1221V125.643H25.3639V127.143ZM30.4304 126.103L23.037 143.752L24.4205 144.332L31.8139 126.683L30.4304 126.103ZM24.1177 144.683L53.2142 127.034L52.4363 125.752L23.3398 143.401L24.1177 144.683ZM52.8252 127.143H96.8639V125.643H52.8252V127.143Z" fill="black"/>
<path d="M84.7382 75.6589C85.2163 73.0867 84.4562 71.0094 84.0164 70.2923C83.782 70.5477 82.6314 72.3147 79.4689 72.9417C78.0063 73.2316 74.5921 73.6424 73.2599 76.8893C72.9745 77.5849 72.6629 78.1092 72.3485 78.4998C71.3118 79.7879 69.7182 78.7 68.4372 77.6545C66.9903 76.4734 65.1491 75.8378 63.4958 78.0459C61.5874 80.5948 64.2236 83.9726 65.2844 85.2587C65.4478 85.4568 65.5343 85.7048 65.5293 85.9616L65.4609 89.4926C64.5001 95.6677 58.7071 97.88 55.8106 98.9862C56.9351 100.41 60.5149 103.396 65.8384 103.952C71.1618 104.508 72.5786 102.844 72.6215 101.942L72.2524 93.371C80.1628 94.7477 81.0841 89.5557 81.3684 88.5621C81.7949 87.0716 81.7527 86.0921 83.2116 85.7839C84.6704 85.4757 85.8737 84.9332 85.8315 83.9536C85.7894 82.974 84.1407 78.8741 84.7382 75.6589Z" fill="white" stroke="black" stroke-width="1.5"/>
<path fill-rule="evenodd" clip-rule="evenodd" d="M105.502 10.3286C101.161 10.3286 97.6409 13.8483 97.6409 18.1902V55.4892C97.6409 59.831 101.161 63.3507 105.502 63.3507H142.005L159.7 74.1959L157.417 63.3507H168.107C172.449 63.3507 175.969 59.831 175.969 55.4892V18.1902C175.969 13.8483 172.449 10.3286 168.107 10.3286H105.502Z" fill="black"/>
<path d="M142.005 63.3507L142.397 62.7113L142.217 62.6007H142.005V63.3507ZM159.7 74.1959L159.308 74.8354L160.792 75.7453L160.434 74.0414L159.7 74.1959ZM157.417 63.3507V62.6007H156.492L156.683 63.5052L157.417 63.3507ZM98.3909 18.1902C98.3909 14.2626 101.575 11.0786 105.502 11.0786V9.57861C100.746 9.57861 96.8909 13.4341 96.8909 18.1902H98.3909ZM98.3909 55.4892V18.1902H96.8909V55.4892H98.3909ZM105.502 62.6007C101.575 62.6007 98.3909 59.4168 98.3909 55.4892H96.8909C96.8909 60.2452 100.746 64.1007 105.502 64.1007V62.6007ZM142.005 62.6007H105.502V64.1007H142.005V62.6007ZM160.092 73.5565L142.397 62.7113L141.613 63.9902L159.308 74.8354L160.092 73.5565ZM156.683 63.5052L158.966 74.3504L160.434 74.0414L158.15 63.1962L156.683 63.5052ZM168.107 62.6007H157.417V64.1007H168.107V62.6007ZM175.219 55.4892C175.219 59.4168 172.035 62.6007 168.107 62.6007V64.1007C172.863 64.1007 176.719 60.2452 176.719 55.4892H175.219ZM175.219 18.1902V55.4892H176.719V18.1902H175.219ZM168.107 11.0786C172.035 11.0786 175.219 14.2626 175.219 18.1902H176.719C176.719 13.4341 172.863 9.57861 168.107 9.57861V11.0786ZM105.502 11.0786H168.107V9.57861H105.502V11.0786Z" fill="black"/>
<path fill-rule="evenodd" clip-rule="evenodd" d="M105.502 10.3286C101.161 10.3286 97.6409 13.8483 97.6409 18.1901V53.0791C97.6409 57.4209 101.161 60.9406 105.502 60.9406H138.392L156.087 71.7859L153.804 60.9406H165.697C170.039 60.9406 173.559 57.4209 173.559 53.0791V18.1902C173.559 13.8483 170.039 10.3286 165.697 10.3286H105.502Z" fill="#EBF3FF"/>
<path d="M138.392 60.9406L138.784 60.3012L138.603 60.1906H138.392V60.9406ZM156.087 71.7859L155.695 72.4254L157.179 73.3352L156.821 71.6314L156.087 71.7859ZM153.804 60.9406V60.1906H152.879L153.07 61.0951L153.804 60.9406ZM98.3909 18.1901C98.3909 14.2626 101.575 11.0786 105.502 11.0786V9.57861C100.746 9.57861 96.8909 13.4341 96.8909 18.1901H98.3909ZM98.3909 53.0791V18.1901H96.8909V53.0791H98.3909ZM105.502 60.1906C101.575 60.1906 98.3909 57.0067 98.3909 53.0791H96.8909C96.8909 57.8351 100.746 61.6906 105.502 61.6906V60.1906ZM138.392 60.1906H105.502V61.6906H138.392V60.1906ZM156.479 71.1465L138.784 60.3012L138 61.5801L155.695 72.4254L156.479 71.1465ZM153.07 61.0951L155.353 71.9404L156.821 71.6314L154.538 60.7861L153.07 61.0951ZM165.697 60.1906H153.804V61.6906H165.697V60.1906ZM172.809 53.0791C172.809 57.0067 169.625 60.1906 165.697 60.1906V61.6906C170.453 61.6906 174.309 57.8351 174.309 53.0791H172.809ZM172.809 18.1902V53.0791H174.309V18.1902H172.809ZM165.697 11.0786C169.625 11.0786 172.809 14.2626 172.809 18.1902H174.309C174.309 13.4341 170.453 9.57861 165.697 9.57861V11.0786ZM105.502 11.0786H165.697V9.57861H105.502V11.0786Z" fill="black"/>
<path d="M135.196 92.9487H184" stroke="black" stroke-width="1.5"/>
<path d="M135.196 106.808H184" stroke="black" stroke-width="1.5"/>
<path d="M7.57091 18.2301C7.72058 17.7695 8.37229 17.7695 8.52196 18.2301L9.74094 21.9817C9.80787 22.1877 9.99985 22.3272 10.2165 22.3272H14.1611C14.6455 22.3272 14.8469 22.947 14.455 23.2317L11.2637 25.5504C11.0885 25.6777 11.0151 25.9034 11.0821 26.1094L12.3011 29.861C12.4507 30.3216 11.9235 30.7047 11.5316 30.42L8.34033 28.1014C8.16508 27.9741 7.92779 27.9741 7.75254 28.1014L4.56123 30.42C4.16938 30.7047 3.64214 30.3216 3.79181 29.861L5.01079 26.1094C5.07772 25.9034 5.00439 25.6777 4.82915 25.5504L1.63784 23.2317C1.24598 22.947 1.44737 22.3272 1.93173 22.3272H5.87641C6.09302 22.3272 6.285 22.1877 6.35194 21.9817L7.57091 18.2301Z" fill="black" stroke="black" stroke-width="0.5"/>
<path d="M25.8116 18.2301C25.9613 17.7695 26.613 17.7695 26.7627 18.2301L27.9817 21.9817C28.0486 22.1877 28.2406 22.3272 28.4572 22.3272H32.4019C32.8862 22.3272 33.0876 22.947 32.6958 23.2317L29.5044 25.5504C29.3292 25.6777 29.2559 25.9034 29.3228 26.1094L30.5418 29.861C30.6915 30.3216 30.1642 30.7047 29.7724 30.42L26.5811 28.1014C26.4058 27.9741 26.1685 27.9741 25.9933 28.1014L22.802 30.42C22.4101 30.7047 21.8829 30.3216 22.0325 29.861L23.2515 26.1094C23.3184 25.9034 23.2451 25.6777 23.0699 25.5504L19.8786 23.2317C19.4867 22.947 19.6881 22.3272 20.1725 22.3272H24.1171C24.3337 22.3272 24.5257 22.1877 24.5927 21.9817L25.8116 18.2301Z" fill="black" stroke="black" stroke-width="0.5"/>
<path d="M43.5192 18.1297C43.6746 17.6814 44.3087 17.6814 44.4641 18.1297L45.8023 21.991C45.872 22.1922 46.0617 22.3272 46.2747 22.3272H50.5332C51.0253 22.3272 51.2214 22.9634 50.8146 23.2405L47.4262 25.5485C47.2395 25.6756 47.1613 25.9121 47.2352 26.1254L48.5424 29.897C48.7001 30.3521 48.1865 30.7451 47.7885 30.474L44.2731 28.0796C44.1033 27.9639 43.88 27.9639 43.7101 28.0796L40.1948 30.474C39.7967 30.7451 39.2832 30.3521 39.4409 29.897L40.748 26.1254C40.822 25.9121 40.7437 25.6756 40.5571 25.5485L37.1686 23.2405C36.7619 22.9634 36.958 22.3272 37.4501 22.3272H41.7085C41.9216 22.3272 42.1112 22.1922 42.181 21.991L43.5192 18.1297Z" fill="black" stroke="black" stroke-width="0.5"/>
<path d="M61.2203 18.2301C61.37 17.7695 62.0217 17.7695 62.1714 18.2301L63.3903 21.9817C63.4573 22.1877 63.6493 22.3272 63.8659 22.3272H67.8106C68.2949 22.3272 68.4963 22.947 68.1044 23.2317L64.9131 25.5504C64.7379 25.6777 64.6646 25.9034 64.7315 26.1094L65.9505 29.861C66.1001 30.3216 65.5729 30.7047 65.1811 30.42L61.9897 28.1014C61.8145 27.9741 61.5772 27.9741 61.402 28.1014L58.2106 30.42C57.8188 30.7047 57.2916 30.3216 57.4412 29.861L58.6602 26.1094C58.7271 25.9034 58.6538 25.6777 58.4786 25.5504L55.2873 23.2317C54.8954 22.947 55.0968 22.3272 55.5811 22.3272H59.5258C59.7424 22.3272 59.9344 22.1877 60.0013 21.9817L61.2203 18.2301Z" fill="black" stroke="black" stroke-width="0.5"/>
<path d="M78.388 18.2301C78.5377 17.7695 79.1894 17.7695 79.3391 18.2301L80.5581 21.9817C80.625 22.1877 80.817 22.3272 81.0336 22.3272H84.9783C85.4626 22.3272 85.664 22.947 85.2722 23.2317L82.0809 25.5504C81.9056 25.6777 81.8323 25.9034 81.8992 26.1094L83.1182 29.861C83.2679 30.3216 82.7406 30.7047 82.3488 30.42L79.1575 28.1014C78.9822 27.9741 78.7449 27.9741 78.5697 28.1014L75.3784 30.42C74.9865 30.7047 74.4593 30.3216 74.609 29.861L75.8279 26.1094C75.8949 25.9034 75.8215 25.6777 75.6463 25.5504L72.455 23.2317C72.0631 22.947 72.2645 22.3272 72.7489 22.3272H76.6935C76.9102 22.3272 77.1021 22.1877 77.1691 21.9817L78.388 18.2301Z" fill="black" stroke="black" stroke-width="0.5"/>
<path d="M121.819 29.1369C118.548 35.3515 130.089 46.3699 136.268 51.1023C142.448 46.3699 153.989 35.3515 150.718 29.1369C146.628 21.3687 137.904 27.5297 136.268 30.2084C134.633 27.5297 125.909 21.3687 121.819 29.1369Z" fill="black" stroke="#EBF3FF" stroke-width="1.5"/>
</g>
<defs>
<clipPath id="clip0_201_3731">
<rect width="190" height="155" fill="white" transform="translate(0.334961)"/>
</clipPath>
</defs>
</svg>
