<svg width="191" height="155" viewBox="0 0 191 155" fill="none" xmlns="http://www.w3.org/2000/svg">
<g clip-path="url(#clip0_234_642)">
<path d="M47.4037 35.2966C42.1739 17.1052 34.6905 17.7615 26.9609 19.3591C42.3686 6.14757 76.5812 -12.6605 122.946 16.7547C166.859 44.6149 169.703 87.8464 162.205 111.643C161.91 112.577 160.517 112.487 160.174 111.57C155.468 99.0062 139.838 95.9888 132.935 98.2752C132.344 98.4711 131.673 98.148 131.498 97.5502C126.245 79.6502 108.151 79.1247 100.041 80.5038C99.5251 80.5915 99.0242 80.2665 98.8874 79.7619C93.7269 60.7354 80.3861 56.1694 72.7769 57.7422C67.8012 37.9479 55.1332 33.699 47.4037 35.2966Z" fill="black"/>
<path d="M43.532 112.622L41.6279 115.791C39.8251 118.791 40.7959 122.685 43.7963 124.488C46.7968 126.291 50.6905 125.32 52.4933 122.319L90.8484 58.4849" stroke="black" stroke-width="1.5"/>
<path d="M45.0751 38.9085C39.2838 22.2701 24.6414 18.6349 17.5398 20.5153C31.1826 7.44864 69.8683 -13.2385 114.462 11.7252C158.662 36.4681 163.592 82.7831 158.79 105.386C155.003 90.5627 136.12 86.6106 130.129 90.0134C124.492 71.8725 106.666 74.7812 99.5649 76.6616C93.9276 58.5207 78.3151 57.7462 71.2135 59.6266C65.5762 41.4857 52.1767 37.0281 45.0751 38.9085Z" fill="#EBF3FF" stroke="black" stroke-width="1.5" stroke-linejoin="round"/>
<path d="M44.814 38.538C44.8526 38.6445 44.8908 38.7516 44.9287 38.8593C52.0427 36.9979 65.4766 41.4788 71.1986 59.586L71.2864 59.6552C71.437 59.6163 71.5914 59.5787 71.7493 59.5425C84.6332 35.8709 108.124 19.3621 117.854 13.7753C117.85 13.7727 117.846 13.7702 117.842 13.7676C93.2932 4.52201 58.7532 26.1531 44.814 38.538Z" fill="white" stroke="black" stroke-width="1.5" stroke-linejoin="round"/>
<path d="M130.613 89.3448C130.502 89.36 130.39 89.3758 130.277 89.3923C128.552 82.2861 118.271 72.5572 99.6673 75.8888L99.5652 75.8436C99.5281 75.6932 99.4881 75.5401 99.4453 75.3844C114.146 53.1462 117.547 24.8995 117.856 13.7769C117.86 13.7792 117.865 13.7816 117.869 13.784C137.584 31.0743 134.904 71.3887 130.613 89.3448Z" fill="white" stroke="black" stroke-width="1.5"/>
<path d="M117.778 13.6647L122.674 5.51562" stroke="black" stroke-width="1.5"/>
<rect x="7.88013" y="94.4722" width="96.7567" height="60.3343" rx="8" transform="rotate(-4.89874 7.88013 94.4722)" fill="black"/>
<rect x="2.67749" y="90.5684" width="96.7567" height="60.3343" rx="8" transform="rotate(-4.89874 2.67749 90.5684)" fill="white" stroke="black" stroke-width="1.5"/>
<path d="M59.0764 104.633L91.8492 102.06M59.7474 112.462L92.5202 109.889M67.273 121.394C66.3623 123.913 65.8925 128.948 71.2994 128.936C74.5284 128.928 77.2832 126.389 78.9699 123.705M78.9699 123.705C80.8136 120.771 81.3809 117.662 79.8956 117.495C77.5664 117.234 77.1876 122.095 78.9699 123.705ZM78.9699 123.705C79.3638 124.061 79.8634 124.258 80.4708 124.206C83.8261 123.919 85.2961 114.779 91.879 119.285" stroke="black" stroke-width="1.5"/>
<path d="M20.5386 116.908C18.4586 122.546 16.9359 124.09 17.3299 128.635L54.5124 125.413C54.4966 121.98 53.1075 118.952 50.041 116.069C46.9745 113.186 48.5129 108.187 45.2582 99.8826C42.0035 91.578 27.1864 92.8621 23.814 99.4512C20.4417 106.04 23.0476 110.108 20.5386 116.908Z" fill="black"/>
<path d="M30.3806 101.031C29.4313 103.474 26.5443 105.889 25.3635 106.779L25.7782 111.564C25.9541 113.593 26.7721 115.511 28.1097 117.03L28.9468 117.98L29.3023 122.082L40.2506 121.133L39.8951 117.032L40.5606 116.059C41.7953 114.254 42.3674 112.065 42.1774 109.872L41.786 105.356C34.329 105.057 31.0754 102.348 30.3806 101.031Z" fill="white" stroke="black" stroke-width="1.5"/>
<path fill-rule="evenodd" clip-rule="evenodd" d="M61.9264 146.046L15.8005 149.999C14.4914 150.111 13.2289 149.902 12.0912 149.436L11.3497 140.879C10.8418 135.019 14.4424 129.583 20.036 127.765L29.8164 124.586L29.5685 121.726L40.4346 120.784L40.6825 123.644L50.3016 125.078C56.1275 125.946 60.5964 130.699 61.105 136.567L61.9264 146.046Z" fill="#EBF3FF"/>
<path d="M61.9264 146.046L61.9905 146.793L62.7384 146.729L62.6736 145.981L61.9264 146.046ZM15.8005 149.999L15.7365 149.252L15.8005 149.999ZM12.0912 149.436L11.344 149.501L11.3835 149.956L11.807 150.13L12.0912 149.436ZM11.3497 140.879L10.6025 140.944L11.3497 140.879ZM20.036 127.765L19.8041 127.052L20.036 127.765ZM29.8164 124.586L30.0482 125.299L30.615 125.115L30.5636 124.521L29.8164 124.586ZM29.5685 121.726L29.5038 120.979L28.7566 121.044L28.8213 121.791L29.5685 121.726ZM40.4346 120.784L41.1818 120.72L41.1171 119.972L40.3699 120.037L40.4346 120.784ZM40.6825 123.644L39.9353 123.709L39.9864 124.298L40.5719 124.386L40.6825 123.644ZM50.3016 125.078L50.191 125.819L50.3016 125.078ZM61.105 136.567L60.3578 136.632L61.105 136.567ZM61.8624 145.299L15.7365 149.252L15.8646 150.746L61.9905 146.793L61.8624 145.299ZM15.7365 149.252C14.5487 149.354 13.4055 149.164 12.3754 148.742L11.807 150.13C13.0524 150.64 14.434 150.869 15.8646 150.746L15.7365 149.252ZM10.6025 140.944L11.344 149.501L12.8384 149.371L12.0969 140.814L10.6025 140.944ZM19.8041 127.052C13.8787 128.978 10.0645 134.736 10.6025 140.944L12.0969 140.814C11.6192 135.302 15.0061 130.189 20.2678 128.478L19.8041 127.052ZM29.5845 123.872L19.8041 127.052L20.2678 128.478L30.0482 125.299L29.5845 123.872ZM28.8213 121.791L29.0692 124.65L30.5636 124.521L30.3157 121.661L28.8213 121.791ZM40.3699 120.037L29.5038 120.979L29.6333 122.473L40.4994 121.532L40.3699 120.037ZM41.4297 123.579L41.1818 120.72L39.6874 120.849L39.9353 123.709L41.4297 123.579ZM50.4122 124.336L40.793 122.902L40.5719 124.386L50.191 125.819L50.4122 124.336ZM61.8522 136.502C61.3136 130.288 56.5814 125.255 50.4122 124.336L50.191 125.819C55.6736 126.637 59.8792 131.109 60.3578 136.632L61.8522 136.502ZM62.6736 145.981L61.8522 136.502L60.3578 136.632L61.1792 146.111L62.6736 145.981Z" fill="black"/>
</g>
<defs>
<clipPath id="clip0_234_642">
<rect width="190" height="155" fill="white" transform="translate(0.66748)"/>
</clipPath>
</defs>
</svg>
