<svg width="34" height="34" viewBox="0 0 34 34" fill="none" xmlns="http://www.w3.org/2000/svg">
<path d="M6.70835 6.6955L7.77068 5.77495C8.99489 4.55093 10.9779 4.55093 12.2021 5.77495C12.2325 5.8053 14.1042 8.24323 14.1042 8.24323C15.2576 9.45713 15.2576 11.369 14.1042 12.5728L12.9306 14.0497C14.4077 17.3981 16.7044 19.7045 19.9419 21.0803L21.4191 19.8967C22.6231 18.7334 24.5454 18.7334 25.7493 19.8967C25.7493 19.8967 28.1876 21.7682 28.218 21.7985C29.4422 23.0225 29.4422 25.0053 28.2686 26.1787L27.2568 27.342C26.0933 28.5053 24.5251 29.1426 22.8254 29.1426C15.0957 29.1426 4.85686 18.8953 4.85686 11.1768C4.85686 9.48748 5.49426 7.9094 6.70835 6.70561V6.6955ZM22.8254 27.1094C23.9788 27.1094 25.0411 26.6845 25.7696 25.946L26.7813 24.7827C27.1961 24.368 27.2164 23.6902 26.8218 23.2552C26.8218 23.2552 24.4037 21.3939 24.3734 21.3635C23.9586 20.9488 23.2301 20.9488 22.8052 21.3635C22.7748 21.3939 20.7412 23.0225 20.7412 23.0225C20.4579 23.2451 20.0836 23.3058 19.7497 23.1743C15.5611 21.576 12.5562 18.5817 10.8261 14.2622C10.6946 13.9284 10.7452 13.544 10.9779 13.2506C10.9779 13.2506 12.6068 11.2072 12.627 11.187C13.0621 10.752 13.0621 10.054 12.627 9.61899C12.5967 9.58864 10.7351 7.17094 10.7351 7.17094C10.3 6.77642 9.62217 6.78654 9.15677 7.25187L8.09444 8.17242C7.3154 8.95134 6.88035 10.0135 6.88035 11.1667C6.88035 18.2074 16.7651 27.1094 22.8254 27.1094Z" fill="#465976"/>
</svg>
