<svg width="42" height="42" viewBox="0 0 42 42" fill="none" xmlns="http://www.w3.org/2000/svg">
<path d="M8.28713 8.27117L9.59942 7.13402C11.1117 5.62199 13.5613 5.62199 15.0735 7.13402C15.111 7.17151 17.4232 10.1831 17.4232 10.1831C18.8479 11.6826 18.8479 14.0444 17.4232 15.5314L15.9734 17.3558C17.7981 21.492 20.6352 24.3411 24.6345 26.0406L26.4592 24.5786C27.9465 23.1415 30.3211 23.1415 31.8084 24.5786C31.8084 24.5786 34.8204 26.8903 34.8579 26.9278C36.3701 28.4399 36.3701 30.8891 34.9204 32.3386L33.6706 33.7757C32.2333 35.2127 30.2961 36 28.1964 36C18.648 36 6 23.3415 6 13.8069C6 11.7201 6.78737 9.7707 8.28713 8.28366V8.27117ZM28.1964 33.4883C29.6212 33.4883 30.9335 32.9634 31.8334 32.0512L33.0832 30.6142C33.5956 30.1018 33.6206 29.2646 33.1331 28.7273C33.1331 28.7273 30.1461 26.428 30.1086 26.3905C29.5962 25.8782 28.6964 25.8782 28.1714 26.3905C28.1339 26.428 25.6219 28.4399 25.6219 28.4399C25.2719 28.7148 24.8095 28.7898 24.397 28.6273C19.2229 26.6529 15.511 22.9541 13.3738 17.6182C13.2113 17.2059 13.2738 16.731 13.5613 16.3686C13.5613 16.3686 15.5735 13.8444 15.5985 13.8194C16.1359 13.2821 16.1359 12.4199 15.5985 11.8825C15.561 11.845 13.2613 8.85848 13.2613 8.85848C12.7239 8.37113 11.8866 8.38363 11.3116 8.95845L9.99936 10.0956C9.03701 11.0578 8.4996 12.3699 8.4996 13.7944C8.4996 22.4917 20.7101 33.4883 28.1964 33.4883Z" fill="#465976"/>
</svg>
