<svg width="42" height="42" viewBox="0 0 42 42" fill="none" xmlns="http://www.w3.org/2000/svg">
<path d="M21 36.5741L29.662 27.912C34.4459 23.1282 34.4459 15.3719 29.662 10.5879C24.8782 5.80401 17.1219 5.80401 12.3379 10.5879C7.55402 15.3719 7.55402 23.1282 12.3379 27.912L21 36.5741ZM21 41.5238L9.86307 30.387C3.71231 24.2361 3.71231 14.2638 9.86307 8.11307C16.0138 1.96231 25.9861 1.96231 32.137 8.11307C38.2877 14.2638 38.2877 24.2361 32.137 30.387L21 41.5238ZM21 22.75C22.9331 22.75 24.5 21.183 24.5 19.25C24.5 17.317 22.9331 15.75 21 15.75C19.0669 15.75 17.5 17.317 17.5 19.25C17.5 21.183 19.0669 22.75 21 22.75ZM21 26.25C17.134 26.25 14 23.1159 14 19.25C14 15.384 17.134 12.25 21 12.25C24.8659 12.25 28 15.384 28 19.25C28 23.1159 24.8659 26.25 21 26.25Z" fill="#465976"/>
</svg>
