<svg width="2440" height="353" viewBox="0 0 2440 353" fill="none" xmlns="http://www.w3.org/2000/svg">
<path d="M2420.11 5.35623C2168.61 -8.14377 2024.25 181.278 2004.11 171.356C1971.5 151.53 1885.95 28.7976 1865.61 111.356C1791.3 412.99 1492.63 236.092 1283.41 171.356" stroke="black" stroke-width="1.5"/>
<path d="M18.6082 337.356C182.341 382.12 215.269 246.913 235.608 164.355C255.947 81.7973 341.502 204.529 374.108 224.356C394.246 234.278 571.406 11 951.906 88.5" stroke="black" stroke-width="1.5"/>
<path d="M1063.02 149.825C1067.15 147.717 1069.59 143.822 1071.92 138.052C1073.76 142.652 1076.14 147.223 1081.05 149.773C1076.45 152.847 1074.44 154.839 1071.65 162.044C1071.47 158.763 1067.94 152.375 1063.02 149.825Z" stroke="black" stroke-width="1.5"/>
<path d="M1093.32 119.615C1104.43 113.117 1110.84 101.201 1116.85 83.5729C1122.14 97.5584 1128.87 111.445 1142.4 119.129C1130.04 128.582 1124.68 134.687 1117.52 156.698C1116.84 146.702 1106.84 127.299 1093.32 119.615Z" stroke="black" stroke-width="1.5"/>
</svg>
