<svg width="582" height="84" viewBox="0 0 582 84" fill="none" xmlns="http://www.w3.org/2000/svg">
<path d="M576.385 1.27566C516.487 -1.93957 482.105 43.1742 477.309 40.811C469.543 36.0891 449.167 6.85858 444.323 26.521C426.624 98.3598 355.491 56.2289 305.662 40.811" stroke="black" stroke-width="1.5"/>
<path d="M4.43189 80.3464C43.4274 91.0076 51.2696 58.8062 56.1137 39.1437C60.9577 19.4813 81.3339 48.7118 89.0996 53.4337C93.8958 55.7969 136.089 2.61984 226.711 21.0776" stroke="black" stroke-width="1.5"/>
<path d="M234.358 67.1202C237.253 65.6413 238.963 62.9081 240.6 58.8593C241.894 62.0869 243.559 65.2942 247.005 67.0838C243.776 69.2409 242.365 70.6381 240.411 75.694C240.284 73.3917 237.805 68.9098 234.358 67.1202Z" stroke="black" stroke-width="1.5"/>
<path d="M255.614 45.9233C263.411 41.3635 267.907 33.0025 272.129 20.6336C275.841 30.4467 280.562 40.1908 290.053 45.5819C281.384 52.2148 277.622 56.4988 272.597 71.9427C272.117 64.9287 265.105 51.3145 255.614 45.9233Z" stroke="black" stroke-width="1.5"/>
</svg>
