<svg width="36" height="36" viewBox="0 0 36 36" fill="none" xmlns="http://www.w3.org/2000/svg">
<path d="M20.3853 1.66637C26.783 2.5417 32.2175 7.34736 33.9276 13.6499C34.6568 16.3375 34.6914 19.3395 34.0228 22.0008C32.6511 27.4453 28.5628 31.8659 23.2497 33.6428C18.7094 35.166 13.6744 34.6405 9.63777 32.2161C9.2644 31.9972 8.92604 31.8133 8.89103 31.8133C8.86497 31.8133 7.44112 32.26 5.73103 32.8114C4.02949 33.3542 2.6321 33.7742 2.6321 33.7306C2.6321 33.6957 3.08365 32.3212 3.63902 30.6843L4.64594 27.7081L4.19439 27.0253C3.63006 26.1676 2.71842 24.3029 2.38007 23.3138C-0.266904 15.5759 3.23145 7.0148 10.5755 3.2684C13.6052 1.72796 16.8955 1.19381 20.3853 1.66637Z" stroke="black" stroke-width="1.5"/>
<path d="M11.004 9.18235C10.3714 9.51983 9.49829 10.8361 9.17784 11.9358C9.1136 12.1523 9.03358 12.7237 9.00954 13.2001C8.95356 14.3084 9.1538 15.2697 9.70641 16.5165C10.1148 17.4343 11.06 18.9755 11.9973 20.2398C13.6393 22.4649 15.6657 24.2835 17.588 25.2793C19.0858 26.0501 21.3925 26.8725 22.3696 26.985C23.7074 27.1324 25.7416 26.1711 26.4546 25.0454C26.9194 24.318 27.1756 22.5343 26.863 22.2228C26.703 22.0669 23.6672 20.4652 23.0665 20.2142C22.8583 20.1277 22.6017 20.0842 22.4977 20.1191C22.3775 20.1451 22.0653 20.4916 21.7125 20.9675C20.8477 22.1441 20.4232 22.5944 20.1907 22.5944C19.8785 22.5944 18.3243 21.7806 17.4517 21.1572C16.3382 20.3604 14.9046 18.8021 14.1277 17.5464C13.8073 17.0355 13.551 16.5161 13.551 16.4036C13.551 16.2821 13.7592 15.9446 14.1115 15.5032C14.624 14.8538 15.0725 14.0834 15.0725 13.8405C15.0725 13.7886 14.704 12.7842 14.2554 11.6065C13.7269 10.2383 13.3583 9.38987 13.2223 9.23392C13.0142 9.00893 12.974 9 12.1731 9C11.4924 9.00041 11.2842 9.03493 11.004 9.18235Z" stroke="black" stroke-width="1.5"/>
</svg>
