<svg width="153" height="150" viewBox="0 0 153 150" fill="none" xmlns="http://www.w3.org/2000/svg">
<circle cx="75" cy="75" r="75" fill="#EBF3FF"/>
<path d="M47.301 88.0237L31.5669 90.9289L38.0318 131.375L81.1745 124.225C88.126 123.072 94.6309 120.026 99.9499 115.404C107.215 109.092 115.482 101.783 117.057 99.4958C119.302 96.2339 117.962 94.0747 117.011 93.4029C117.903 92.5666 118.605 91.8901 119.035 91.4448C122.023 88.3509 125.412 84.6744 124.557 82.7985C123.873 81.2977 122.391 81.1646 121.735 81.2857L124.424 78.8143C127.503 76.212 132.094 70.7882 129.091 68.292C126.255 65.9347 120.962 69.1151 118.89 70.684C119.519 69.3002 119.709 67.7858 118.622 66.6659C116.613 64.5963 112.787 65.3588 110.082 67.226C105.722 70.2342 95.5202 77.033 87.9861 82.4917C80.4521 87.9505 70.9436 92.0789 67.1312 93.4608C70.757 89.2322 79.0252 79.672 83.0917 75.2602C88.1749 69.7456 87.5393 66.3037 85.7011 64.6094C84.2306 63.2538 80.4993 64.8919 78.8175 65.8804L47.301 88.0237Z" fill="white"/>
<path d="M83.6976 100.571V100.571C91.8671 95.3407 99.5722 89.4183 106.728 82.869L116.852 73.6026C117.507 72.9372 118.356 71.8576 118.89 70.684M118.89 70.684C119.519 69.3002 119.709 67.7858 118.622 66.6659C116.613 64.5963 112.787 65.3588 110.082 67.226C105.722 70.2342 95.5202 77.033 87.9861 82.4917C80.4521 87.9505 70.9436 92.0789 67.1312 93.4608C70.757 89.2322 79.0252 79.672 83.0917 75.2602C88.1749 69.7456 87.5393 66.3037 85.7011 64.6094C84.2306 63.2538 80.4993 64.8919 78.8175 65.8804L47.301 88.0237L31.5669 90.9289L38.0318 131.375L81.1745 124.225C88.126 123.072 94.6309 120.026 99.9499 115.404C107.215 109.092 115.482 101.783 117.057 99.4958C119.302 96.2339 117.962 94.0747 117.011 93.4029M118.89 70.684C120.962 69.1151 126.255 65.9347 129.091 68.292C132.094 70.7882 127.503 76.212 124.424 78.8143L116.25 86.3274C109.248 92.763 101.782 98.6749 93.9133 104.016L87.2078 108.567M121.735 81.2857C122.391 81.1646 123.873 81.2977 124.557 82.7985C125.412 84.6744 122.023 88.3509 119.035 91.4448C118.605 91.8901 117.903 92.5666 117.011 93.4029M89.9428 115.629L100.745 108.042C104.928 104.35 112.944 97.2157 117.011 93.4029" stroke="black" stroke-width="1.5"/>
<ellipse cx="23.3943" cy="112.833" rx="11.2754" ry="33.0132" transform="rotate(-19.8476 23.3943 112.833)" fill="black"/>
<mask id="path-5-inside-1_205_1132" fill="white">
<path fill-rule="evenodd" clip-rule="evenodd" d="M8.00391 94.7182L33.938 89.9296L41.5642 131.231L21.8674 134.868C18.5809 130.118 15.3729 123.822 12.7883 116.662C9.87549 108.592 8.27349 100.862 8.00391 94.7182Z"/>
</mask>
<path fill-rule="evenodd" clip-rule="evenodd" d="M8.00391 94.7182L33.938 89.9296L41.5642 131.231L21.8674 134.868C18.5809 130.118 15.3729 123.822 12.7883 116.662C9.87549 108.592 8.27349 100.862 8.00391 94.7182Z" fill="#F6F6F6"/>
<path d="M8.00391 94.7182L7.73154 93.2431L6.44814 93.4801L6.50535 94.7839L8.00391 94.7182ZM33.938 89.9296L35.413 89.6572L35.1407 88.1821L33.6656 88.4545L33.938 89.9296ZM41.5642 131.231L41.8366 132.706L43.3116 132.434L43.0393 130.959L41.5642 131.231ZM21.8674 134.868L20.6338 135.722L21.1858 136.52L22.1398 136.343L21.8674 134.868ZM12.7883 116.662L14.1992 116.153L12.7883 116.662ZM8.27627 96.1932L34.2103 91.4046L33.6656 88.4545L7.73154 93.2431L8.27627 96.1932ZM32.4629 90.2019L40.0891 131.504L43.0393 130.959L35.413 89.6572L32.4629 90.2019ZM41.2918 129.756L21.5951 133.393L22.1398 136.343L41.8366 132.706L41.2918 129.756ZM23.101 134.015C19.9002 129.388 16.7476 123.213 14.1992 116.153L11.3774 117.171C13.9982 124.432 17.2615 130.847 20.6338 135.722L23.101 134.015ZM14.1992 116.153C11.3256 108.192 9.76399 100.613 9.50247 94.6524L6.50535 94.7839C6.78299 101.111 8.42535 108.993 11.3774 117.171L14.1992 116.153Z" fill="black" mask="url(#path-5-inside-1_205_1132)"/>
<path d="M73.3711 69.4287C73.7469 70.5457 75.5256 72.285 79.6345 70.306C83.7435 68.327 85.8398 66.279 86.3743 65.5023" stroke="black" stroke-width="1.5"/>
<path d="M112.48 77.4606C111.837 76.7319 111.05 74.6739 113.047 72.2713C115.044 69.8688 118.044 68.1284 119.295 67.5585M123.531 79.4875C122.858 78.5949 122.011 76.2091 124.008 73.8066C126.005 71.4041 128.738 70.052 129.855 69.6762M118.645 91.5757C118.3 90.6226 117.929 88.2504 119.212 86.3865C120.816 84.0566 124.076 82.4377 124.659 82.8386M113.176 103.263C112.727 102.668 112.329 100.877 114.326 98.4746C116.323 96.0721 117.866 95.6177 118.388 95.6908" stroke="black" stroke-width="1.5"/>
<path d="M10 71.3768C24.5016 73.2464 59.0981 72 81.472 52.0584C109.439 27.1313 104.467 19.0299 101.981 15.914C99.5259 12.8363 88.3084 12.1751 81.472 24.0154C78.986 20.0686 72.2738 12.9228 65.3131 15.9141C56.6121 19.6532 62.8271 37.7254 81.472 46.4498C100.117 55.1743 124.977 43.334 143 28.3777" stroke="black" stroke-width="1.5"/>
<path d="M116.669 117.206C121.225 117.206 126.688 115.904 130.712 110.192C134.111 105.369 134.704 100.708 134.663 96.9081C134.643 96.1873 134.625 95.5138 134.59 94.9023C134.627 95.5388 134.656 96.2089 134.663 96.9081C134.778 101.015 134.968 106.655 138.928 111.087C143.583 116.296 148.138 117.402 151.528 117.206C148.816 117.363 143.646 117.388 139.56 122.007C135.473 126.627 134.394 134.633 134.365 138.058C134.183 130.993 131.579 117.206 116.669 117.206Z" fill="#EBF3FF" stroke="black" stroke-width="1.5"/>
<path d="M3.16868 40.7285C5.86371 40.7285 9.09575 39.958 11.4762 36.5793C13.8566 33.2006 13.9104 29.9565 13.7703 27.5338C13.9104 29.9565 13.5824 34.0267 16.3365 37.1084C19.0906 40.1901 21.7848 40.8445 23.7905 40.7285C22.1859 40.8213 19.128 40.8361 16.7102 43.5688C14.2924 46.3014 13.6541 51.0378 13.6371 53.0644C13.5295 48.8844 11.9888 40.7285 3.16868 40.7285Z" stroke="black" stroke-width="1.5"/>
</svg>
