<svg xmlns="http://www.w3.org/2000/svg" xmlns:xlink="http://www.w3.org/1999/xlink" version="1.1" width="160pt" height="130pt" viewBox="0 0 160 130">
<defs>
<clipPath id="clip_0">
<path transform="matrix(1,0,0,-1,0,130)" d="M71.63967 35.172159C74.2818 30.369614 78.09563 26.306183 82.72861 23.357506 87.36158 20.408822 92.66418 18.670067 98.146198 18.301964 103.62821 17.93386 109.11272 18.94828 114.09272 21.251465 119.07272 23.55465 123.38748 27.072258 126.63813 31.47911 129.88878 35.885965 131.97042 41.039827 132.69058 46.46427 133.41074 51.88871 132.74622 57.408647 130.7584 62.5138 128.77062 67.61896 125.5237 72.14458 121.317829 75.67227 117.11195 79.19997 112.08287 81.6159 106.69548 82.696727L100.29243 50.783067 71.63967 35.172159Z" fill-rule="evenodd"/>
</clipPath>
<clipPath id="clip_1">
<path transform="matrix(1,0,0,-1,0,130)" d="M10 95.89537 0 0 10 95.89537C34.902879 109.65206 65.126369 109.65206 90.02924 95.89537L0 0 90.02924 95.89537V27.063256L50.01462 2.999992 10 27.063256V95.89537Z" fill-rule="evenodd"/>
</clipPath>
<clipPath id="clip_2">
<path transform="matrix(1,0,0,-1,0,130)" d="M15 91.58623 0 0 15 91.58623C36.770929 103.66202 63.229074 103.66202 85 91.58623L0 0 85 91.58623V31.133667L50 9.999847 15 31.133667V91.58623Z" fill-rule="evenodd"/>
</clipPath>
</defs>
<path transform="matrix(-.980805,-.194993,.194993,-.980805,126.67582,132.21477)" d="M57.744024 22.188183C54.216154 17.97554 49.68319 14.720276 44.564176 12.723309 39.445158 10.726341 33.905309 10.052132 28.45674 10.762993 23.008173 11.473854 17.826746 13.546856 13.391443 16.790356 8.956141 20.033856 5.410113 24.34317 3.081166 29.319935 .752218 34.296705-.284482 39.780294 .066901 45.263788 .418284 50.747285 2.146409 56.053705 5.091524 60.69251 8.036638 65.331317 12.103686 69.15278 16.916703 71.80365 21.729718 74.45451 27.133355 75.84922 32.62809 75.85883L32.685289 43.1736 57.744024 22.188183Z"/>
<path transform="matrix(-.980805,-.194993,.194993,-.980805,123.95758,127.80535)" d="M57.74403 22.142865C54.21616 17.947705 49.683198 14.705948 44.564184 12.717266 39.445169 10.728584 33.90531 10.057175 28.456748 10.765091 23.00818 11.473007 17.826754 13.537395 13.39145 16.767437 8.956146 19.997479 5.41012 24.28891 3.081172 29.245026 .752225 34.20114-.284475 39.66198 .066908 45.122724 .418291 50.583467 2.146416 55.867868 5.091531 60.487424 8.036646 65.10698 12.103695 68.91259 16.91671 71.55246 21.729725 74.19233 27.133362 75.581249 32.628099 75.59082L32.685297 43.041208 57.74403 22.142865Z" fill="#ffffff"/>
<g clip-path="url(#clip_0)">
<path transform="matrix(-.980805,-.194993,.194993,-.980805,123.95758,127.80535)" d="M57.74403 22.142865 58.892057 21.177445 59.861436 22.330182 58.704744 23.294835 57.74403 22.142865ZM32.628099 75.59082 34.128095 75.59345 34.125459 77.09343 32.625486 77.09082 32.628099 75.59082ZM32.685297 43.041208 31.185297 43.03857 31.18653 42.33796 31.724583 41.889238 32.685297 43.041208ZM56.596006 23.108284C53.23054 19.10625 48.905736 16.013127 44.021 14.115463L45.107366 11.319069C50.460664 13.398766 55.201776 16.789158 58.892057 21.177445L56.596006 23.108284ZM44.021 14.115463C39.136236 12.217785 33.849618 11.577019 28.650013 12.25259L28.263482 9.277596C33.96101 8.537331 39.754098 9.239388 45.107366 11.319069L44.021 14.115463ZM28.650013 12.25259C23.45042 12.928154 18.506253 14.898163 14.274488 17.979973L12.508411 15.554901C17.147255 12.176632 22.56594 10.017853 28.263482 9.277596L28.650013 12.25259ZM14.274488 17.979973C10.042761 21.06176 6.660152 25.155724 4.438753 29.882973L1.723592 28.607079C4.160089 23.422093 7.869533 18.933197 12.508411 15.554901L14.274488 17.979973ZM4.438753 29.882973C2.217371 34.610185 1.228695 39.818445 1.563812 45.0264L-1.429996 45.219045C-1.797645 39.505517-.712921 33.7921 1.723592 28.607079L4.438753 29.882973ZM1.563812 45.0264C1.89893 50.234369 3.54707 55.27456 6.356353 59.68106L3.826708 61.29379C.745762 56.461175-1.062347 50.932565-1.429996 45.219045L1.563812 45.0264ZM6.356353 59.68106C9.165661 64.08759 13.045616 67.71841 17.638058 70.2373L16.195363 72.86762C11.161774 70.10677 6.90763 66.126369 3.826708 61.29379L6.356353 59.68106ZM17.638058 70.2373C22.230536 72.7562 27.387001 74.08169 32.63071 74.09082L32.625486 77.09082C26.879725 77.0808 21.228915 75.62845 16.195363 72.86762L17.638058 70.2373ZM31.1281 75.58819 31.185297 43.03857 34.18529 43.043844 34.128095 75.59345 31.1281 75.58819ZM31.724583 41.889238 56.783319 20.990895 58.704744 23.294835 33.646009 44.193178 31.724583 41.889238Z"/>
</g>
<path transform="matrix(-.980805,-.194993,.194993,-.980805,119.08801,113.03473)" d="M10.075958 9.395996 10.517477 10.002262V10.002266L10.075958 9.395996ZM2.318327 18.78435 1.639537 18.465378 2.318327 18.78435ZM.050343 30.731 .798795 30.68284 .050343 30.731ZM3.830955 42.291666 3.198544 42.694849 3.830955 42.291666ZM21.507979 5.62347C17.532872 6.139942 13.752906 7.646038 10.517477 10.002262L9.634439 8.78973C13.073407 6.285275 17.09063 4.684795 21.314715 4.135975L21.507979 5.62347ZM10.517477 10.002266C7.282067 12.358471 4.695683 15.488689 2.997118 19.103323L1.639537 18.465378C3.445652 14.621876 6.195452 11.294193 9.634439 8.789726L10.517477 10.002266ZM2.997118 19.103323C1.29856 22.717938 .542541 26.700476 .798795 30.68284L-.698109 30.779162C-.970629 26.544013-.166586 22.308896 1.639537 18.465378L2.997118 19.103323ZM.798795 30.68284C1.055049 34.665208 2.315327 38.51918 4.463367 41.88848L3.198544 42.694849C.914673 39.112485-.42559 35.01431-.698109 30.779162L.798795 30.68284ZM4.463367 41.88848C6.611418 45.257806 9.577988 48.033815 13.089096 49.959608L12.367748 51.27477C8.636066 49.227998 5.482402 46.27719 3.198544 42.694849L4.463367 41.88848Z"/>
<path transform="matrix(1,0,0,-1,10,130.43897)" d="M0 96.334339V0 96.334339C24.902876 110.09103 55.126367 110.09103 80.02924 96.334339L0 0 80.02924 96.334339V27.50222L40.01462 3.438957 0 27.50222V96.334339Z" fill="#ffffff"/>
<g clip-path="url(#clip_1)">
<path transform="matrix(1,0,0,-1,10,130.43897)" d="M80.02924 27.50222 80.80228 26.216752 81.52924 26.653923V27.50222H80.02924ZM0 27.50222H-1.5V26.653923L-.77303 26.216752 0 27.50222ZM40.01462 3.438957 39.241594 2.153488 40.01462 1.688622 40.78765 2.153488 40.01462 3.438957ZM78.52924 96.334339V27.50222H81.52924V96.334339H78.52924ZM1.5 27.50222V96.334339H-1.5V27.50222H1.5ZM79.25621 28.78769 39.241594 4.724426 40.78765 2.153488 80.80228 26.216752 79.25621 28.78769ZM40.78765 4.724426 .77303 28.78769-.77303 26.216752 39.241594 2.153488 40.78765 4.724426ZM.72531 95.021358C25.176795 108.52869 54.85245 108.52869 79.30393 95.021358L80.754558 97.64732C55.400285 111.653369 24.628958 111.653369-.72531 97.64732L.72531 95.021358Z"/>
</g>
<path transform="matrix(1,0,0,-1,15,123.01904)" d="M0 84.60527V0 84.60527C21.770928 96.68106 48.229074 96.68106 70 84.60527L0 0 70 84.60527V24.15271L35 3.01889 0 24.15271V84.60527Z" fill="#ffffff"/>
<g clip-path="url(#clip_2)">
<path transform="matrix(1,0,0,-1,15,123.01904)" d="M70 24.15271 70.77535 22.868645 71.5 23.306199V24.15271H70ZM0 24.15271H-1.5V23.306199L-.775351 22.868645 0 24.15271ZM35 3.01889 34.22465 1.734825 35 1.266647 35.77535 1.734825 35 3.01889ZM68.5 84.60527V24.15271H71.5V84.60527H68.5ZM1.5 24.15271V84.60527H-1.5V24.15271H1.5ZM69.22465 25.436776 34.22465 4.302956 35.77535 1.734825 70.77535 22.868645 69.22465 25.436776ZM35.77535 4.302956 .775351 25.436776-.775351 22.868645 34.22465 1.734825 35.77535 4.302956ZM.727582 83.29354C22.045935 95.1183 47.954069 95.1183 69.272418 83.29354L70.727588 85.91699C48.504079 98.24381 21.49592 98.24381-.727582 85.91699L.727582 83.29354Z"/>
</g>
<path transform="matrix(1,0,0,-1,25,74.83057)" d="M22.044127 19.670027C22.315518 19.777108 22.779738 19.905602 23.086838 19.96271H23.079695C23.48678 20.034096 23.993853 20.055512 24.92229 20.041235 25.915009 20.01982 26.329239 19.976988 26.743466 19.869908 27.036282 19.791384 27.45765 19.65575 27.671906 19.570088 27.88616 19.484423 28.178975 19.34879 28.31467 19.270266 28.450366 19.184603 28.736039 18.984723 28.950295 18.827672 29.16455 18.663485 29.47165 18.342247 29.643055 18.106673 29.807316 17.871098 30.021574 17.499892 30.107277 17.285733 30.250113 16.950219 30.27154 16.771754 30.27154 16.036477 30.27154 15.372585 30.23583 15.087042 30.128703 14.78722 30.057284 14.573062 29.878735 14.208994 29.74304 13.973419 29.607346 13.744984 29.307389 13.366637 29.07885 13.138202 28.857453 12.902628 28.457509 12.574252 28.186118 12.402925 27.92187 12.231599 27.54335 12.017442 27.350522 11.931778 27.150549 11.838976 26.736323 11.681926 26.422081 11.574847 26.107842 11.467769 25.715037 11.360689 25.543633 11.332135 25.37937 11.310719 25.243674 11.275026 25.243674 11.253611 25.243674 11.233592 25.293597 11.144961 25.352612 11.040191L25.365086 11.018036C25.436505 10.910956 25.793599 10.389838 26.164975 9.861582 26.53635 9.333324 27.214827 8.398167 27.679047 7.791386 28.136126 7.184604 28.850312 6.285139 29.264538 5.792576 29.678765 5.300011 30.192978 4.721784 30.807177 4.115003L31.050002 4.507626C31.185694 4.721785 31.378525 5.071576 31.485651 5.271458 31.585638 5.478477 31.757044 5.949625 31.857029 6.306555 32.014154 6.856227 32.042715 7.077524 32.02129 7.577227 31.992722 8.041236 31.942732 8.276811 31.799895 8.576632 31.692767 8.805067 31.471369 9.097751 31.264258 9.276216 31.078568 9.440404 30.77861 9.626007 30.600066 9.683117 30.421519 9.747364 30.157267 9.790195 29.74304 9.790195V10.504057H33.245035V19.900404H41.22778C46.718675 19.900404 51.16992 15.449157 51.16992 9.958264 51.16992 4.467372 46.718675 .016123 41.22778 .016123L32.149908 .016623 32.156785 .020458C31.902207 .014503 31.653862 .030155 31.314248 .067413 30.885737 .117382 30.292962 .245878 29.921586 .374374 29.564496 .495729 29.071707 .702749 28.35038 1.10251L27.743325 .84552C27.407656 .709887 26.986287 .5457 26.793457 .481453 26.607769 .417206 26.243533 .317265 25.972144 .260157 25.707896 .203047 25.200823 .124523 24.850874 .081692 24.49378 .045998 23.91529 .010305 23.56534 .010305 23.208249 .010305 22.615477 .045998 22.244099 .081692 21.872725 .124523 21.308516 .203045 20.994275 .267292 20.680033 .331539 20.130112 .481451 19.78016 .595671 19.423069 .717026 18.908856 .924047 18.637465 1.059679 18.358933 1.202452 17.944705 1.445164 17.709023 1.616489 17.473343 1.78068 17.051974 2.159023 16.780583 2.451708 16.741425 2.493458 16.703009 2.535736 16.665438 2.578417 14.858246 .967087 12.485435 .015612 9.942145 .015612 4.451251 .015612 0 4.466859 0 9.957751 -0 15.448645 4.45125 19.899893 9.942145 19.899893H10.184453C12.405051 19.899893 14.575963 19.242594 16.423613 18.010828L14.49138 15.112482C13.215937 15.962777 11.717345 16.416516 10.184453 16.416516H9.942145C6.375068 16.416514 3.483379 13.524828 3.48338 9.957751 3.48338 6.390676 6.375068 3.498989 9.942145 3.498989 12.061695 3.498989 14.00051 4.507731 15.225656 6.131906H12.482109V9.615284H18.357649C18.48606 9.682842 18.608584 9.743924 18.708884 9.790195 18.980275 9.911551 19.47306 10.090017 19.794445 10.189958 20.122969 10.28276 20.387217 10.375561 20.387217 10.396976 20.387217 10.418392 20.251523 10.696798 20.080119 11.018036 19.908715 11.346412 19.658749 11.881807 19.515913 12.217321 19.373076 12.552836 19.165963 13.131063 19.065976 13.502272 18.944565 13.937727 18.866005 14.451706 18.837437 14.929993 18.808869 15.551051 18.830296 15.793764 18.951706 16.322022 19.037409 16.678952 19.230238 17.19293 19.373076 17.464198 19.537339 17.771159 19.830155 18.163783 20.137253 18.470742 20.415785 18.756287 20.844296 19.0918 21.101403 19.234572 21.35851 19.377345 21.779879 19.570088 22.044127 19.670027ZM36.510705 3.453068V3.499502H41.22778C44.794855 3.499502 47.686548 6.391188 47.686548 9.958264 47.686548 13.52534 44.794855 16.417027 41.22778 16.417027H36.728418V10.504057H36.738779V9.688989C36.56118 9.632887 36.367837 9.556771 36.206415 9.476097 35.927885 9.340463 35.4708 9.019226 35.19227 8.776514 34.906595 8.526662 34.478086 8.098346 34.235265 7.827079 33.99244 7.555812 33.663915 7.14891 33.499654 6.934752 33.328248 6.720594 32.792608 5.949625 32.306966 5.228626 31.821318 4.507627 31.378525 3.865152 31.328532 3.800903 31.249972 3.700964 31.307108 3.629578 31.792754 3.251232 32.099855 3.00852 32.528364 2.715836 32.742616 2.601618 32.95687 2.480261 33.31396 2.323214 33.528219 2.251827 33.756757 2.180441 34.128137 2.123333 34.42095 2.123333 34.813756 2.123333 35.01372 2.166162 35.327966 2.316074 35.556505 2.423153 35.892175 2.658728 36.07072 2.844332 36.21051 2.988716 36.36246 3.196915 36.510705 3.453068ZM22.958283 18.956166C23.058268 19.070384 23.265383 19.227433 23.422503 19.298819 23.6439 19.398758 23.829588 19.427313 24.243815 19.405898 24.658041 19.39162 24.85087 19.34165 25.100836 19.198878 25.279383 19.098938 25.550772 18.87764 25.70075 18.706315 25.857874 18.534987 26.07213 18.199473 26.1864 17.963898 26.293526 17.728325 26.436364 17.29287 26.50064 17.000187 26.586342 16.593287 26.607768 16.229218 26.5792 15.50108 26.550633 14.83005 26.493498 14.387457 26.393513 14.037665 26.30781 13.766397 26.143548 13.330943 26.014996 13.081092 25.872159 12.802686 25.62219 12.481449 25.372225 12.245876 25.143687 12.031716 24.929432 11.86039 24.88658 11.86039 24.843729 11.86039 24.593766 12.238736 24.322375 12.695607 24.043843 13.159616 23.651041 13.90917 23.436787 14.358903 23.22253 14.808635 22.936858 15.486802 22.815447 15.858009 22.622616 16.407683 22.579764 16.67895 22.551198 17.321425 22.52263 17.971037 22.536913 18.16378 22.644042 18.427908 22.71546 18.606373 22.858298 18.841948 22.958283 18.956166ZM20.365792 8.719403C20.458636 8.933561 20.608613 9.219107 20.694315 9.347602 20.780018 9.468957 20.865719 9.576036 20.880003 9.576036 20.901429 9.576036 21.222813 9.104889 21.587046 8.526661 21.958422 7.941296 22.501204 7.134633 22.80116 6.720594 23.10112 6.306555 23.651041 5.585554 24.022418 5.114407 24.400937 4.650397 25.057986 3.893707 25.493639 3.451113 25.92929 3.001381 26.53635 2.423153 26.85059 2.166162L27.065545 1.990511C27.294037 1.803869 27.485226 1.647696 27.529067 1.609354 27.62191 1.530828 27.593342 1.502272 27.350522 1.40233 27.1934 1.338083 26.80774 1.223867 26.4935 1.145344 26.107838 1.052542 25.665041 1.009708 25.136546 1.009708 24.57234 1.009708 24.18668 1.052542 23.779597 1.152481 23.465353 1.238146 22.986849 1.423748 22.708319 1.566521 22.436928 1.709293 21.986989 2.037668 21.72274 2.294659 21.451352 2.551647 21.087117 2.979963 20.915713 3.258369 20.744309 3.536776 20.522912 4.000784 20.415783 4.293468 20.315796 4.58615 20.187245 5.064438 20.13011 5.349982 20.072976 5.628387 20.030123 6.22803 20.030123 6.670623 20.030123 7.106078 20.065833 7.66289 20.108685 7.898464 20.151535 8.134038 20.265805 8.505245 20.365792 8.719403Z" fill-rule="evenodd"/>
<path transform="matrix(1,0,0,-1,25,59.543458)" d="M5.803642-28.446225C5.322349-28.446225 4.908875-28.349965 4.563219-28.157448 4.221939-27.960556 3.959416-27.684906 3.77565-27.330498 3.591883-26.971716 3.5-26.549492 3.5-26.063824 3.5-25.578156 3.591883-25.15812 3.77565-24.803713 3.959416-24.449307 4.221939-24.175845 4.563219-23.983328 4.908875-23.786437 5.322349-23.687989 5.803642-23.687989 6.12742-23.687989 6.418384-23.73393 6.676532-23.825814 6.939055-23.917696 7.164387-24.053332 7.352529-24.232724L7.07688-24.902159C6.871236-24.735894 6.672156-24.617758 6.479639-24.547753 6.291497-24.473372 6.074916-24.43618 5.829894-24.43618 5.361728-24.43618 5.002946-24.578379 4.753549-24.86278 4.508527-25.142806 4.386016-25.543152 4.386016-26.063824 4.386016-26.584496 4.508527-26.98703 4.753549-27.271431 5.002946-27.555832 5.361728-27.698033 5.829894-27.698033 6.074916-27.698033 6.291497-27.663029 6.479639-27.593022 6.672156-27.518639 6.871236-27.39613 7.07688-27.225489L7.352529-27.894925C7.164387-28.069939 6.939055-28.205574 6.676532-28.301835 6.418384-28.398095 6.12742-28.446225 5.803642-28.446225Z"/>
<path transform="matrix(1,0,0,-1,25,59.543458)" d="M8.04237-26.063824C8.04237-25.578156 8.129878-25.15812 8.304893-24.803713 8.484284-24.449307 8.740246-24.175845 9.072775-23.983328 9.405304-23.786437 9.801277-23.687989 10.260693-23.687989 10.715733-23.687989 11.109518-23.786437 11.442047-23.983328 11.774577-24.175845 12.030537-24.449307 12.209928-24.803713 12.393694-25.15812 12.485577-25.575968 12.485577-26.05726 12.485577-26.542929 12.393694-26.965155 12.209928-27.323937 12.030537-27.678345 11.774577-27.95399 11.442047-28.150883 11.109518-28.347775 10.715733-28.446225 10.260693-28.446225 9.801277-28.446225 9.405304-28.347775 9.072775-28.150883 8.744621-27.95399 8.490848-27.678345 8.311457-27.323937 8.132066-26.965155 8.04237-26.545117 8.04237-26.063824ZM8.928387-26.063824C8.928387-26.584496 9.039959-26.991406 9.263103-27.284558 9.486248-27.57771 9.818779-27.724286 10.260693-27.724286 10.689481-27.724286 11.019822-27.57771 11.251718-27.284558 11.483613-26.991406 11.599561-26.584496 11.599561-26.063824 11.599561-25.538777 11.483613-25.131867 11.251718-24.84309 11.024198-24.554314 10.693856-24.409928 10.260693-24.409928 9.818779-24.409928 9.486248-24.554314 9.263103-24.84309 9.039959-25.131867 8.928387-25.538777 8.928387-26.063824Z"/>
<path transform="matrix(1,0,0,-1,25,59.41211)" d="M13.556076-28.51194V-23.884966H14.192696L16.876996-27.356837H16.706357V-23.884966H17.493927V-28.51194H16.857308L14.179569-25.04007H14.343646V-28.51194H13.556076Z"/>
<path transform="matrix(1,0,0,-1,25,59.543458)" d="M20.321846-28.446225C19.949938-28.446225 19.606469-28.400284 19.291441-28.3084 18.98079-28.21214 18.71389-28.080876 18.490746-27.914612L18.75327-27.251744C18.902033-27.356755 19.057358-27.446446 19.219248-27.520829 19.381138-27.590836 19.553967-27.645527 19.737732-27.684906 19.921498-27.71991 20.116204-27.737408 20.321846-27.737408 20.667502-27.737408 20.916897-27.68053 21.070036-27.566769 21.223176-27.453007 21.299746-27.304245 21.299746-27.12048 21.299746-26.95859 21.24724-26.836079 21.142231-26.752947 21.037222-26.66544 20.849081-26.593247 20.577807-26.536366L19.836178-26.385415C19.411767-26.297907 19.094548-26.15133 18.88453-25.945689 18.674511-25.740046 18.569504-25.464396 18.569504-25.11874 18.569504-24.829964 18.64607-24.578379 18.79921-24.363986 18.952349-24.149592 19.166743-23.983328 19.442393-23.865193 19.718043-23.747057 20.039633-23.687989 20.407166-23.687989 20.73532-23.687989 21.039408-23.736119 21.319434-23.832377 21.599459-23.92426 21.833542-24.057707 22.021683-24.232724L21.759161-24.86278C21.571019-24.705265 21.365376-24.589318 21.142231-24.514937 20.919087-24.43618 20.66969-24.396801 20.39404-24.396801 20.083388-24.396801 19.840554-24.458056 19.665537-24.580567 19.494896-24.698702 19.409577-24.862782 19.409577-25.0728 19.409577-25.23469 19.462082-25.363762 19.567091-25.46002 19.676476-25.556279 19.86024-25.63066 20.11839-25.683165L20.853455-25.827553C21.290993-25.91506 21.614773-26.059449 21.824791-26.260716 22.03481-26.457608 22.139819-26.724509 22.139819-27.061413 22.139819-27.337063 22.065438-27.579895 21.916674-27.789914 21.76791-27.995556 21.557894-28.157444 21.28662-28.275582 21.015345-28.389344 20.693755-28.446225 20.321846-28.446225Z"/>
<path transform="matrix(1,0,0,-1,25,59.478029)" d="M25.063878-28.511654C24.403195-28.511654 23.910962-28.347577 23.587183-28.01942 23.26778-27.68689 23.108078-27.19685 23.108078-26.549292V-23.819048H23.954716V-26.542729C23.954716-26.954016 24.042223-27.264668 24.21724-27.474686 24.39663-27.684704 24.678843-27.789715 25.063878-27.789715 25.43141-27.789715 25.70706-27.684704 25.890826-27.474686 26.078967-27.264668 26.173037-26.954016 26.173037-26.542729V-23.819048H27.006548V-26.549292C27.006548-27.19685 26.842473-27.68689 26.514319-28.01942 26.19054-28.347577 25.70706-28.511654 25.063878-28.511654Z"/>
<path transform="matrix(1,0,0,-1,25,59.41211)" d="M28.189442-28.51194V-23.884966H29.03608V-27.796563H31.215022V-28.51194H28.189442Z"/>
<path transform="matrix(1,0,0,-1,25,59.41211)" d="M32.295885-28.51194V-24.580655H30.766682V-23.884966H34.671716V-24.580655H33.142518V-28.51194H32.295885Z"/>
<path transform="matrix(1,0,0,-1,25,59.41211)" d="M35.46677-28.51194V-23.884966H36.313409V-28.51194H35.46677Z"/>
<path transform="matrix(1,0,0,-1,25,59.41211)" d="M37.52876-28.51194V-23.884966H38.16538L40.849679-27.356837H40.67904V-23.884966H41.466608V-28.51194H40.82999L38.152254-25.04007H38.31633V-28.51194H37.52876Z"/>
<path transform="matrix(1,0,0,-1,25,59.543458)" d="M44.911458-28.446225C44.390787-28.446225 43.953248-28.349965 43.59884-28.157448 43.24443-27.964932 42.97753-27.691472 42.79814-27.337063 42.61875-26.982657 42.529058-26.562619 42.529058-26.07695 42.529058-25.586907 42.625318-25.164683 42.817834-24.810276 43.01035-24.451495 43.285997-24.175845 43.64478-23.983328 44.007936-23.786437 44.443288-23.687989 44.950834-23.687989 45.28774-23.687989 45.583078-23.73393 45.83685-23.825814 46.090623-23.91332 46.313768-24.042395 46.506284-24.213036L46.22407-24.869343C46.08406-24.759959 45.950609-24.672451 45.823724-24.60682 45.696836-24.54119 45.565576-24.495249 45.42994-24.468997 45.294305-24.438368 45.136789-24.423054 44.957399-24.423054 44.449853-24.423054 44.06482-24.56744 43.802297-24.856217 43.544149-25.140618 43.415075-25.549715 43.415075-26.083514 43.415075-26.617312 43.537584-27.02422 43.782606-27.304245 44.032-27.58427 44.42141-27.724286 44.950834-27.724286 45.130224-27.724286 45.309617-27.706784 45.489007-27.67178 45.67277-27.636776 45.852167-27.58646 46.02718-27.520829L45.869668-27.875233V-26.490424H44.78676V-25.873496H46.571916V-28.098378C46.35752-28.207764 46.101564-28.293084 45.804037-28.35434 45.506509-28.415596 45.208986-28.446225 44.911458-28.446225Z"/>
<path transform="matrix(1,0,0,-1,61.331056,13.349609)" d="M4.192832 8.885954C4.342507 9.346609 4.994212 9.346609 5.143888 8.885954L5.903164 6.549143C5.970101 6.343132 6.162079 6.203651 6.378692 6.203651H8.83576C9.320122 6.203651 9.521509 5.583843 9.129652 5.299143L7.141843 3.854915C6.966599 3.727592 6.89327 3.501909 6.960207 3.295897L7.719484 .959085C7.86916 .49843 7.341919 .115369 6.950062 .400069L4.962253 1.844298C4.787009 1.97162 4.549711 1.97162 4.374467 1.844298L2.386656 .400068C1.994799 .115368 1.46756 .498431 1.617236 .959086L2.376512 3.295897C2.443449 3.501908 2.37012 3.727592 2.194876 3.854914L.207066 5.299143C-.184791 5.583844 .016597 6.203651 .500959 6.203651H2.958027C3.17464 6.203651 3.366618 6.343132 3.433555 6.549143L4.192832 8.885954Z"/>
<path transform="matrix(1,0,0,-1,73.331058,13.349609)" d="M4.192832 8.885954C4.342507 9.346609 4.994212 9.346609 5.143888 8.885954L5.903164 6.549143C5.970101 6.343132 6.162079 6.203651 6.378692 6.203651H8.83576C9.320122 6.203651 9.521509 5.583843 9.129652 5.299143L7.141843 3.854915C6.966599 3.727592 6.89327 3.501909 6.960207 3.295897L7.719484 .959085C7.86916 .49843 7.341919 .115369 6.950062 .400069L4.962253 1.844298C4.787009 1.97162 4.549711 1.97162 4.374467 1.844298L2.386656 .400068C1.994799 .115368 1.46756 .498431 1.617236 .959086L2.376512 3.295897C2.443449 3.501908 2.37012 3.727592 2.194876 3.854914L.207066 5.299143C-.184791 5.583844 .016597 6.203651 .500959 6.203651H2.958027C3.17464 6.203651 3.366618 6.343132 3.433555 6.549143L4.192832 8.885954Z"/>
<path transform="matrix(1,0,0,-1,85.43359,13.386719)" d="M4.492912 9.023599C4.648303 9.471951 5.282382 9.471951 5.437773 9.0236L6.285665 6.577154C6.355426 6.375868 6.545063 6.240889 6.758095 6.240889H9.429753C9.921891 6.240889 10.117975 5.604692 9.711228 5.327643L7.606506 3.894045C7.419857 3.766912 7.341596 3.530446 7.41555 3.317065L8.232369 .960271C8.390077 .505234 7.876495 .112177 7.478465 .383289L5.246818 1.903339C5.076994 2.019012 4.853692 2.019012 4.683867 1.903339L2.452221 .383289C2.05419 .112177 1.540608 .505234 1.698315 .960271L2.515135 3.317064C2.589089 3.530445 2.510829 3.766912 2.32418 3.894045L.219456 5.327643C-.187291 5.604692 .008794 6.240889 .500932 6.240889H3.172589C3.385621 6.240889 3.575258 6.375868 3.64502 6.577153L4.492912 9.023599Z"/>
<path transform="matrix(1,0,0,-1,98.13086,13.349609)" d="M4.192832 8.885954C4.342507 9.346609 4.994212 9.346609 5.143888 8.885954L5.903164 6.549143C5.970101 6.343132 6.162079 6.203651 6.378692 6.203651H8.83576C9.320122 6.203651 9.521509 5.583843 9.129652 5.299143L7.141843 3.854915C6.966599 3.727592 6.89327 3.501909 6.960207 3.295897L7.719484 .959085C7.86916 .49843 7.341919 .115369 6.950062 .400069L4.962253 1.844298C4.787009 1.97162 4.549711 1.97162 4.374467 1.844298L2.386656 .400068C1.994799 .115368 1.46756 .498431 1.617236 .959086L2.376512 3.295897C2.443449 3.501908 2.37012 3.727592 2.194876 3.854914L.207066 5.299143C-.184791 5.583844 .016597 6.203651 .500959 6.203651H2.958027C3.17464 6.203651 3.366618 6.343132 3.433555 6.549143L4.192832 8.885954Z"/>
<path transform="matrix(1,0,0,-1,110.13086,13.349609)" d="M4.192832 8.885954C4.342507 9.346609 4.994212 9.346609 5.143888 8.885954L5.903164 6.549143C5.970101 6.343132 6.162079 6.203651 6.378692 6.203651H8.83576C9.320122 6.203651 9.521509 5.583843 9.129652 5.299143L7.141843 3.854915C6.966599 3.727592 6.89327 3.501909 6.960207 3.295897L7.719484 .959085C7.86916 .49843 7.341919 .115369 6.950062 .400069L4.962253 1.844298C4.787009 1.97162 4.549711 1.97162 4.374467 1.844298L2.386656 .400068C1.994799 .115368 1.46756 .498431 1.617236 .959086L2.376512 3.295897C2.443449 3.501908 2.37012 3.727592 2.194876 3.854914L.207066 5.299143C-.184791 5.583844 .016597 6.203651 .500959 6.203651H2.958027C3.17464 6.203651 3.366618 6.343132 3.433555 6.549143L4.192832 8.885954Z"/>
<path transform="matrix(1,0,0,-1,100,27)" d="M0 2H48V0H0V2Z"/>
<path transform="matrix(1,0,0,-1,100,33)" d="M0 2H23.000002V0H0V2Z"/>
</svg>
