<svg width="2241" height="333" viewBox="0 0 2241 333" fill="none" xmlns="http://www.w3.org/2000/svg">
<path d="M2220.05 4.54597C1968.54 -6.91194 1824.16 153.857 1804.02 145.435C1771.42 128.608 1685.86 24.4415 1665.51 94.5112C1640.98 179.045 1549.8 239.333 1434.8 248.346" stroke="black" stroke-width="1.5"/>
<path d="M3.31533 181.521C22.2158 122.474 98.8091 209.645 128.167 223.628C146.313 230.606 312.593 69.8814 656.137 123.211C790.422 144.569 901.234 169.587 1164.14 238.049" stroke="black" stroke-width="1.5"/>
<path d="M1255.9 275.207C1260.03 273.096 1262.46 269.196 1264.8 263.417C1266.64 268.024 1269.02 272.601 1273.93 275.155C1269.32 278.234 1267.31 280.228 1264.53 287.443C1264.35 284.158 1260.81 277.761 1255.9 275.207Z" stroke="black" stroke-width="1.5"/>
<path d="M1286.19 244.957C1297.31 238.449 1303.72 226.517 1309.73 208.864C1315.02 222.869 1321.75 236.776 1335.28 244.47C1322.92 253.936 1317.56 260.05 1310.4 282.091C1309.72 272.081 1299.72 252.651 1286.19 244.957Z" stroke="black" stroke-width="1.5"/>
</svg>
