<svg width="2560" height="350" viewBox="0 0 2560 350" fill="none" xmlns="http://www.w3.org/2000/svg">
<path d="M2339.88 4.54573C2088.36 -6.91219 1943.98 153.857 1923.85 145.435C1891.24 128.608 1805.68 24.4412 1785.34 94.511C1760.8 179.045 1669.63 239.333 1554.62 248.346" stroke="black" stroke-width="1.5"/>
<path d="M123.136 181.52C142.036 122.473 218.63 209.645 247.987 223.628C266.134 230.606 432.414 69.8809 775.957 123.21C910.243 144.569 1021.06 169.586 1283.97 238.049" stroke="black" stroke-width="1.5"/>
<path d="M1375.72 275.207C1379.85 273.096 1382.29 269.195 1384.62 263.417C1386.46 268.023 1388.84 272.601 1393.75 275.155C1389.15 278.233 1387.13 280.227 1384.35 287.443C1384.17 284.157 1380.64 277.761 1375.72 275.207Z" stroke="black" stroke-width="1.5"/>
<path d="M1406.02 244.957C1417.13 238.449 1423.54 226.516 1429.55 208.864C1434.84 222.869 1441.57 236.775 1455.1 244.469C1442.74 253.936 1437.38 260.049 1430.22 282.091C1429.54 272.08 1419.54 252.651 1406.02 244.957Z" stroke="black" stroke-width="1.5"/>
</svg>
