<svg width="176" height="230" viewBox="0 0 176 230" fill="none" xmlns="http://www.w3.org/2000/svg">
<path d="M2.00024 29.9144C10.9717 25.4287 16.5789 16.4572 22.1861 3C25.5504 14.2143 30.0361 25.4287 40.129 32.1573C30.0361 38.8859 25.5504 43.3716 18.8218 60.1931C18.8218 52.3431 12.0931 36.643 2.00024 29.9144Z" stroke="black" stroke-width="1.5"/>
<circle cx="171.942" cy="208.786" r="2.24287" transform="rotate(-24.4887 171.942 208.786)" stroke="black" stroke-width="1.5"/>
<circle cx="169.686" cy="85.2843" r="4.48574" transform="rotate(-24.4887 169.686 85.2843)" stroke="black" stroke-width="1.5"/>
<mask id="path-4-inside-1_162_1427" fill="white">
<path d="M42.5847 197.29C19.8963 179.752 15.7205 147.143 33.2578 124.455C50.7951 101.766 83.4045 97.5904 106.093 115.128C128.781 132.665 132.957 165.274 115.42 187.963C97.8824 210.651 65.2731 214.827 42.5847 197.29ZM86.7829 140.11C77.8915 133.237 65.1123 134.873 58.2396 143.765C51.367 152.656 53.0034 165.435 61.8947 172.308C70.786 179.181 83.5653 177.544 90.4379 168.653C97.3106 159.761 95.6742 146.982 86.7829 140.11Z"/>
</mask>
<path d="M42.5847 197.29C19.8963 179.752 15.7205 147.143 33.2578 124.455C50.7951 101.766 83.4045 97.5904 106.093 115.128C128.781 132.665 132.957 165.274 115.42 187.963C97.8824 210.651 65.2731 214.827 42.5847 197.29ZM86.7829 140.11C77.8915 133.237 65.1123 134.873 58.2396 143.765C51.367 152.656 53.0034 165.435 61.8947 172.308C70.786 179.181 83.5653 177.544 90.4379 168.653C97.3106 159.761 95.6742 146.982 86.7829 140.11Z" fill="white" stroke="black" stroke-width="3" mask="url(#path-4-inside-1_162_1427)"/>
<mask id="path-5-inside-2_162_1427" fill="white">
<path d="M42.0934 115.512C34.2511 121.726 28.3712 130.073 25.161 139.55C21.9508 149.027 21.5472 159.229 23.9985 168.93L54.6218 161.191C53.6617 157.392 53.8198 153.396 55.0771 149.684C56.3345 145.972 58.6375 142.703 61.7091 140.269L42.0934 115.512Z"/>
</mask>
<path d="M42.0934 115.512C34.2511 121.726 28.3712 130.073 25.161 139.55C21.9508 149.027 21.5472 159.229 23.9985 168.93L54.6218 161.191C53.6617 157.392 53.8198 153.396 55.0771 149.684C56.3345 145.972 58.6375 142.703 61.7091 140.269L42.0934 115.512Z" fill="#EBF3FF" stroke="black" stroke-width="3" mask="url(#path-5-inside-2_162_1427)"/>
<path d="M22.8366 162.804C24.141 172.99 28.4367 182.561 35.1803 190.305C41.924 198.05 50.8129 203.621 60.7228 206.314C70.6328 209.007 81.1187 208.701 90.8547 205.435C100.591 202.168 109.139 196.088 115.42 187.963L91.0224 169.105C88.4719 172.404 85.0001 174.874 81.0462 176.2C77.0922 177.527 72.8337 177.651 68.8091 176.557C64.7845 175.464 61.1746 173.201 58.4359 170.056C55.6972 166.911 53.9527 163.024 53.4229 158.887L22.8366 162.804Z" fill="black"/>
</svg>
