<svg width="150" height="150" viewBox="0 0 150 150" fill="none" xmlns="http://www.w3.org/2000/svg">
<circle cx="75" cy="75" r="75" fill="#EBF3FF"/>
<path d="M63.3243 33.2877L63.762 49.7803L58.5102 50.5133L57.1973 18.9941C64.1996 21.9262 79.6632 40.2513 86.5197 49.0473L80.8303 47.9478C76.8914 42.4503 72.0773 36.5862 67.7008 32.9212L63.3243 33.2877Z" fill="black" stroke="black" stroke-width="1.5"/>
<path fill-rule="evenodd" clip-rule="evenodd" d="M77.7678 47.2148L59.8242 50.1469V139.51C61.2484 139.432 62.7103 139.426 64.1999 139.51C74.9487 140.114 78.1976 141.349 80.3602 142.171C80.5221 142.233 80.678 142.292 80.8305 142.349C83.4902 141.352 87.5242 140.409 91.9974 140.12C94.6975 128.923 95.6851 110.12 93.5231 94.1271C90.8972 74.7025 83.8949 58.9429 77.7678 47.2148Z" fill="#EBF3FF"/>
<path d="M59.8242 50.1469L59.7033 49.4067C59.3406 49.4659 59.0742 49.7793 59.0742 50.1469H59.8242ZM77.7678 47.2148L78.4325 46.8676C78.2828 46.5809 77.9661 46.4225 77.6469 46.4747L77.7678 47.2148ZM59.8242 139.51H59.0742C59.0742 139.716 59.159 139.913 59.3086 140.054C59.4582 140.196 59.6595 140.27 59.8652 140.259L59.8242 139.51ZM64.1999 139.51L64.1578 140.259H64.1578L64.1999 139.51ZM80.3602 142.171L80.6267 141.47H80.6267L80.3602 142.171ZM80.8305 142.349L80.5698 143.052C80.7389 143.115 80.9248 143.114 81.0936 143.051L80.8305 142.349ZM91.9974 140.12L92.0458 140.868C92.3736 140.847 92.6495 140.615 92.7265 140.296L91.9974 140.12ZM93.5231 94.1271L94.2664 94.0266L93.5231 94.1271ZM59.9452 50.887L77.8887 47.955L77.6469 46.4747L59.7033 49.4067L59.9452 50.887ZM60.5742 139.51V50.1469H59.0742V139.51H60.5742ZM64.2419 138.761C62.7232 138.676 61.2335 138.681 59.7832 138.761L59.8652 140.259C61.2633 140.182 62.6974 140.177 64.1578 140.259L64.2419 138.761ZM80.6267 141.47C78.3817 140.617 75.0554 139.368 64.2419 138.761L64.1578 140.259C74.8419 140.859 78.0136 142.081 80.0936 142.872L80.6267 141.47ZM81.0912 141.646C80.9422 141.59 80.7893 141.532 80.6267 141.47L80.0936 142.872C80.255 142.934 80.4139 142.994 80.5698 143.052L81.0912 141.646ZM91.949 139.371C87.4083 139.665 83.3014 140.622 80.5674 141.646L81.0936 143.051C83.6791 142.083 87.6402 141.153 92.0458 140.868L91.949 139.371ZM92.7799 94.2276C94.9311 110.141 93.9438 128.849 91.2683 139.944L92.7265 140.296C95.4513 128.997 96.439 110.098 94.2664 94.0266L92.7799 94.2276ZM77.103 47.5621C83.211 59.2536 90.1705 74.9251 92.7799 94.2276L94.2664 94.0266C91.624 74.4799 84.5787 58.6322 78.4325 46.8676L77.103 47.5621Z" fill="black"/>
<path d="M39.2539 146.001C42.7551 143.567 52.6459 138.863 64.1999 139.512C75.7538 140.161 78.6423 141.54 80.8305 142.351C87.687 139.782 103.676 137.565 112.779 146.001" stroke="black" stroke-width="1.5"/>
<path d="M27 85.6794C29.0837 84.6351 33.6758 83.3146 35.3743 86.3869C36.0033 84.972 38.5353 82.3848 43.6306 83.355" stroke="black" stroke-width="1.5" stroke-linejoin="round"/>
<path d="M36.6289 93.2208C37.9596 93.0468 40.762 93.2208 41.3256 95.3082C42.0693 94.1253 44.0967 92.0518 46.2572 93.2208" stroke="black" stroke-width="1.5" stroke-linejoin="round"/>
<path d="M114.016 41.2132C118.855 40.4515 120.64 44.7043 120.928 46.9259C126.803 45.4025 128.272 49.7823 128.272 52.1626L98.4648 52.1627C98.4648 49.1159 101.057 48.9889 102.353 49.3063C102.353 48.8302 102.439 47.2116 104.513 46.4499C106.586 45.6882 107.681 47.5607 107.969 48.3542C107.969 46.2912 109.178 41.9749 114.016 41.2132Z" fill="#EBF3FF" stroke="black" stroke-width="1.5" stroke-linejoin="round"/>
<path d="M119.982 58.0742H138.801" stroke="black" stroke-width="1.5" stroke-linejoin="round"/>
<path fill-rule="evenodd" clip-rule="evenodd" d="M92.1159 140.112C94.9578 129.469 97.3218 107.866 90.897 82.399C84.3323 56.3774 77.7676 47.2148 77.7676 47.2148L86.5205 49.0473C91.6264 55.1557 102.801 72.5035 106.652 93.0276C110.152 111.676 106.931 131.534 104.343 141.331C100.36 140.136 96.0702 139.867 92.1159 140.112Z" fill="black"/>
<path d="M90.897 82.399L90.1698 82.5825L90.897 82.399ZM92.1159 140.112L91.3913 139.919C91.3291 140.152 91.3827 140.401 91.5355 140.587C91.6883 140.774 91.9215 140.876 92.1623 140.861L92.1159 140.112ZM77.7676 47.2148L77.9213 46.4808C77.6186 46.4174 77.3082 46.5462 77.1393 46.8052C76.9704 47.0642 76.9778 47.4003 77.1579 47.6517L77.7676 47.2148ZM86.5205 49.0473L87.096 48.5663C86.9878 48.437 86.8393 48.3478 86.6742 48.3132L86.5205 49.0473ZM106.652 93.0276L107.389 92.8892L106.652 93.0276ZM104.343 141.331L104.128 142.05C104.322 142.108 104.532 142.085 104.71 141.986C104.887 141.886 105.016 141.719 105.068 141.523L104.343 141.331ZM90.1698 82.5825C96.5615 107.918 94.2022 129.391 91.3913 139.919L92.8405 140.306C95.7133 129.547 98.0822 107.814 91.6242 82.2156L90.1698 82.5825ZM77.7676 47.2148C77.1579 47.6517 77.1577 47.6514 77.1576 47.6512C77.1576 47.6512 77.1575 47.6511 77.1575 47.651C77.1574 47.651 77.1575 47.651 77.1576 47.6513C77.1579 47.6517 77.1586 47.6527 77.1597 47.6542C77.1619 47.6574 77.1657 47.6627 77.1711 47.6704C77.1818 47.6858 77.1987 47.7103 77.2217 47.7443C77.2676 47.8122 77.3376 47.9177 77.4303 48.0628C77.6155 48.3531 77.8909 48.8015 78.2436 49.4232C78.949 50.6665 79.9637 52.603 81.1851 55.3532C83.6278 60.8537 86.8968 69.6088 90.1698 82.5825L91.6242 82.2156C88.3325 69.1676 85.0368 60.3307 82.556 54.7444C81.3155 51.9513 80.2788 49.9708 79.5482 48.683C79.1829 48.0391 78.8941 47.5684 78.6947 47.2559C78.595 47.0996 78.5176 46.9829 78.4642 46.9039C78.4374 46.8644 78.4167 46.8343 78.4021 46.8134C78.3949 46.803 78.3891 46.7948 78.385 46.7889C78.3829 46.786 78.3812 46.7836 78.3799 46.7818C78.3793 46.7809 78.3787 46.7801 78.3783 46.7795C78.3781 46.7792 78.3778 46.7788 78.3777 46.7787C78.3775 46.7783 78.3772 46.778 77.7676 47.2148ZM86.6742 48.3132L77.9213 46.4808L77.6139 47.9489L86.3669 49.7814L86.6742 48.3132ZM107.389 92.8892C103.509 72.2092 92.2624 54.747 87.096 48.5663L85.9451 49.5283C90.9905 55.5643 102.093 72.7977 105.915 93.1659L107.389 92.8892ZM105.068 141.523C107.672 131.666 110.917 111.687 107.389 92.8892L105.915 93.1659C109.386 111.664 106.19 131.401 103.618 141.14L105.068 141.523ZM104.559 140.613C100.468 139.385 96.0851 139.115 92.0695 139.364L92.1623 140.861C96.0554 140.62 100.252 140.886 104.128 142.05L104.559 140.613Z" fill="black"/>
<path fill-rule="evenodd" clip-rule="evenodd" d="M59.3862 26.6916L60.3321 58.3741L75.4185 55.1346C69.8306 42.6723 63.4609 32.3156 59.3862 26.6916ZM61.2393 88.7645L60.4246 61.4751L76.7016 58.0673C80.2624 66.415 83.3875 75.5751 85.2181 84.8142L61.2393 88.7645ZM61.3309 91.831L62.2975 124.212L87.4925 121.693C87.8232 113.949 87.6571 104.461 86.5204 93.395C86.3365 91.6041 86.0936 89.8076 85.7982 88.0109L61.3309 91.831ZM62.7527 139.458L62.3875 127.227L87.3303 124.769C86.8726 132.037 85.9825 137.536 85.1344 141.101C86.9718 140.689 89.045 140.357 91.2395 140.177C93.7329 127.911 94.1263 109.147 92.2099 92.2955C89.584 69.2058 75.7261 33.9476 59.3862 20.8275V8L55.0098 10.2035V140.055C57.4438 139.641 60.0458 139.408 62.7527 139.458Z" fill="white"/>
<path d="M60.3321 58.3741L59.5824 58.3965C59.589 58.619 59.6942 58.8271 59.8694 58.9644C60.0447 59.1018 60.2719 59.1541 60.4895 59.1074L60.3321 58.3741ZM59.3862 26.6916L59.9936 26.2516C59.8004 25.985 59.456 25.8755 59.1443 25.9817C58.8327 26.0879 58.6268 26.3849 58.6366 26.714L59.3862 26.6916ZM75.4185 55.1346L75.576 55.8679C75.7973 55.8204 75.9853 55.6755 76.0876 55.4736C76.1899 55.2716 76.1955 55.0343 76.1029 54.8278L75.4185 55.1346ZM60.4246 61.4751L60.271 60.741C59.9153 60.8155 59.6641 61.1342 59.675 61.4975L60.4246 61.4751ZM61.2393 88.7645L60.4896 88.7869C60.4961 89.0031 60.5956 89.206 60.7626 89.3435C60.9296 89.481 61.1478 89.5397 61.3612 89.5045L61.2393 88.7645ZM76.7016 58.0673L77.3914 57.7731C77.2511 57.4441 76.898 57.26 76.5479 57.3333L76.7016 58.0673ZM85.2181 84.8142L85.34 85.5542C85.5404 85.5212 85.7189 85.4083 85.8346 85.2413C85.9502 85.0744 85.9933 84.8677 85.9538 84.6684L85.2181 84.8142ZM62.2975 124.212L61.5479 124.235C61.5541 124.443 61.6464 124.639 61.8026 124.776C61.9589 124.913 62.1652 124.979 62.3722 124.959L62.2975 124.212ZM61.3309 91.831L61.2152 91.09C60.8416 91.1483 60.5699 91.4755 60.5812 91.8534L61.3309 91.831ZM87.4925 121.693L87.5671 122.439C87.9384 122.402 88.2259 122.098 88.2418 121.725L87.4925 121.693ZM86.5204 93.395L85.7744 93.4716L86.5204 93.395ZM85.7982 88.0109L86.5382 87.8892C86.4714 87.4828 86.0894 87.2064 85.6825 87.2699L85.7982 88.0109ZM62.3875 127.227L62.314 126.48C61.9216 126.519 61.6261 126.855 61.6379 127.249L62.3875 127.227ZM62.7527 139.458L62.7387 140.208C62.9439 140.212 63.1417 140.131 63.286 139.985C63.4303 139.839 63.5085 139.641 63.5023 139.436L62.7527 139.458ZM87.3303 124.769L88.0788 124.816C88.0927 124.597 88.0094 124.382 87.8512 124.23C87.693 124.077 87.4757 124.001 87.2568 124.023L87.3303 124.769ZM85.1344 141.101L84.4048 140.927C84.3449 141.179 84.4189 141.443 84.6006 141.628C84.7823 141.812 85.046 141.889 85.2984 141.833L85.1344 141.101ZM91.2395 140.177L91.3006 140.925C91.6333 140.898 91.9079 140.654 91.9744 140.327L91.2395 140.177ZM92.2099 92.2955L92.9551 92.2107L92.2099 92.2955ZM59.3862 20.8275H58.6362C58.6362 21.0549 58.7394 21.27 58.9167 21.4124L59.3862 20.8275ZM59.3862 8H60.1362C60.1362 7.73969 60.0013 7.498 59.7797 7.36146C59.558 7.22492 59.2815 7.21306 59.049 7.33012L59.3862 8ZM55.0098 10.2035L54.6725 9.53363C54.4194 9.66104 54.2598 9.92018 54.2598 10.2035H55.0098ZM55.0098 140.055H54.2598C54.2598 140.276 54.3572 140.486 54.526 140.628C54.6948 140.771 54.9179 140.832 55.1357 140.795L55.0098 140.055ZM61.0817 58.3517L60.1359 26.6692L58.6366 26.714L59.5824 58.3965L61.0817 58.3517ZM75.2611 54.4014L60.1746 57.6408L60.4895 59.1074L75.576 55.8679L75.2611 54.4014ZM58.7789 27.1316C62.8231 32.7134 69.167 43.0255 74.7342 55.4415L76.1029 54.8278C70.4942 42.3191 64.0988 31.9177 59.9936 26.2516L58.7789 27.1316ZM59.675 61.4975L60.4896 88.7869L61.989 88.7421L61.1743 61.4527L59.675 61.4975ZM76.5479 57.3333L60.271 60.741L60.5783 62.2092L76.8553 58.8014L76.5479 57.3333ZM85.9538 84.6684C84.1105 75.3654 80.9667 66.1546 77.3914 57.7731L76.0117 58.3616C79.5581 66.6754 82.6645 75.7848 84.4824 84.96L85.9538 84.6684ZM61.3612 89.5045L85.34 85.5542L85.0962 84.0742L61.1174 88.0245L61.3612 89.5045ZM63.0472 124.19L62.0805 91.8087L60.5812 91.8534L61.5479 124.235L63.0472 124.19ZM87.4179 120.947L62.2229 123.466L62.3722 124.959L87.5671 122.439L87.4179 120.947ZM85.7744 93.4716C86.9073 104.501 87.0723 113.953 86.7432 121.661L88.2418 121.725C88.574 113.944 88.4068 104.42 87.2665 93.3183L85.7744 93.4716ZM85.0581 88.1326C85.3513 89.9153 85.5921 91.6967 85.7744 93.4716L87.2665 93.3183C87.0809 91.5114 86.836 89.6999 86.5382 87.8892L85.0581 88.1326ZM61.4466 92.5721L85.9139 88.7519L85.6825 87.2699L61.2152 91.09L61.4466 92.5721ZM61.6379 127.249L62.003 139.48L63.5023 139.436L63.1372 127.204L61.6379 127.249ZM87.2568 124.023L62.314 126.48L62.4611 127.973L87.4039 125.516L87.2568 124.023ZM85.864 141.274C86.7237 137.661 87.6189 132.118 88.0788 124.816L86.5818 124.722C86.1262 131.955 85.2413 137.411 84.4048 140.927L85.864 141.274ZM91.1783 139.43C88.9479 139.612 86.8404 139.95 84.9705 140.369L85.2984 141.833C87.1032 141.428 89.1421 141.101 91.3006 140.925L91.1783 139.43ZM91.4647 92.3802C93.3751 109.179 92.978 127.86 90.5045 140.028L91.9744 140.327C94.4879 127.962 94.8776 109.115 92.9551 92.2107L91.4647 92.3802ZM58.9167 21.4124C66.9441 27.858 74.4341 39.8184 80.2536 53.1235C86.065 66.4098 90.1618 80.9238 91.4647 92.3802L92.9551 92.2107C91.6321 80.5775 87.487 65.9176 81.6279 52.5224C75.7771 39.1459 68.1682 26.9172 59.8558 20.2427L58.9167 21.4124ZM58.6362 8V20.8275H60.1362V8H58.6362ZM55.347 10.8734L59.7235 8.66988L59.049 7.33012L54.6725 9.53363L55.347 10.8734ZM55.7598 140.055V10.2035H54.2598V140.055H55.7598ZM62.7666 138.708C60.008 138.657 57.3589 138.894 54.8838 139.316L55.1357 140.795C57.5286 140.387 60.0836 140.158 62.7387 140.208L62.7666 138.708Z" fill="black"/>
</svg>
