<svg width="151" height="150" viewBox="0 0 151 150" fill="none" xmlns="http://www.w3.org/2000/svg">
<circle cx="75.333" cy="75" r="75" fill="#EBF3FF"/>
<path d="M58.5146 102.122L98.5147 17.2734" stroke="black" stroke-width="1.5"/>
<path fill-rule="evenodd" clip-rule="evenodd" d="M79.5373 130.001C92.0945 130.001 102.274 127.597 102.274 124.632C102.274 124.526 102.261 124.42 102.235 124.316H102.274L102.148 124.064C102.128 124.019 102.105 123.973 102.08 123.928L100.064 119.895H90.2408C87.0509 119.492 83.407 119.264 79.5373 119.264C75.6675 119.264 72.0536 119.492 68.9053 119.895H59.0109L57.1162 124.316H57.1539C57.1289 124.42 57.1162 124.526 57.1162 124.632C57.1162 127.597 66.9801 130.001 79.5373 130.001Z" fill="black"/>
<path d="M102.235 124.316V123.566C102.005 123.566 101.787 123.672 101.645 123.853C101.503 124.034 101.452 124.271 101.507 124.495L102.235 124.316ZM102.274 124.316V125.066C102.534 125.066 102.775 124.931 102.912 124.71C103.049 124.489 103.061 124.213 102.945 123.98L102.274 124.316ZM102.148 124.064L101.463 124.369C101.468 124.379 101.472 124.389 101.477 124.399L102.148 124.064ZM102.08 123.928L101.41 124.264C101.414 124.273 101.419 124.283 101.425 124.292L102.08 123.928ZM100.064 119.895L100.734 119.559C100.607 119.305 100.348 119.145 100.064 119.145V119.895ZM90.2408 119.895L90.1468 120.639C90.178 120.643 90.2094 120.645 90.2408 120.645V119.895ZM68.9053 119.895V120.645C68.9371 120.645 68.9688 120.643 69.0004 120.638L68.9053 119.895ZM59.0109 119.895V119.145C58.7109 119.145 58.4398 119.323 58.3216 119.599L59.0109 119.895ZM57.1162 124.316L56.4269 124.02C56.3275 124.252 56.3513 124.518 56.4901 124.728C56.6289 124.939 56.8641 125.066 57.1162 125.066V124.316ZM57.1539 124.316L57.8834 124.49C57.9367 124.266 57.8848 124.031 57.7426 123.851C57.6004 123.671 57.3834 123.566 57.1539 123.566V124.316ZM101.524 124.632C101.524 124.923 101.248 125.438 100.122 126.067C99.0583 126.66 97.4698 127.219 95.4423 127.698C91.3992 128.653 85.7755 129.251 79.5373 129.251V130.751C85.8562 130.751 91.601 130.146 95.787 129.158C97.874 128.665 99.6152 128.068 100.853 127.377C102.027 126.721 103.024 125.823 103.024 124.632H101.524ZM101.507 124.495C101.519 124.543 101.524 124.588 101.524 124.632H103.024C103.024 124.464 103.003 124.298 102.964 124.136L101.507 124.495ZM102.235 125.066H102.274V123.566H102.235V125.066ZM102.945 123.98L102.819 123.729L101.477 124.399L101.603 124.651L102.945 123.98ZM101.425 124.292C101.439 124.319 101.452 124.345 101.463 124.369L102.833 123.759C102.804 123.693 102.771 123.628 102.736 123.564L101.425 124.292ZM102.751 123.593L100.734 119.559L99.3928 120.23L101.41 124.264L102.751 123.593ZM100.064 119.145H90.2408V120.645H100.064V119.145ZM79.5373 120.014C83.3786 120.014 86.9911 120.24 90.1468 120.639L90.3347 119.15C87.1108 118.744 83.4354 118.514 79.5373 118.514V120.014ZM69.0004 120.638C72.1139 120.24 75.6959 120.014 79.5373 120.014V118.514C75.6392 118.514 71.9932 118.744 68.8101 119.151L69.0004 120.638ZM68.9053 119.145H59.0109V120.645H68.9053V119.145ZM58.3216 119.599L56.4269 124.02L57.8056 124.611L59.7003 120.19L58.3216 119.599ZM57.1162 125.066H57.1539V123.566H57.1162V125.066ZM57.8662 124.632C57.8662 124.586 57.8716 124.539 57.8834 124.49L56.4244 124.141C56.3861 124.302 56.3662 124.466 56.3662 124.632H57.8662ZM79.5373 129.251C73.2989 129.251 67.7556 128.653 63.7933 127.699C61.8063 127.221 60.2589 126.663 59.2265 126.071C58.1383 125.447 57.8662 124.934 57.8662 124.632H56.3662C56.3662 125.813 57.3271 126.711 58.4808 127.372C59.6903 128.065 61.3937 128.664 63.4423 129.157C67.5512 130.146 73.2184 130.751 79.5373 130.751V129.251Z" fill="black"/>
<ellipse cx="79.1207" cy="119.698" rx="20.6061" ry="4.24242" fill="white" stroke="black" stroke-width="1.5"/>
<path d="M79.1201 109.395V119.092" stroke="black" stroke-width="1.5"/>
<ellipse cx="76.6963" cy="60.3021" rx="40" ry="39.3939" fill="#EBF3FF" stroke="black" stroke-width="1.5"/>
<path fill-rule="evenodd" clip-rule="evenodd" d="M101.832 90.9485C110.899 83.7266 116.696 72.6812 116.696 60.3022C116.696 51.0695 113.471 42.5787 108.07 35.8627C101.565 37.3329 95.4519 42.3891 92.7629 44.8743C90.3298 47.123 94.1895 49.6218 97.6043 51.8326C99.5913 53.119 101.428 54.3078 101.786 55.2932C103.415 59.7706 105.982 62.4073 108.018 64.4982C111.288 67.8567 113.186 69.8068 107.625 75.7144C104.154 79.4008 102.152 81.5686 101.832 90.8107C101.83 90.8571 101.83 90.9031 101.832 90.9485Z" fill="white"/>
<path d="M101.832 90.9485L101.082 90.9738L101.132 92.4643L102.299 91.5352L101.832 90.9485ZM108.07 35.8627L108.655 35.3926L108.361 35.028L107.905 35.1311L108.07 35.8627ZM92.7629 44.8743L93.272 45.425L92.7629 44.8743ZM97.6043 51.8326L97.1967 52.4622V52.4622L97.6043 51.8326ZM101.786 55.2932L102.491 55.0367L101.786 55.2932ZM108.018 64.4982L107.481 65.0213L108.018 64.4982ZM107.625 75.7144L108.171 76.2284L107.625 75.7144ZM101.832 90.8107L101.082 90.7847L101.082 90.7847L101.832 90.8107ZM115.946 60.3022C115.946 72.4407 110.262 83.2745 101.364 90.3619L102.299 91.5352C111.535 84.1787 117.446 72.9217 117.446 60.3022H115.946ZM107.486 36.3327C112.784 42.9211 115.946 51.2476 115.946 60.3022H117.446C117.446 50.8914 114.158 42.2362 108.655 35.3926L107.486 36.3327ZM93.272 45.425C95.9512 42.9489 101.939 38.0173 108.236 36.5942L107.905 35.1311C101.191 36.6485 94.9527 41.8292 92.2539 44.3235L93.272 45.425ZM98.0119 51.203C96.2746 50.0782 94.5512 48.9561 93.5426 47.8598C93.0388 47.3123 92.8013 46.8621 92.7569 46.5064C92.72 46.2109 92.8011 45.8603 93.272 45.425L92.2539 44.3235C91.5083 45.0126 91.1593 45.8176 91.2685 46.6922C91.3702 47.5066 91.8548 48.2409 92.4387 48.8755C93.6053 50.1434 95.5192 51.3762 97.1967 52.4622L98.0119 51.203ZM102.491 55.0367C102.352 54.6542 102.093 54.3084 101.808 54.0043C101.516 53.6939 101.157 53.3855 100.764 53.0823C99.9822 52.478 98.9973 51.841 98.0119 51.203L97.1967 52.4622C98.1983 53.1106 99.125 53.7112 99.8474 54.2693C100.207 54.5473 100.498 54.8012 100.714 55.031C100.936 55.2672 101.041 55.4396 101.081 55.5497L102.491 55.0367ZM108.555 63.975C106.528 61.8922 104.062 59.3528 102.491 55.0367L101.081 55.5497C102.769 60.1884 105.437 62.9224 107.481 65.0213L108.555 63.975ZM108.171 76.2284C110.964 73.2616 112.108 71.0731 111.878 69.0652C111.764 68.0647 111.316 67.1983 110.722 66.3918C110.134 65.5947 109.362 64.8041 108.555 63.975L107.481 65.0213C108.308 65.8715 109 66.5841 109.514 67.2818C110.022 67.9702 110.314 68.5902 110.388 69.2355C110.535 70.5192 109.847 72.2596 107.079 75.2003L108.171 76.2284ZM102.581 90.8367C102.74 86.2591 103.314 83.518 104.231 81.4878C105.146 79.4599 106.427 78.0806 108.171 76.2284L107.079 75.2003C105.352 77.0346 103.897 78.5825 102.864 80.8705C101.831 83.1564 101.244 86.1203 101.082 90.7847L102.581 90.8367ZM102.581 90.9232C102.58 90.8949 102.58 90.866 102.581 90.8367L101.082 90.7847C101.08 90.8482 101.08 90.9113 101.082 90.9738L102.581 90.9232Z" fill="black"/>
<path fill-rule="evenodd" clip-rule="evenodd" d="M73.9847 67.8597C73.9868 67.379 73.9374 66.9196 73.8383 66.499C72.8291 62.2158 70.8193 59.2692 69.1358 56.801C67.4806 54.3744 66.1408 52.4101 66.3774 50.0925C66.6383 47.5366 63.788 47.0285 61.2572 46.5774C59.159 46.2034 57.2804 45.8685 57.5764 44.4382C58.2296 41.2829 65.8581 36.8069 73.8383 35.37C81.8185 33.9331 84.0376 31.1098 83.242 28.6354C83.0662 28.0884 82.8052 27.4509 82.5245 26.7653C81.808 25.0151 80.963 22.9512 81.0775 21.2778C79.8851 21.1398 78.676 21.0549 77.4525 21.0252C55.664 20.4978 37.5734 37.7334 37.046 59.5218C36.6625 75.3657 45.6715 89.2542 58.9937 95.8561C60.0764 95.0016 60.9973 93.5618 60.9598 91.2699C60.9563 91.0532 59.3609 88.3764 57.7565 85.6846C56.1319 82.9587 54.498 80.2174 54.4983 79.999C54.5003 78.563 55.1854 77.8763 56.2393 77.5541C57.655 77.1213 59.266 76.7504 60.9262 76.3681C67.1026 74.9461 73.9607 73.3671 73.9847 67.8597Z" fill="white"/>
<path d="M73.8383 66.499L73.1083 66.671L73.1083 66.671L73.8383 66.499ZM73.9847 67.8597L74.7347 67.8629L74.7347 67.8629L73.9847 67.8597ZM69.1358 56.801L68.5162 57.2237L69.1358 56.801ZM66.3774 50.0925L67.1235 50.1687L66.3774 50.0925ZM61.2572 46.5774L61.3888 45.839L61.2572 46.5774ZM57.5764 44.4382L56.842 44.2862L56.842 44.2862L57.5764 44.4382ZM73.8383 35.37L73.7054 34.6319L73.8383 35.37ZM83.242 28.6354L82.528 28.865L82.528 28.865L83.242 28.6354ZM82.5245 26.7653L81.8304 27.0494L81.8304 27.0494L82.5245 26.7653ZM81.0775 21.2778L81.8258 21.3289C81.8531 20.9293 81.5616 20.5787 81.1637 20.5327L81.0775 21.2778ZM58.9937 95.8561L58.6607 96.5281C58.9204 96.6568 59.2309 96.6243 59.4584 96.4448L58.9937 95.8561ZM60.9598 91.2699L61.7097 91.2576L61.7097 91.2576L60.9598 91.2699ZM57.7565 85.6846L58.4008 85.3006L57.7565 85.6846ZM54.4983 79.999L55.2483 80.0001L55.2483 80.0001L54.4983 79.999ZM56.2393 77.5541L56.4586 78.2713L56.2393 77.5541ZM60.9262 76.3681L60.7579 75.6373L60.9262 76.3681ZM73.1083 66.671C73.1924 67.028 73.2366 67.4281 73.2347 67.8564L74.7347 67.8629C74.737 67.3299 74.6824 66.8111 74.5683 66.327L73.1083 66.671ZM68.5162 57.2237C70.1979 59.6892 72.1339 62.5354 73.1083 66.671L74.5683 66.327C73.5243 61.8962 71.4407 58.8493 69.7554 56.3784L68.5162 57.2237ZM65.6312 50.0163C65.3614 52.6592 66.9069 54.8643 68.5162 57.2237L69.7554 56.3784C68.0543 53.8845 66.9201 52.161 67.1235 50.1687L65.6312 50.0163ZM61.1256 47.3157C62.4246 47.5473 63.6485 47.7721 64.5262 48.2152C64.9513 48.4298 65.2404 48.6703 65.4151 48.9381C65.5811 49.1926 65.6811 49.5281 65.6312 50.0163L67.1235 50.1687C67.2041 49.379 67.0457 48.6925 66.6715 48.1187C66.3061 47.5584 65.7734 47.1645 65.2021 46.8761C64.0873 46.3134 62.6207 46.0586 61.3888 45.839L61.1256 47.3157ZM56.842 44.2862C56.7308 44.8233 56.8187 45.328 57.1177 45.7541C57.3956 46.1502 57.8074 46.4081 58.214 46.5891C59.0115 46.944 60.1115 47.135 61.1256 47.3157L61.3888 45.839C60.3047 45.6458 59.4163 45.4823 58.8239 45.2187C58.5357 45.0904 58.4021 44.9731 58.3455 44.8924C58.31 44.8418 58.274 44.7683 58.3109 44.5903L56.842 44.2862ZM73.7054 34.6319C69.6306 35.3656 65.6485 36.8732 62.5898 38.6073C61.0608 39.4741 59.7424 40.4089 58.7539 41.3487C57.7834 42.2713 57.0516 43.2734 56.842 44.2862L58.3109 44.5903C58.4278 44.0254 58.8945 43.2847 59.7874 42.4358C60.6624 41.6039 61.8723 40.7383 63.3296 39.9121C66.2435 38.2601 70.0658 36.8113 73.9712 36.1082L73.7054 34.6319ZM82.528 28.865C82.6808 29.3402 82.6856 29.8131 82.5222 30.2832C82.3564 30.7599 82.0004 31.2816 81.3547 31.8125C80.0474 32.8875 77.6461 33.9223 73.7054 34.6319L73.9712 36.1082C78.0107 35.3808 80.709 34.2855 82.3075 32.9711C83.1146 32.3073 83.663 31.5694 83.9389 30.7759C84.2172 29.9758 84.201 29.1679 83.956 28.4059L82.528 28.865ZM81.8304 27.0494C82.1146 27.7436 82.363 28.3515 82.528 28.865L83.956 28.4059C83.7694 27.8253 83.4958 27.1582 83.2186 26.4811L81.8304 27.0494ZM80.3293 21.2266C80.2629 22.1966 80.4749 23.2327 80.7717 24.2106C81.0702 25.194 81.4745 26.1802 81.8304 27.0494L83.2186 26.4811C82.8579 25.6002 82.4816 24.6794 82.207 23.7749C81.9309 22.8649 81.7776 22.0324 81.8258 21.3289L80.3293 21.2266ZM77.4344 21.775C78.6351 21.8041 79.8215 21.8875 80.9913 22.0228L81.1637 20.5327C79.9487 20.3922 78.7169 20.3056 77.4707 20.2755L77.4344 21.775ZM37.7958 59.54C38.3132 38.1656 56.06 21.2577 77.4344 21.775L77.4707 20.2755C55.2681 19.738 36.8337 37.3011 36.2963 59.5037L37.7958 59.54ZM59.3267 95.1841C46.2561 88.7068 37.4196 75.0816 37.7958 59.54L36.2963 59.5037C35.9054 75.6498 45.087 89.8015 58.6607 96.5281L59.3267 95.1841ZM60.2099 91.2821C60.2435 93.3362 59.4314 94.5552 58.5291 95.2674L59.4584 96.4448C60.7215 95.4479 61.7511 93.7874 61.7097 91.2576L60.2099 91.2821ZM57.1123 86.0686C57.9153 87.4158 58.7127 88.7538 59.31 89.7821C59.609 90.297 59.8543 90.7281 60.0239 91.0414C60.1093 91.1991 60.1709 91.3184 60.2095 91.3998C60.2292 91.4414 60.238 91.4625 60.2402 91.4683C60.2561 91.5102 60.2122 91.4177 60.2099 91.2821L61.7097 91.2576C61.7071 91.0949 61.6502 90.9561 61.6417 90.9337C61.6193 90.8751 61.5918 90.814 61.5645 90.7564C61.5089 90.6393 61.4327 90.4929 61.343 90.3272C61.1623 89.9935 60.9079 89.5466 60.6071 89.0287C60.0046 87.9915 59.2022 86.6452 58.4008 85.3006L57.1123 86.0686ZM53.7483 79.998C53.7481 80.1673 53.8071 80.312 53.8152 80.3336C53.8378 80.3934 53.8657 80.456 53.8935 80.5147C53.9499 80.6341 54.0276 80.7836 54.119 80.9528C54.3031 81.2935 54.5628 81.7498 54.8694 82.278C55.4836 83.336 56.3008 84.707 57.1123 86.0686L58.4008 85.3006C57.5877 83.9363 56.7756 82.5737 56.1667 81.5249C55.8618 80.9998 55.6115 80.5595 55.4386 80.2396C55.3515 80.0784 55.2889 79.9567 55.2496 79.8737C55.2296 79.8313 55.2209 79.8099 55.2187 79.8042C55.2022 79.7603 55.2485 79.8581 55.2483 80.0001L53.7483 79.998ZM56.02 76.8369C55.3965 77.0275 54.808 77.3489 54.3814 77.8996C53.952 78.4538 53.7494 79.1591 53.7483 79.998L55.2483 80.0001C55.2491 79.403 55.3901 79.0469 55.5672 78.8182C55.7472 78.5859 56.0282 78.4029 56.4586 78.2713L56.02 76.8369ZM60.7579 75.6373C59.1043 76.018 57.4659 76.3948 56.02 76.8369L56.4586 78.2713C57.8441 77.8478 59.4277 77.4828 61.0945 77.099L60.7579 75.6373ZM73.2347 67.8564C73.2245 70.2085 71.7912 71.7778 69.4237 72.9769C67.0323 74.1881 63.8723 74.9202 60.7579 75.6373L61.0945 77.099C64.1566 76.394 67.5138 75.6257 70.1015 74.315C72.7132 72.9922 74.721 71.0182 74.7347 67.8629L73.2347 67.8564Z" fill="black"/>
<path d="M95.8855 13.8543C102.048 16.4337 107.626 20.229 112.289 25.0134C116.951 29.7977 120.601 35.4728 123.02 41.6996C125.439 47.9264 126.578 54.577 126.369 61.254C126.159 67.9309 124.606 74.4971 121.802 80.5602C118.997 86.6232 114.999 92.0587 110.047 96.5416C105.094 101.025 99.2883 104.463 92.9768 106.651C86.6652 108.84 79.9772 109.733 73.3124 109.279C66.6477 108.824 60.1431 107.03 54.1873 104.004L56.4952 99.4614C61.8403 102.177 67.678 103.787 73.6594 104.195C79.6407 104.603 85.643 103.801 91.3074 101.837C96.9718 99.873 102.182 96.7871 106.627 92.7638C111.072 88.7405 114.66 83.8624 117.177 78.421C119.694 72.9796 121.088 67.0867 121.275 61.0943C121.463 55.102 120.441 49.1333 118.27 43.545C116.099 37.9566 112.823 32.8634 108.639 28.5696C104.455 24.2759 99.4482 20.8697 93.9179 18.5547L95.8855 13.8543Z" fill="black" stroke="black" stroke-width="1.5"/>
<path d="M90.9366 72.9259C90.121 69.7858 96.3742 69.7858 99.6028 70.1783C103.681 71.7484 102.152 74.496 99.6028 76.8511C97.0539 79.2062 93.4856 85.879 90.9366 84.3089C88.3877 82.7388 91.9562 76.8511 90.9366 72.9259Z" fill="white" stroke="black" stroke-width="1.5"/>
<circle cx="56.5616" cy="35.7068" r="11.0998" transform="rotate(-5.54935 56.5616 35.7068)" fill="#EBF3FF"/>
<path fill-rule="evenodd" clip-rule="evenodd" d="M65.4786 66.7194C68.4071 65.897 78.2938 41.1025 75.4169 30.8593C74.3127 26.9276 72.0652 23.6251 69.1356 21.2109C67.6432 19.9811 65.9737 18.9817 64.1882 18.2471C60.3474 16.6668 55.9695 16.3114 51.6611 17.5215C41.418 20.3983 35.4464 31.0342 38.3232 41.2773C41.2001 51.5205 62.5502 67.5419 65.4786 66.7194ZM59.3383 44.8533C64.1904 43.4906 67.019 38.4525 65.6563 33.6005C64.2936 28.7485 59.2555 25.9199 54.4035 27.2826C49.5515 28.6453 46.7229 33.6833 48.0856 38.5353C49.4483 43.3874 54.4863 46.216 59.3383 44.8533Z" fill="black"/>
<mask id="path-16-inside-1_201_3889" fill="white">
<path fill-rule="evenodd" clip-rule="evenodd" d="M64.0196 64.3952C66.9481 63.5727 76.8348 38.7783 73.958 28.5351C72.8537 24.6033 70.6062 21.3009 67.6766 18.8867C66.1842 17.6569 64.5148 16.6575 62.7292 15.9229C58.8885 14.3426 54.5106 13.9872 50.2021 15.1973C39.959 18.0741 33.9874 28.71 36.8643 38.9531C39.7411 49.1962 61.0912 65.2177 64.0196 64.3952ZM57.8774 42.5291C62.7294 41.1663 65.5581 36.1283 64.1953 31.2763C62.8326 26.4243 57.7946 23.5957 52.9426 24.9584C48.0906 26.3211 45.2619 31.3591 46.6246 36.2111C47.9874 41.0631 53.0254 43.8918 57.8774 42.5291Z"/>
</mask>
<path fill-rule="evenodd" clip-rule="evenodd" d="M64.0196 64.3952C66.9481 63.5727 76.8348 38.7783 73.958 28.5351C72.8537 24.6033 70.6062 21.3009 67.6766 18.8867C66.1842 17.6569 64.5148 16.6575 62.7292 15.9229C58.8885 14.3426 54.5106 13.9872 50.2021 15.1973C39.959 18.0741 33.9874 28.71 36.8643 38.9531C39.7411 49.1962 61.0912 65.2177 64.0196 64.3952ZM57.8774 42.5291C62.7294 41.1663 65.5581 36.1283 64.1953 31.2763C62.8326 26.4243 57.7946 23.5957 52.9426 24.9584C48.0906 26.3211 45.2619 31.3591 46.6246 36.2111C47.9874 41.0631 53.0254 43.8918 57.8774 42.5291Z" fill="white"/>
<path d="M67.6766 18.8867L66.7227 20.0443L67.6766 18.8867ZM62.7292 15.9229L63.3 14.5357L63.3 14.5357L62.7292 15.9229ZM72.5138 28.9407C73.146 31.1917 73.1056 34.4078 72.5473 38.1209C71.9948 41.7947 70.961 45.7965 69.74 49.5319C68.519 53.2675 67.1249 56.6944 65.8696 59.2174C65.2397 60.4833 64.6624 61.4858 64.1776 62.1768C63.934 62.5239 63.7373 62.7585 63.5924 62.9013C63.4179 63.0733 63.4285 63.0032 63.6141 62.9511L64.4252 65.8393C64.9769 65.6844 65.4079 65.3242 65.6985 65.0377C66.0188 64.722 66.3319 64.3295 66.6333 63.8999C67.2385 63.0375 67.8916 61.888 68.5555 60.5537C69.8876 57.8763 71.3344 54.3102 72.5916 50.4639C73.8488 46.6176 74.9302 42.4487 75.5139 38.567C76.0917 34.7245 76.2083 31.0001 75.4021 28.1295L72.5138 28.9407ZM66.7227 20.0443C69.4236 22.2701 71.495 25.3131 72.5138 28.9407L75.4021 28.1295C74.2124 23.8935 71.7889 20.3318 68.6305 17.7291L66.7227 20.0443ZM62.1585 17.31C63.8058 17.9878 65.346 18.9098 66.7227 20.0443L68.6305 17.7291C67.0224 16.4039 65.2237 15.3272 63.3 14.5357L62.1585 17.31ZM50.6077 16.6414C54.5822 15.5251 58.6166 15.8528 62.1585 17.31L63.3 14.5357C59.1603 12.8325 54.4389 12.4493 49.7965 13.7531L50.6077 16.6414ZM38.3084 38.5475C35.6555 29.1019 41.1621 19.2942 50.6077 16.6414L49.7965 13.7531C38.7558 16.854 32.3193 28.318 35.4201 39.3587L38.3084 38.5475ZM63.6141 62.9511C63.7996 62.899 63.8451 62.9533 63.6066 62.8973C63.4085 62.8508 63.1184 62.7529 62.7298 62.5834C61.9561 62.2459 60.9413 61.6905 59.7444 60.9376C57.3591 59.4372 54.3846 57.2372 51.3973 54.6836C48.41 52.13 45.4438 49.2517 43.0594 46.4027C40.6495 43.5232 38.9406 40.7985 38.3084 38.5475L35.4201 39.3587C36.2264 42.2293 38.265 45.3484 40.7589 48.3281C43.2782 51.3384 46.372 54.3346 49.4479 56.964C52.5238 59.5933 55.6157 61.8847 58.147 63.477C59.4085 64.2705 60.5646 64.9119 61.5303 65.3331C62.0113 65.543 62.483 65.715 62.9208 65.8178C63.3181 65.9112 63.8736 65.9943 64.4252 65.8393L63.6141 62.9511ZM62.7512 31.6819C63.8899 35.7363 61.5263 39.9462 57.4718 41.0849L58.283 43.9732C63.9326 42.3865 67.2262 36.5203 65.6395 30.8707L62.7512 31.6819ZM53.3482 26.4025C57.4026 25.2638 61.6125 27.6274 62.7512 31.6819L65.6395 30.8707C64.0527 25.2211 58.1866 21.9275 52.537 23.5142L53.3482 26.4025ZM48.0688 35.8055C46.9301 31.7511 49.2937 27.5412 53.3482 26.4025L52.537 23.5142C46.8874 25.101 43.5938 30.9671 45.1805 36.6167L48.0688 35.8055ZM57.4718 41.0849C53.4174 42.2237 49.2075 39.86 48.0688 35.8055L45.1805 36.6167C46.7672 42.2663 52.6334 45.5599 58.283 43.9732L57.4718 41.0849Z" fill="black" mask="url(#path-16-inside-1_201_3889)"/>
</svg>
