<svg width="151" height="150" viewBox="0 0 151 150" fill="none" xmlns="http://www.w3.org/2000/svg">
<circle cx="75.6665" cy="75" r="75" fill="#EBF3FF"/>
<path d="M95.9028 40.4375L100.525 42.7041L66.2014 112.695" stroke="black" stroke-width="1.5"/>
<path d="M134.438 32.3756C125.728 30.5747 117.132 29.3895 108.818 33.8167L124.485 19.1515C132.077 19.9182 134.115 28.8575 134.438 32.3756Z" fill="black" stroke="black" stroke-width="1.5"/>
<path d="M106.91 20.0556C100.413 24.1664 98.2784 37.6578 98.2784 37.6578L105.231 41.0672C110.255 33.5028 121.923 23.7785 127.129 19.8619C127.129 19.8619 113.529 15.8681 106.91 20.0556Z" fill="white" stroke="black" stroke-width="1.5" stroke-linejoin="round"/>
<path d="M71.6173 51.2199C74.8817 50.5337 87.7531 50.442 92.1658 49.4042L80.755 62.2603C75.3015 61.7815 71.5194 54.8312 71.6173 51.2199Z" fill="black" stroke="black" stroke-width="1.5"/>
<path d="M79.5908 62.252C87.6419 58.002 94.1401 46.2097 96.9893 41.2349L103.631 43.5594C104.492 44.9614 104.822 47.4319 104.89 49.8874C104.992 53.5308 102.69 56.7054 99.4462 58.3681L98.7504 58.7248C92.847 61.7511 86.1849 62.9776 79.5908 62.252Z" fill="white" stroke="black" stroke-width="1.5" stroke-linejoin="round"/>
<path d="M108.714 63.3655L115.45 50.2852C119.359 52.843 126.568 58.4626 124.124 60.4787C121.68 62.4948 112.832 63.2433 108.714 63.3655Z" fill="black" stroke="black" stroke-width="1.5"/>
<path d="M92.3726 12.2366L89.7407 33.4707C85.831 30.9129 77.6399 25.6736 79.0349 22.829C81.4634 17.8769 88.2542 12.3588 92.3726 12.2366Z" fill="black" stroke="black" stroke-width="1.5"/>
<path d="M123.853 43.2452C118.805 36.8377 109.592 37.808 105.604 39.538L102.66 45.5413C113.867 48.7438 121.978 55.9769 124.31 59.8509C126.596 57.6955 128.902 49.6526 123.853 43.2452Z" fill="white" stroke="black" stroke-width="1.5"/>
<path d="M78.7717 39.9688C82.6316 44.718 93.1144 43.7031 97.1027 41.9731L100.047 35.9699C88.8395 32.7673 82.4405 25.2498 80.1084 21.3759C77.8227 23.5313 75.4512 35.8832 78.7717 39.9688Z" fill="white" stroke="black" stroke-width="1.5"/>
<circle cx="100.647" cy="40.459" r="5.14789" transform="rotate(26.1234 100.647 40.459)" fill="#F6F6F6" stroke="black" stroke-width="1.5"/>
<path d="M132.058 40.5011C134.255 42.4147 137.566 48.2813 133.234 56.4393M134.177 36.5613C135.836 37.7737 139.241 41.0827 139.59 44.62" stroke="black" stroke-width="1.5"/>
<path d="M73.5578 42.329C71.3609 40.4154 68.0502 34.5488 72.3825 26.3908M71.4391 46.2688C69.7803 45.0564 66.3754 41.7473 66.0263 38.2101" stroke="black" stroke-width="1.5"/>
<path fill-rule="evenodd" clip-rule="evenodd" d="M19.7727 126.182C19.8448 125.078 20.7991 124.243 21.9026 124.317L100.993 129.634C102.092 129.708 103.043 128.88 103.122 127.781L106.534 80.0089L106.662 78.2122C106.729 77.2841 107.529 76.582 108.458 76.6371C109.403 76.6932 110.12 77.5104 110.052 78.4543L109.63 84.3663L106.218 132.138C106.139 133.237 105.187 134.065 104.088 133.991L21.6252 128.448C20.5246 128.374 19.6917 127.423 19.7636 126.322L19.7727 126.182Z" fill="black"/>
<path d="M106.534 80.0089L105.786 79.9555V79.9555L106.534 80.0089ZM109.63 84.3663L108.882 84.3129L109.63 84.3663ZM21.6252 128.448L21.5749 129.196L21.6252 128.448ZM19.7636 126.322L19.0152 126.273L19.7636 126.322ZM110.052 78.4543L110.8 78.5078L110.052 78.4543ZM106.218 132.138L105.469 132.085L106.218 132.138ZM104.088 133.991L104.038 134.74L104.088 133.991ZM21.9026 124.317L21.9529 123.569L21.9026 124.317ZM100.993 129.634L100.942 130.382L100.993 129.634ZM103.122 127.781L102.374 127.728L103.122 127.781ZM101.043 128.886L21.9529 123.569L21.8523 125.065L100.942 130.382L101.043 128.886ZM105.786 79.9555L102.374 127.728L103.87 127.834L107.282 80.0623L105.786 79.9555ZM105.914 78.1588L105.786 79.9555L107.282 80.0623L107.411 78.2657L105.914 78.1588ZM109.304 78.4009L108.882 84.3129L110.378 84.4197L110.8 78.5078L109.304 78.4009ZM108.882 84.3129L105.469 132.085L106.966 132.192L110.378 84.4197L108.882 84.3129ZM104.139 133.243L21.6755 127.699L21.5749 129.196L104.038 134.74L104.139 133.243ZM20.512 126.371L20.5211 126.231L19.0243 126.133L19.0152 126.273L20.512 126.371ZM21.6755 127.699C20.9876 127.653 20.4671 127.059 20.512 126.371L19.0152 126.273C18.9163 127.786 20.0616 129.094 21.5749 129.196L21.6755 127.699ZM108.414 77.3858C108.941 77.4171 109.342 77.8736 109.304 78.4009L110.8 78.5078C110.897 77.1471 109.864 75.9693 108.502 75.8885L108.414 77.3858ZM107.411 78.2657C107.448 77.7472 107.895 77.355 108.414 77.3858L108.502 75.8885C107.164 75.809 106.01 76.821 105.914 78.1588L107.411 78.2657ZM105.469 132.085C105.42 132.772 104.826 133.289 104.139 133.243L104.038 134.74C105.549 134.841 106.858 133.702 106.966 132.192L105.469 132.085ZM21.9529 123.569C20.4355 123.467 19.1235 124.616 19.0243 126.133L20.5211 126.231C20.5662 125.541 21.1626 125.019 21.8523 125.065L21.9529 123.569ZM100.942 130.382C102.453 130.484 103.762 129.345 103.87 127.834L102.374 127.728C102.325 128.414 101.73 128.932 101.043 128.886L100.942 130.382Z" fill="black"/>
<path fill-rule="evenodd" clip-rule="evenodd" d="M17.1292 123.377C17.058 124.477 17.89 125.427 18.9895 125.502L101.129 131.08C102.229 131.154 103.182 130.325 103.259 129.225L106.66 81.139L20.2157 75.6563L17.1292 123.377Z" fill="#EBF3FF"/>
<path d="M107.06 75.4728C107.138 74.3653 106.3 73.406 105.192 73.3357L22.7131 68.1067C21.6127 68.0369 20.6635 68.8708 20.5909 69.971L20.2157 75.6563L106.66 81.139L107.06 75.4728Z" fill="white"/>
<path d="M20.2157 75.6563L20.5909 69.971C20.6635 68.8708 21.6127 68.0369 22.7131 68.1067L105.192 73.3357C106.3 73.406 107.138 74.3653 107.06 75.4728L106.66 81.139M20.2157 75.6563L17.1292 123.377C17.058 124.477 17.89 125.427 18.9895 125.502L101.129 131.08C102.229 131.154 103.182 130.325 103.259 129.225L106.66 81.139M20.2157 75.6563L106.66 81.139" stroke="black" stroke-width="1.5"/>
<path d="M67.0372 86.9609L29.6841 84.8302C28.5984 84.7682 27.6622 85.5852 27.5764 86.6693L25.5295 112.551C25.4416 113.663 26.2803 114.632 27.3933 114.705L64.7558 117.137C65.8482 117.209 66.7948 116.388 66.8797 115.297L68.9172 89.1129C69.0042 87.9955 68.1561 87.0248 67.0372 86.9609Z" fill="white" stroke="black" stroke-width="1.5"/>
<path d="M29.0903 108.897L34.6493 103.233C35.0413 102.834 35.6847 102.834 36.0767 103.233L40.8896 108.137C41.2938 108.549 41.9618 108.534 42.3474 108.105L50.6641 98.8437C51.0561 98.4072 51.7378 98.4003 52.1385 98.8288L54.284 101.123C54.6741 101.54 55.3338 101.546 55.7317 101.136L65.2869 91.2988M65.2869 91.2988V95.8527M65.2869 91.2988L60.5665 91.7128" stroke="black" stroke-width="1.5"/>
<path d="M74.6548 91.2285L99.7625 92.1584" stroke="black" stroke-width="1.5"/>
<path d="M73.7251 98.668L99.7627 100.528" stroke="black" stroke-width="1.5"/>
<path d="M73.7251 107.037L99.7627 108.897" stroke="black" stroke-width="1.5"/>
<path d="M72.7954 114.477L99.763 117.266" stroke="black" stroke-width="1.5"/>
</svg>
