<svg width="542" height="545" viewBox="0 0 542 545" fill="none" xmlns="http://www.w3.org/2000/svg">
<path d="M185.585 204.217L87.3291 242.811L113.371 313.512L214.598 276.03L185.585 204.217Z" fill="#F6F6F6" stroke="black" stroke-width="1.5"/>
<path d="M116.33 301.071L125.403 272.293L153.07 284.337L165.84 236.622L180.139 243.665L199.525 105.374M199.525 105.374L208.074 118.732M199.525 105.374L186.167 113.923M232.466 101.531L243.772 80.3611M163.987 121.631L142.817 110.325" stroke="black" stroke-width="1.5"/>
<path d="M227.404 120.177L354.489 71.8303L362.72 93.9592M173.839 140.555L42.5531 190.5L50.8862 212.583M50.8862 212.583L119.932 395.551L431.312 278.367L362.72 93.9592M50.8862 212.583L169.99 167.275M362.72 93.9592L216.203 149.695" stroke="black" stroke-width="1.5"/>
<path d="M283.643 32.6261C289.948 24.8251 291.332 14.3364 290.857 -0.234496C298.567 8.57648 307.298 16.9226 319.272 18.8623C312.876 29.1692 310.653 35.1109 311.503 53.2082C308.249 46.0644 295.618 34.5657 283.643 32.6261Z" stroke="black" stroke-width="1.5"/>
<path d="M219.372 496.245C225.677 488.444 227.061 477.956 226.586 463.385C234.296 472.196 243.026 480.542 255 482.481C248.605 492.788 246.382 498.73 247.231 516.827C243.977 509.684 231.346 498.185 219.372 496.245Z" stroke="black" stroke-width="1.5"/>
<path d="M212.958 196.677L287.741 168.776" stroke="black" stroke-width="1.5"/>
<path d="M220.679 219.039L296.483 190.673" stroke="black" stroke-width="1.5"/>
<path d="M230.349 242.976L305.133 215.074" stroke="black" stroke-width="1.5"/>
<path d="M238.071 265.338L313.875 236.972" stroke="black" stroke-width="1.5"/>
<path d="M133.642 363.427L123.971 339.49L322.99 262.394L332.105 287.817L133.642 363.427Z" stroke="black" stroke-width="1.5"/>
<circle cx="452.567" cy="203.444" r="2.24287" transform="rotate(-24.4887 452.567 203.444)" stroke="black" stroke-width="1.5"/>
<circle cx="238.903" cy="380.793" r="4.48574" transform="rotate(-24.4887 238.903 380.793)" stroke="black" stroke-width="1.5"/>
<mask id="path-13-inside-1_162_1000" fill="white">
<path d="M336.211 211.949C313.522 194.411 309.347 161.802 326.884 139.114C344.421 116.425 377.03 112.249 399.719 129.787C422.407 147.324 426.583 179.933 409.046 202.622C391.508 225.31 358.899 229.486 336.211 211.949ZM380.409 154.768C371.518 147.896 358.738 149.532 351.866 158.424C344.993 167.315 346.629 180.094 355.521 186.967C364.412 193.839 377.191 192.203 384.064 183.312C390.937 174.42 389.3 161.641 380.409 154.768Z"/>
</mask>
<path d="M336.211 211.949C313.522 194.411 309.347 161.802 326.884 139.114C344.421 116.425 377.03 112.249 399.719 129.787C422.407 147.324 426.583 179.933 409.046 202.622C391.508 225.31 358.899 229.486 336.211 211.949ZM380.409 154.768C371.518 147.896 358.738 149.532 351.866 158.424C344.993 167.315 346.629 180.094 355.521 186.967C364.412 193.839 377.191 192.203 384.064 183.312C390.937 174.42 389.3 161.641 380.409 154.768Z" fill="white" stroke="black" stroke-width="3" mask="url(#path-13-inside-1_162_1000)"/>
<mask id="path-14-inside-2_162_1000" fill="white">
<path d="M335.719 130.171C327.877 136.385 321.997 144.732 318.787 154.209C315.577 163.686 315.173 173.888 317.624 183.589L348.248 175.85C347.288 172.051 347.446 168.055 348.703 164.343C349.96 160.631 352.263 157.362 355.335 154.928L335.719 130.171Z"/>
</mask>
<path d="M335.719 130.171C327.877 136.385 321.997 144.732 318.787 154.209C315.577 163.686 315.173 173.888 317.624 183.589L348.248 175.85C347.288 172.051 347.446 168.055 348.703 164.343C349.96 160.631 352.263 157.362 355.335 154.928L335.719 130.171Z" fill="#EBF3FF" stroke="black" stroke-width="3" mask="url(#path-14-inside-2_162_1000)"/>
<path d="M316.463 177.463C317.767 187.649 322.063 197.219 328.806 204.964C335.55 212.709 344.439 218.28 354.349 220.973C364.259 223.666 374.745 223.36 384.481 220.094C394.217 216.827 402.765 210.747 409.046 202.622L384.648 183.763C382.098 187.063 378.626 189.532 374.672 190.859C370.718 192.186 366.46 192.31 362.435 191.216C358.411 190.123 354.801 187.86 352.062 184.715C349.323 181.57 347.579 177.683 347.049 173.546L316.463 177.463Z" fill="black"/>
</svg>
