<svg width="955" height="450" viewBox="0 0 955 450" fill="none" xmlns="http://www.w3.org/2000/svg">
<path d="M924.861 60.8569C761.128 16.0929 728.2 151.299 707.861 233.857C687.522 316.415 601.967 193.683 569.361 173.857C549.223 163.935 435 363.001 32.5 334.501" stroke="black" stroke-width="1.5"/>
<circle cx="26" cy="334" r="7" stroke="black" stroke-width="1.5"/>
<rect x="210.64" y="254.661" width="152.646" height="152.646" rx="10" transform="rotate(-12.262 210.64 254.661)" fill="#F6F6F6" stroke="black" stroke-width="1.5"/>
<rect x="512.147" y="90.8564" width="152.646" height="152.646" rx="10" transform="rotate(22.0424 512.147 90.8564)" fill="#EBF3FF" stroke="black" stroke-width="1.5"/>
<path d="M386.769 268.991L287.044 245.958C278.86 305.5 246.323 363.048 231.078 384.379C256.149 392.126 311.834 409.196 333.999 415.5C367.484 357.231 383.131 293.548 386.769 268.991Z" fill="white" stroke="black" stroke-width="1.5"/>
<path d="M335.672 353.612L315.833 389.85L305.178 386.8L298.074 384.767L288.129 381.921L281.025 379.887L271.435 377.142L282.084 358.842L291.32 361.469L281.025 379.887L288.129 381.921L304.656 354.213L313.891 356.84L298.074 384.767L305.178 386.8L324.998 350.913L335.672 353.612Z" fill="black"/>
<path d="M278.567 342.812C275.171 353.018 266.004 368.121 261.845 374.398L271.435 377.142M322.937 391.884L315.833 389.85M315.833 389.85L335.672 353.612L324.998 350.913L305.178 386.8M315.833 389.85L305.178 386.8M305.178 386.8L298.074 384.767M298.074 384.767L313.891 356.84L304.656 354.213L288.129 381.921M298.074 384.767L288.129 381.921M288.129 381.921L281.025 379.887M281.025 379.887L291.32 361.469L282.084 358.842L271.435 377.142M281.025 379.887L271.435 377.142" stroke="black" stroke-width="1.5"/>
<path d="M293.65 272.233L364.84 289.507" stroke="black" stroke-width="1.5"/>
<path d="M288.252 293.578L358.041 310.061" stroke="black" stroke-width="1.5"/>
<path d="M282.924 313.487L351.958 330.652" stroke="black" stroke-width="1.5"/>
<path d="M533.518 238.31L507.698 189.738C507.698 189.738 523.429 163.387 557.875 149.569C591.428 136.111 589.269 156.981 650.709 123.889L672.182 177.364C616.174 203.012 618.515 190.495 586.429 202.327C560.76 211.793 540.46 230.26 533.518 238.31Z" fill="white" stroke="black" stroke-width="1.5"/>
<path d="M541.105 215.266L515.285 166.694C515.285 166.694 531.016 140.343 565.462 126.525C599.015 113.067 596.856 133.937 658.296 100.845L679.769 154.32C623.761 179.969 626.102 167.451 594.016 179.283C568.347 188.749 548.046 207.216 541.105 215.266Z" fill="white" stroke="black" stroke-width="1.5"/>
<ellipse cx="594.329" cy="148.614" rx="20.5107" ry="12.6971" transform="rotate(-21.8789 594.329 148.614)" fill="black" stroke="black" stroke-width="1.5"/>
<path d="M639.075 110.647C642.291 118.656 652.203 122.216 661.213 118.598C662.459 118.097 663.622 117.486 664.694 116.783" stroke="black" stroke-width="1.5"/>
<path d="M527.287 152.025C529.245 153.552 530.808 155.551 531.77 157.948C534.938 165.835 530.43 175.097 521.685 178.832" stroke="black" stroke-width="1.5"/>
<path d="M532.491 199.058C534.487 196.056 537.493 193.54 541.247 192.032C549.041 188.902 557.509 191.143 561.735 196.989" stroke="black" stroke-width="1.5"/>
<path d="M673.72 139.253C672.459 139.486 671.196 139.849 669.95 140.35C660.94 143.968 656.243 153.393 659.459 161.402C659.646 161.868 659.856 162.319 660.087 162.755" stroke="black" stroke-width="1.5"/>
</svg>
