<svg xmlns="http://www.w3.org/2000/svg" version="1.1" xmlns:xlink="http://www.w3.org/1999/xlink" xmlns:svgjs="http://svgjs.com/svgjs" width="1000" height="1000"><rect width="1000" height="1000" rx="200" ry="200" fill="#ffffff"></rect><g transform="matrix(7.03125,0,0,7.03125,50,246.87499856203794)"><svg xmlns="http://www.w3.org/2000/svg" version="1.1" xmlns:xlink="http://www.w3.org/1999/xlink" xmlns:svgjs="http://svgjs.com/svgjs" width="128" height="72"><svg width="128" height="72" viewBox="0 0 128 72" fill="none" xmlns="http://www.w3.org/2000/svg">
<path fill-rule="evenodd" clip-rule="evenodd" d="M57.751 0.359525C56.9828 0.502081 55.8216 0.822832 55.1427 1.09012C51.323 2.53174 48.3659 5.46279 47.4071 9.44747C46.8759 11.754 47.0579 14.2133 47.693 16.4862C47.9431 17.4128 48.4612 18.8562 48.8185 19.6937C49.1758 20.5312 49.801 21.8677 50.2298 22.6873C50.4043 23.0137 50.558 23.2921 50.6788 23.511C50.8549 23.8299 50.9613 24.0228 50.9613 24.0545C49.4325 24.563 47.5034 25.3582 45.9211 26.1889H31.2236V34.8842H38.0865C35.0219 38.9385 30.172 41.4565 24.87 41.4565C15.947 41.4565 8.71357 34.2382 8.71357 25.334C8.71357 16.4299 15.947 9.21159 24.87 9.21159H25.4761C29.3106 9.21159 33.0593 10.3442 36.2497 12.4667L41.0832 5.23184C36.4613 2.15709 31.0308 0.516331 25.4761 0.516331H24.87C11.1347 0.516332 0 11.6276 0 25.334C0 39.0405 11.1347 50.1518 24.87 50.1518C31.2319 50.1518 37.1675 47.7767 41.6881 43.7544C41.7821 43.861 41.8782 43.9665 41.9761 44.0707C43.3174 45.5143 44.8692 46.6494 46.6211 47.5455C50.3938 49.4271 54.7659 50.165 58.948 50.165C62.5429 50.165 66.0676 49.4234 69.3991 48.0801L70.9176 47.4386C72.722 48.4365 73.9547 48.9533 74.8479 49.2562C76.6094 49.8644 78.5712 50.1833 80.4392 50.1397L103.13 50.1505C116.865 50.1505 128 39.0392 128 25.3328C128 11.6263 116.865 0.51505 103.13 0.51505L83.1614 0.515051V23.9704H74.4013V25.7523C75.8617 25.7523 77.0913 26.0512 78.2066 27.0353C80.344 28.8732 80.4082 31.9388 79.6894 34.4482C79.237 36.0598 78.5667 37.5274 77.6706 38.9387L77.0632 39.9188C75.5268 38.4041 74.2405 36.9608 73.2043 35.7312C72.1682 34.5017 70.3817 32.2564 69.2383 30.7418C68.0771 29.2271 66.3799 26.8927 65.4509 25.5741C65.2521 25.292 65.0449 25.0105 64.8368 24.7277C64.3352 24.0463 63.828 23.3572 63.4188 22.6321C63.2712 22.3705 63.1463 22.1493 63.1463 22.0993C63.1463 22.0458 63.4857 21.9568 63.8966 21.9033C64.3254 21.832 65.308 21.5647 66.094 21.2974C67.6563 20.7662 69.1188 20.1283 70.5067 19.2304C72.6725 17.866 74.5526 15.7127 75.366 13.2787C76.6559 9.67618 75.456 5.51576 72.4183 3.19282C68.242 0.138 62.762 -0.520474 57.7332 0.359525H57.751ZM91.3304 41.4552V41.5711C89.2849 45.0981 85.3642 45.6519 81.9047 43.6965C81.3687 43.4114 80.2968 42.6808 79.5286 42.075C78.9405 41.6178 78.3463 41.1541 78.1775 40.961C78.5568 40.406 78.9409 39.854 79.325 39.3019C79.825 38.5833 80.3251 37.8646 80.8149 37.139C82.0297 35.3392 83.3696 33.4147 83.7984 32.8801C85.0682 31.2281 86.4597 29.6553 88.0324 28.2827C89.1693 27.294 90.4572 26.4601 91.9009 26.005V23.9704H91.875V9.21031H103.13C112.053 9.21031 119.286 16.4286 119.286 25.3328C119.286 34.2369 112.053 41.4552 103.13 41.4552L92.5847 41.454L92.5837 41.4552H91.3304ZM62.789 2.26622C61.6394 1.61097 59.8088 1.46803 58.5907 2.01674C57.664 2.4369 57.0151 3.26375 56.6434 4.19072C55.8834 6.06051 56.4285 8.77494 57.0721 10.6057C57.3758 11.5324 58.0905 13.2252 58.6264 14.3478C59.1624 15.4705 60.1449 17.3415 60.8417 18.4998C61.5206 19.6402 62.1458 20.5847 62.253 20.5847C62.3602 20.5847 62.8962 20.157 63.4678 19.6224C65.6865 17.5359 66.3617 14.4349 66.4871 11.4967C66.5709 9.36332 66.4001 7.31422 65.5045 5.34899C64.9056 4.11705 64.0044 2.94512 62.789 2.26622ZM52.2307 26.2869C52.195 26.2869 51.9806 26.5542 51.7662 26.8571C48.3013 32.0411 49.9016 40.2699 54.3388 44.4628C57.9494 47.9669 63.8549 48.5515 68.4165 46.6902C69.0239 46.4407 69.0954 46.3695 68.8631 46.1734C68.7536 46.0778 68.2763 45.6888 67.7055 45.2235L67.704 45.2223L67.7036 45.222L67.1659 44.7835C66.3799 44.142 64.8613 42.6986 63.7716 41.576C62.6818 40.4712 61.0382 38.5823 60.0913 37.4241C59.1624 36.248 57.7867 34.4482 57.0364 33.4147C56.2861 32.3812 54.9283 30.3675 53.9993 28.9064C53.0882 27.463 52.2843 26.2869 52.2307 26.2869Z" fill="black"></path>
<path d="M27.6686 71.5474C28.2102 71.8491 28.858 72 29.6121 72C30.1195 72 30.5754 71.9246 30.9798 71.7737C31.3912 71.6228 31.7442 71.4102 32.039 71.1359L31.6071 70.0867C31.2849 70.3542 30.973 70.5462 30.6713 70.6628C30.3765 70.7725 30.0372 70.8273 29.6533 70.8273C28.9197 70.8273 28.3576 70.6045 27.9668 70.1587C27.5829 69.713 27.3909 69.082 27.3909 68.266C27.3909 67.4499 27.5829 66.8224 27.9668 66.3836C28.3576 65.9378 28.9197 65.7149 29.6533 65.7149C30.0372 65.7149 30.3765 65.7732 30.6713 65.8898C30.973 65.9995 31.2849 66.1847 31.6071 66.4453L32.039 65.396C31.7442 65.1149 31.3912 64.9023 30.9798 64.7583C30.5754 64.6143 30.1195 64.5423 29.6121 64.5423C28.858 64.5423 28.2102 64.6966 27.6686 65.0051C27.1338 65.3069 26.7225 65.7355 26.4346 66.291C26.1466 66.8464 26.0026 67.5048 26.0026 68.266C26.0026 69.0272 26.1466 69.689 26.4346 70.2513C26.7225 70.8068 27.1338 71.2388 27.6686 71.5474Z" fill="black"></path>
<path fill-rule="evenodd" clip-rule="evenodd" d="M34.4568 66.291C34.1825 66.8464 34.0454 67.5048 34.0454 68.266C34.0454 69.0203 34.186 69.6787 34.4671 70.241C34.7481 70.7965 35.1458 71.2285 35.6599 71.5371C36.181 71.8457 36.8014 72 37.5212 72C38.2342 72 38.8512 71.8457 39.3723 71.5371C39.8933 71.2285 40.2943 70.7965 40.5754 70.241C40.8634 69.6787 41.0073 69.0169 41.0073 68.2557C41.0073 67.5014 40.8634 66.8464 40.5754 66.291C40.2943 65.7355 39.8933 65.3069 39.3723 65.0051C38.8512 64.6966 38.2342 64.5423 37.5212 64.5423C36.8014 64.5423 36.181 64.6966 35.6599 65.0051C35.1389 65.3069 34.7379 65.7355 34.4568 66.291ZM35.9582 70.1793C35.6085 69.7198 35.4337 69.082 35.4337 68.266C35.4337 67.4431 35.6085 66.8053 35.9582 66.3527C36.3078 65.9001 36.8288 65.6738 37.5212 65.6738C38.1999 65.6738 38.7175 65.9001 39.074 66.3527C39.4374 66.8053 39.6191 67.4431 39.6191 68.266C39.6191 69.082 39.4374 69.7198 39.074 70.1793C38.7107 70.6387 38.1931 70.8685 37.5212 70.8685C36.8288 70.8685 36.3078 70.6387 35.9582 70.1793Z" fill="black"></path>
<path d="M43.6102 64.6451V71.8971H44.8442V66.789L48.7827 71.8971H49.7802V64.6451H48.5462V69.7408L44.6077 64.6451H43.6102Z" fill="black"></path>
<path d="M53.5222 71.784C54.0158 71.928 54.554 72 55.1367 72C55.7194 72 56.2233 71.9109 56.6484 71.7326C57.0734 71.5474 57.4025 71.2937 57.6356 70.9713C57.8687 70.6422 57.9852 70.2616 57.9852 69.8295C57.9852 69.3015 57.8207 68.8832 57.4916 68.5746C57.1625 68.2591 56.6552 68.0328 55.9697 67.8957L54.8179 67.6694C54.4134 67.5871 54.1255 67.4705 53.9541 67.3196C53.7896 67.1688 53.7073 66.9665 53.7073 66.7127C53.7073 66.3836 53.841 66.1264 54.1084 65.9412C54.3826 65.7492 54.7631 65.6532 55.2498 65.6532C55.6817 65.6532 56.0725 65.7149 56.4221 65.8384C56.7718 65.9549 57.094 66.1367 57.3888 66.3836L57.8001 65.396C57.5053 65.1217 57.1386 64.9126 56.6998 64.7686C56.261 64.6177 55.7846 64.5423 55.2704 64.5423C54.6945 64.5423 54.1906 64.6348 53.7587 64.82C53.3268 65.0051 52.9909 65.2657 52.7509 65.6018C52.511 65.9378 52.391 66.3321 52.391 66.7847C52.391 67.3265 52.5556 67.7585 52.8846 68.0808C53.2137 68.4031 53.7107 68.6329 54.3757 68.77L55.5378 69.0066C55.9628 69.0958 56.2576 69.2089 56.4221 69.3461C56.5867 69.4764 56.6689 69.6684 56.6689 69.9221C56.6689 70.2101 56.549 70.4433 56.309 70.6216C56.0691 70.7999 55.6783 70.8891 55.1367 70.8891C54.8145 70.8891 54.5094 70.8616 54.2215 70.8068C53.9335 70.745 53.6628 70.6593 53.4091 70.5496C53.1554 70.433 52.9121 70.2924 52.679 70.1279L52.2676 71.1668C52.6173 71.4274 53.0355 71.6331 53.5222 71.784Z" fill="black"></path>
<path d="M61.1786 71.2285C61.6859 71.7428 62.4571 72 63.4923 72C64.5001 72 65.2577 71.7428 65.765 71.2285C66.2792 70.7073 66.5362 69.9393 66.5362 68.9243V64.6451H65.2302V68.914C65.2302 69.5587 65.0828 70.0456 64.7881 70.3747C64.5001 70.7039 64.0682 70.8685 63.4923 70.8685C62.889 70.8685 62.4468 70.7039 62.1658 70.3747C61.8915 70.0456 61.7544 69.5587 61.7544 68.914V64.6451H60.4279V68.9243C60.4279 69.9393 60.6781 70.7073 61.1786 71.2285Z" fill="black"></path>
<path d="M69.3152 64.6451V71.8971H74.0558V70.7759H70.6417V64.6451H69.3152Z" fill="black"></path>
<path d="M76.6749 65.7355V71.8971H78.0015V65.7355H80.3975V64.6451H74.2789V65.7355H76.6749Z" fill="black"></path>
<path d="M82.5688 64.6451V71.8971H83.8953V64.6451H82.5688Z" fill="black"></path>
<path d="M86.7251 64.6451V71.8971H87.9592V66.789L91.8977 71.8971H92.8952V64.6451H91.6612V69.7408L87.7226 64.6451H86.7251Z" fill="black"></path>
<path d="M97.1616 71.5474C97.7169 71.8491 98.4025 72 99.2183 72C99.6845 72 100.151 71.952 100.617 71.856C101.083 71.76 101.484 71.6263 101.82 71.4548V67.9677H99.0229V68.9346H100.72V70.6351C100.524 70.6973 100.325 70.7477 100.123 70.7862C99.8422 70.841 99.5611 70.8685 99.28 70.8685C98.4505 70.8685 97.8403 70.649 97.4496 70.2101C97.0657 69.7712 96.8737 69.1335 96.8737 68.2968C96.8737 67.4602 97.076 66.819 97.4804 66.3733C97.8918 65.9207 98.4951 65.6944 99.2903 65.6944C99.5714 65.6944 99.8182 65.7184 100.031 65.7664C100.243 65.8075 100.449 65.8795 100.648 65.9824C100.847 66.0852 101.056 66.2224 101.275 66.3938L101.717 65.3652C101.416 65.0977 101.066 64.8954 100.668 64.7583C100.271 64.6143 99.8079 64.5423 99.28 64.5423C98.4848 64.5423 97.8026 64.6966 97.2336 65.0051C96.6715 65.3069 96.2396 65.7389 95.9379 66.3013C95.6363 66.8567 95.4854 67.5185 95.4854 68.2866C95.4854 69.0478 95.626 69.7061 95.9071 70.2616C96.1881 70.8171 96.6063 71.2457 97.1616 71.5474Z" fill="black"></path>
</svg></svg></g></svg>