<svg width="380" height="200" viewBox="0 0 380 200" fill="none" xmlns="http://www.w3.org/2000/svg">
<g clip-path="url(#clip0_280_5311)">
<circle cx="188" cy="95" r="75" fill="#EBF3FF"/>
<path d="M212.751 105.15L194.357 70.5481C194.357 70.5481 205.564 51.7761 230.103 41.9329C254.005 32.3452 252.468 47.2128 296.236 23.6387L311.533 61.7332C271.634 80.0049 273.302 71.0876 250.444 79.5167C232.158 86.2601 217.696 99.4153 212.751 105.15Z" fill="white" stroke="black" stroke-width="1.5"/>
<path d="M218.157 88.734L199.764 54.1321C199.764 54.1321 210.97 35.3601 235.509 25.5169C259.411 15.9292 257.874 30.7968 301.642 7.22266L316.94 45.3171C277.04 63.5889 278.708 54.6715 255.85 63.1007C237.564 69.844 223.102 82.9993 218.157 88.734Z" fill="white" stroke="black" stroke-width="1.5"/>
<ellipse cx="256.066" cy="41.2515" rx="14.6115" ry="9.0452" transform="rotate(-21.8789 256.066 41.2515)" fill="black" stroke="black" stroke-width="1.5"/>
<path d="M287.949 14.207C290.24 19.9125 297.301 22.4482 303.72 19.8707C304.607 19.5142 305.436 19.0787 306.2 18.5776" stroke="black" stroke-width="1.5"/>
<path d="M208.31 43.6831C209.705 44.7707 210.818 46.1943 211.503 47.9019C213.76 53.5211 210.548 60.1191 204.319 62.7798" stroke="black" stroke-width="1.5"/>
<path d="M212.021 77.188C213.443 75.0496 215.584 73.2571 218.259 72.1831C223.811 69.9535 229.843 71.5498 232.854 75.7142" stroke="black" stroke-width="1.5"/>
<path d="M312.628 34.5831C311.73 34.7491 310.83 35.0077 309.942 35.3642C303.524 37.9417 300.178 44.6565 302.469 50.362C302.602 50.6939 302.752 51.0152 302.916 51.3253" stroke="black" stroke-width="1.5"/>
<path d="M118.428 118.265L97.1035 114.43L85.9741 168.767L147.8 181.061C154.711 182.435 161.868 181.871 168.479 179.433C181.397 174.669 197.941 168.483 201.336 166.123C205.739 163.063 205.072 159.687 204.189 158.381C205.719 157.747 206.931 157.226 207.689 156.867C212.953 154.374 219.003 151.334 218.816 148.549C218.666 146.32 216.852 145.444 215.963 145.284L220.551 143.437C225.695 141.61 234.104 136.931 231.491 132.333C229.024 127.992 220.797 129.493 217.423 130.491C218.881 129.038 219.845 127.21 219.002 125.272C217.445 121.69 212.234 120.828 207.913 121.902C200.952 123.631 184.777 127.372 172.623 130.69C160.469 134.008 146.449 134.697 140.958 134.627C147.572 131.001 162.616 122.837 169.876 119.189C178.951 114.63 179.79 109.965 178.27 106.94C177.055 104.52 171.544 104.813 168.941 105.262L118.428 118.265Z" fill="white"/>
<path d="M158.553 151.55V151.55C171.403 148.825 183.995 145.002 196.191 140.121L213.446 133.216C214.594 132.686 216.186 131.724 217.423 130.491M217.423 130.491C218.881 129.038 219.845 127.21 219.002 125.272C217.445 121.69 212.234 120.828 207.913 121.902C200.952 123.631 184.777 127.372 172.623 130.69C160.469 134.008 146.449 134.697 140.958 134.627C147.572 131.001 162.616 122.837 169.876 119.189C178.951 114.63 179.79 109.965 178.27 106.94C177.055 104.52 171.544 104.813 168.941 105.262L118.428 118.265L97.1035 114.43L85.9741 168.767L147.8 181.061C154.711 182.435 161.868 181.871 168.479 179.433C181.397 174.669 197.941 168.483 201.336 166.123C205.739 163.063 205.072 159.687 204.189 158.381M217.423 130.491C220.797 129.493 229.024 127.992 231.491 132.333C234.104 136.931 225.695 141.61 220.551 143.437L201.911 150.942C193.089 154.493 184.018 157.392 174.771 159.613L159.181 163.358M215.963 145.284C216.852 145.444 218.666 146.32 218.816 148.549C219.003 151.334 212.953 154.374 207.689 156.867C206.931 157.226 205.719 157.747 204.189 158.381M159.273 173.614L176.585 169.16C183.649 166.481 197.214 161.269 204.189 158.381" stroke="black" stroke-width="1.5"/>
<ellipse cx="74.8454" cy="140.55" rx="15.2688" ry="44.7054" transform="rotate(18.3672 74.8454 140.55)" fill="black"/>
<mask id="path-12-inside-1_280_5311" fill="white">
<path fill-rule="evenodd" clip-rule="evenodd" d="M72.9916 109.329L100.603 114.295L90.5361 170.272L54.7183 163.831C55.0849 155.808 56.9651 145.989 60.3704 135.733C63.8627 125.215 68.3654 116.024 72.9916 109.329Z"/>
</mask>
<path fill-rule="evenodd" clip-rule="evenodd" d="M72.9916 109.329L100.603 114.295L90.5361 170.272L54.7183 163.831C55.0849 155.808 56.9651 145.989 60.3704 135.733C63.8627 125.215 68.3654 116.024 72.9916 109.329Z" fill="#F6F6F6"/>
<path d="M72.9916 109.329L73.2571 107.853L72.3065 107.682L71.7575 108.477L72.9916 109.329ZM100.603 114.295L102.079 114.56L102.344 113.084L100.868 112.819L100.603 114.295ZM90.5361 170.272L90.2706 171.748L91.7469 172.014L92.0124 170.537L90.5361 170.272ZM54.7183 163.831L53.2199 163.762L53.1599 165.074L54.4528 165.307L54.7183 163.831ZM60.3704 135.733L61.794 136.205L60.3704 135.733ZM72.7261 110.806L100.337 115.771L100.868 112.819L73.2571 107.853L72.7261 110.806ZM99.1264 114.029L89.0598 170.006L92.0124 170.537L102.079 114.56L99.1264 114.029ZM90.8016 168.796L54.9838 162.354L54.4528 165.307L90.2706 171.748L90.8016 168.796ZM56.2167 163.899C56.5759 156.039 58.4234 146.357 61.794 136.205L58.9468 135.26C55.5068 145.621 53.5939 155.577 53.2199 163.762L56.2167 163.899ZM61.794 136.205C65.2509 125.794 69.6958 116.737 74.2256 110.182L71.7575 108.477C67.0349 115.311 62.4744 124.635 58.9468 135.26L61.794 136.205Z" fill="black" mask="url(#path-12-inside-1_280_5311)"/>
<path d="M160.344 107.155C160.286 108.75 161.709 111.804 167.861 111.259C174.013 110.714 177.647 109.121 178.696 108.392" stroke="black" stroke-width="1.5"/>
<path d="M206.062 136.015C205.595 134.785 205.582 131.801 209.26 129.711C212.938 127.621 217.571 126.849 219.428 126.724M219.098 143.863C218.671 142.411 218.737 138.983 222.415 136.892C226.093 134.802 230.202 134.395 231.797 134.452M207.132 156.846C207.149 155.473 207.813 152.291 210.329 150.542C213.474 148.356 218.379 147.862 218.925 148.648M194.619 169.043C194.335 168.074 194.685 165.615 198.363 163.525C202.041 161.434 204.214 161.596 204.84 161.938" stroke="black" stroke-width="1.5"/>
<path d="M118.727 41.23C123.288 41.23 128.757 39.9262 132.785 34.2091C136.813 28.4919 136.904 23.0025 136.667 18.9031C136.904 23.0025 136.349 29.8898 141.009 35.1044C145.669 40.319 150.228 41.4264 153.622 41.2301C150.907 41.3871 145.732 41.4122 141.641 46.0361C137.55 50.6601 136.47 58.6746 136.441 62.1038C136.259 55.0307 133.652 41.23 118.727 41.23Z" stroke="black" stroke-width="1.5"/>
<path d="M286.197 136.274C283.198 136.274 279.602 135.417 276.954 131.658C274.305 127.898 274.245 124.289 274.401 121.593C274.245 124.289 274.61 128.818 271.546 132.247C268.481 135.675 265.484 136.404 263.252 136.274C265.037 136.378 268.44 136.394 271.13 139.435C273.82 142.475 274.53 147.745 274.549 150C274.669 145.349 276.383 136.274 286.197 136.274Z" stroke="black" stroke-width="1.5"/>
</g>
<defs>
<clipPath id="clip0_280_5311">
<rect width="380" height="200" fill="white"/>
</clipPath>
</defs>
</svg>
