<svg width="383" height="52" viewBox="0 0 383 52" fill="none" xmlns="http://www.w3.org/2000/svg">
<path fill-rule="evenodd" clip-rule="evenodd" d="M62.7716 0.372676C61.9366 0.520446 60.6744 0.85293 59.9365 1.13C55.7847 2.62435 52.5706 5.66261 51.5285 9.79305C50.951 12.184 51.1489 14.7332 51.8391 17.0892C52.111 18.0497 52.6741 19.5459 53.0625 20.4141C53.4509 21.2822 54.1305 22.6676 54.5965 23.5172C54.7862 23.8556 54.9532 24.1441 55.0846 24.371C55.2759 24.7016 55.3917 24.9015 55.3917 24.9344C53.7299 25.4615 51.6331 26.2858 49.9132 27.1469H33.938V36.1602H41.3976C38.0665 40.3628 32.795 42.9729 27.032 42.9729C17.3334 42.9729 9.47108 35.4906 9.47108 26.2607C9.47108 17.0308 17.3334 9.54854 27.032 9.54854H27.6909C31.8587 9.54854 35.9333 10.7226 39.4011 12.9228L44.6547 5.42322C39.6311 2.23599 33.7285 0.535218 27.6909 0.535218H27.032C12.1027 0.535219 0 12.0529 0 26.2607C0 40.4686 12.1027 51.9863 27.032 51.9863C33.9471 51.9863 40.3986 49.5243 45.3122 45.355C45.4144 45.4654 45.5188 45.5748 45.6253 45.6828C47.0832 47.1791 48.7699 48.3558 50.674 49.2847C54.7748 51.2351 59.527 52 64.0726 52C67.9801 52 71.8112 51.2313 75.4323 49.8389L77.0828 49.1739C79.0441 50.2083 80.3839 50.744 81.3548 51.058C83.2695 51.6884 85.4017 52.0189 87.4322 51.9737L112.096 51.9849C127.025 51.9849 139.128 40.4672 139.128 26.2594C139.128 12.0516 127.025 0.53389 112.096 0.53389L90.3911 0.533891V24.8472H80.8694V26.6943C82.4567 26.6943 83.7932 27.0042 85.0055 28.0242C87.3287 29.9294 87.3985 33.1071 86.6172 35.7083C86.1254 37.3789 85.3969 38.9001 84.4229 40.3631L83.7627 41.379C82.0927 39.8089 80.6946 38.3128 79.5684 37.0382C78.4421 35.7637 76.5003 33.4363 75.2575 31.8663C73.9953 30.2962 72.1506 27.8765 71.1408 26.5096C70.9248 26.2171 70.6996 25.9253 70.4733 25.6322C69.9282 24.9259 69.3768 24.2116 68.9321 23.4599C68.7716 23.1888 68.6359 22.9595 68.6359 22.9077C68.6359 22.8523 69.0048 22.7599 69.4515 22.7045C69.9175 22.6306 70.9855 22.3535 71.8399 22.0765C73.538 21.5258 75.1277 20.8646 76.6362 19.9338C78.9903 18.5195 81.0338 16.2875 81.918 13.7644C83.32 10.0301 82.0157 5.71752 78.714 3.30961C74.1746 0.143048 68.2182 -0.539513 62.7522 0.372676H62.7716ZM99.2702 42.9716V43.0918C97.0469 46.7478 92.7853 47.3218 89.025 45.2949C88.4425 44.9994 87.2774 44.242 86.4424 43.614C85.8032 43.1401 85.1573 42.6595 84.9739 42.4593C85.3861 41.8841 85.8035 41.3119 86.221 40.7397C86.7645 39.9948 87.3081 39.2497 87.8405 38.4975C89.161 36.6319 90.6173 34.637 91.0834 34.0828C92.4636 32.3704 93.9761 30.74 95.6855 29.3172C96.9213 28.2924 98.3211 27.4279 99.8903 26.9562V24.8472H99.8622V9.54721L112.096 9.54721C121.794 9.54721 129.657 17.0295 129.657 26.2594C129.657 35.4893 121.794 42.9716 112.096 42.9716L100.634 42.9703L100.632 42.9716H99.2702ZM68.2475 2.34911C66.998 1.6699 65.0083 1.52173 63.6842 2.09051C62.677 2.52604 61.9717 3.38314 61.5677 4.34401C60.7416 6.2822 61.3341 9.09592 62.0337 10.9937C62.3638 11.9542 63.1405 13.709 63.7231 14.8727C64.3056 16.0364 65.3736 17.9758 66.1309 19.1765C66.8688 20.3586 67.5485 21.3376 67.665 21.3376C67.7815 21.3376 68.364 20.8943 68.9854 20.3402C71.3969 18.1774 72.1309 14.9629 72.2671 11.9173C72.3583 9.70582 72.1725 7.58176 71.1991 5.54465C70.5482 4.26765 69.5686 3.05285 68.2475 2.34911ZM56.7714 27.2484C56.7325 27.2484 56.4995 27.5255 56.2665 27.8395C52.5004 33.2132 54.2398 41.7429 59.0627 46.0892C62.9873 49.7215 69.4061 50.3275 74.3643 48.3981C75.0245 48.1395 75.1022 48.0656 74.8497 47.8624C74.7306 47.7633 74.2115 47.3597 73.5907 46.8772L73.5899 46.8765L73.5894 46.8762L73.005 46.4217C72.1506 45.7567 70.5 44.2605 69.3155 43.0968C68.131 41.9516 66.3445 39.9936 65.3154 38.793C64.3056 37.5739 62.8104 35.7083 61.9949 34.637C61.1793 33.5656 59.7035 31.4784 58.6938 29.9637C57.7034 28.4675 56.8296 27.2484 56.7714 27.2484Z" fill="white"/>
<path d="M173.97 35.1342C175.454 35.9781 177.25 36.4 179.359 36.4C180.823 36.4 182.131 36.189 183.282 35.7671C184.434 35.326 185.44 34.7026 186.299 33.8971L185.244 31.5093C184.307 32.3148 183.39 32.8902 182.492 33.2354C181.613 33.5806 180.588 33.7533 179.417 33.7533C177.192 33.7533 175.493 33.082 174.322 31.7394C173.151 30.3777 172.565 28.4598 172.565 25.9856C172.565 23.5115 173.151 21.6031 174.322 20.2606C175.493 18.918 177.192 18.2467 179.417 18.2467C180.588 18.2467 181.613 18.4194 182.492 18.7646C183.39 19.1098 184.307 19.6756 185.244 20.462L186.299 18.0741C185.44 17.2686 184.434 16.6549 183.282 16.2329C182.131 15.811 180.823 15.6 179.359 15.6C177.25 15.6 175.454 16.0219 173.97 16.8658C172.487 17.7097 171.345 18.9084 170.544 20.462C169.763 22.0155 169.373 23.8567 169.373 25.9856C169.373 28.1145 169.763 29.9653 170.544 31.538C171.345 33.0916 172.487 34.2903 173.97 35.1342Z" fill="white"/>
<path fill-rule="evenodd" clip-rule="evenodd" d="M193.446 20.462C192.685 22.0155 192.304 23.8567 192.304 25.9856C192.304 28.0953 192.685 29.9366 193.446 31.5093C194.227 33.0628 195.34 34.2711 196.784 35.1342C198.229 35.9781 199.957 36.4 201.967 36.4C203.939 36.4 205.647 35.9781 207.092 35.1342C208.556 34.2711 209.679 33.0628 210.46 31.5093C211.26 29.9366 211.66 28.0858 211.66 25.9568C211.66 23.8471 211.26 22.0155 210.46 20.462C209.679 18.9084 208.566 17.7097 207.121 16.8658C205.677 16.0219 203.959 15.6 201.967 15.6C199.957 15.6 198.219 16.0219 196.755 16.8658C195.31 17.7097 194.208 18.9084 193.446 20.462ZM197.136 31.7394C196.043 30.3585 195.496 28.4406 195.496 25.9856C195.496 23.5115 196.043 21.5935 197.136 20.2318C198.229 18.8701 199.84 18.1892 201.967 18.1892C204.056 18.1892 205.657 18.8701 206.77 20.2318C207.902 21.5935 208.468 23.5115 208.468 25.9856C208.468 28.4598 207.902 30.3873 206.77 31.7682C205.638 33.1299 204.037 33.8108 201.967 33.8108C199.84 33.8108 198.229 33.1203 197.136 31.7394Z" fill="white"/>
<path d="M219.341 36.1411V15.8589H221.684L233.631 31.2563V15.8589H236.472V36.1411H234.158L222.181 20.6703V36.1411H219.341Z" fill="white"/>
<path d="M247.277 35.7959C248.624 36.1986 250.127 36.4 251.787 36.4C253.387 36.4 254.773 36.1603 255.945 35.6808C257.116 35.1821 258.014 34.4917 258.639 33.6094C259.283 32.7272 259.605 31.7011 259.605 30.5311C259.605 29.0735 259.137 27.9323 258.2 27.1076C257.262 26.2637 255.808 25.6404 253.836 25.2376L250.645 24.6335C249.395 24.3841 248.497 24.0197 247.95 23.5402C247.423 23.0608 247.16 22.3991 247.16 21.5552C247.16 20.5003 247.58 19.666 248.419 19.0523C249.278 18.4385 250.459 18.1317 251.962 18.1317C253.231 18.1317 254.363 18.3139 255.359 18.6783C256.355 19.0235 257.292 19.5701 258.17 20.3181L259.166 18.0454C258.326 17.2398 257.292 16.6357 256.062 16.2329C254.832 15.811 253.485 15.6 252.021 15.6C250.44 15.6 249.053 15.8493 247.863 16.348C246.691 16.8467 245.774 17.5563 245.11 18.4769C244.446 19.3975 244.114 20.4716 244.114 21.699C244.114 23.2142 244.573 24.4129 245.491 25.2952C246.428 26.1582 247.843 26.7816 249.737 27.1651L252.929 27.7981C254.276 28.0666 255.213 28.4214 255.74 28.8625C256.286 29.3036 256.56 29.927 256.56 30.7325C256.56 31.6723 256.169 32.4299 255.388 33.0053C254.627 33.5806 253.426 33.8683 251.787 33.8683C250.83 33.8683 249.942 33.7916 249.122 33.6382C248.321 33.4656 247.56 33.2162 246.838 32.8902C246.135 32.5641 245.452 32.1518 244.788 31.6531L243.763 34.0122C244.759 34.7793 245.93 35.3739 247.277 35.7959Z" fill="white"/>
<path d="M275.237 36.4C272.367 36.4 270.229 35.6904 268.824 34.2711C267.438 32.8518 266.745 30.7517 266.745 27.9707V15.8589H269.79V27.9131C269.79 29.8694 270.22 31.3462 271.079 32.3436C271.957 33.3217 273.343 33.8108 275.237 33.8108C277.033 33.8108 278.39 33.3217 279.307 32.3436C280.225 31.3462 280.683 29.8694 280.683 27.9131V15.8589H283.67V27.9707C283.67 30.7517 282.958 32.8518 281.533 34.2711C280.107 35.6904 278.009 36.4 275.237 36.4Z" fill="white"/>
<path d="M291.909 15.8589V36.1411H305.086V33.5806H294.954V15.8589H291.909Z" fill="white"/>
<path d="M312.754 36.1411V18.3618H305.697V15.8589H322.857V18.3618H315.8V36.1411H312.754Z" fill="white"/>
<path d="M329.221 15.8589V36.1411H332.266V15.8589H329.221Z" fill="white"/>
<path d="M340.627 36.1411V15.8589H342.97L354.918 31.2563V15.8589H357.758V36.1411H355.445L343.468 20.6703V36.1411H340.627Z" fill="white"/>
<path d="M370.057 35.1629C371.619 35.9876 373.542 36.4 375.826 36.4C377.114 36.4 378.403 36.2657 379.691 35.9972C380.999 35.7287 382.102 35.3739 383 34.9328V25.3527H375.357V27.5967H380.452V33.0557C379.835 33.2748 379.2 33.4498 378.549 33.5806C377.69 33.7341 376.821 33.8108 375.943 33.8108C373.405 33.8108 371.541 33.1491 370.35 31.8257C369.178 30.5024 368.593 28.5748 368.593 26.0432C368.593 23.5498 369.208 21.6223 370.438 20.2606C371.667 18.8988 373.463 18.218 375.826 18.218C376.665 18.218 377.397 18.2947 378.022 18.4481C378.647 18.5824 379.252 18.803 379.837 19.1098C380.423 19.4167 381.028 19.829 381.653 20.3469L382.736 18.0166C381.858 17.2302 380.862 16.6357 379.75 16.2329C378.637 15.811 377.329 15.6 375.826 15.6C373.639 15.6 371.765 16.0219 370.203 16.8658C368.661 17.7097 367.47 18.9084 366.631 20.462C365.811 22.0155 365.401 23.8663 365.401 26.0144C365.401 28.1625 365.791 30.0133 366.572 31.5668C367.353 33.1203 368.515 34.319 370.057 35.1629Z" fill="white"/>
</svg>
