<svg width="183" height="163" viewBox="0 0 183 163" fill="none" xmlns="http://www.w3.org/2000/svg">
<g id="Group 512772">
<g id="Union">
<path fill-rule="evenodd" clip-rule="evenodd" d="M16 1C7.71573 1 1 7.71572 1 16V70.7919C1 79.0762 7.71574 85.7919 16 85.7919H27.8219L19.4766 105.544L52.3944 85.7919H97.8384C106.123 85.7919 112.838 79.0762 112.838 70.7919V16C112.838 7.71573 106.123 1 97.8384 1H16Z" fill="white"/>
<path d="M27.8219 85.7919L28.5128 86.0838L28.953 85.0419H27.8219V85.7919ZM19.4766 105.544L18.7857 105.252L17.8908 107.371L19.8625 106.187L19.4766 105.544ZM52.3944 85.7919V85.0419H52.1866L52.0085 85.1488L52.3944 85.7919ZM1.75 16C1.75 8.12993 8.12994 1.75 16 1.75V0.25C7.30152 0.25 0.25 7.3015 0.25 16H1.75ZM1.75 70.7919V16H0.25V70.7919H1.75ZM16 85.0419C8.12995 85.0419 1.75 78.662 1.75 70.7919H0.25C0.25 79.4904 7.30152 86.5419 16 86.5419V85.0419ZM27.8219 85.0419H16V86.5419H27.8219V85.0419ZM20.1674 105.836L28.5128 86.0838L27.1311 85.5L18.7857 105.252L20.1674 105.836ZM52.0085 85.1488L19.0907 104.901L19.8625 106.187L52.7803 86.435L52.0085 85.1488ZM97.8384 85.0419H52.3944V86.5419H97.8384V85.0419ZM112.088 70.7919C112.088 78.662 105.708 85.0419 97.8384 85.0419V86.5419C106.537 86.5419 113.588 79.4904 113.588 70.7919H112.088ZM112.088 16V70.7919H113.588V16H112.088ZM97.8384 1.75C105.708 1.75 112.088 8.12994 112.088 16H113.588C113.588 7.30152 106.537 0.25 97.8384 0.25V1.75ZM16 1.75H97.8384V0.25H16V1.75Z" fill="black"/>
</g>
<path id="Vector 2909" d="M33.579 48.6513C29.1447 57.9229 26.2852 60.3214 26.2852 68.1015H90.9569C91.4432 62.2664 89.4982 56.9176 84.6356 51.5688C79.7731 46.2201 83.1769 37.9537 78.8006 23.3661C74.4243 8.77849 48.6528 8.77849 41.8453 19.4761C35.0377 30.1737 38.9278 37.4675 33.579 48.6513Z" fill="black"/>
<path id="Vector 2910" d="M54.0005 23.3672C52.0555 27.2572 46.8688 30.8231 44.7617 32.1198V40.0619C44.7617 43.4287 45.8537 46.7046 47.8737 49.398L49.138 51.0837V57.8912H67.6157V51.0837L68.8717 49.5764C71.202 46.78 72.4782 43.2552 72.4782 39.6151V32.1198C60.0301 30.5637 54.9731 25.6364 54.0005 23.3672Z" fill="white" stroke="black" stroke-width="1.5"/>
<g id="Intersect">
<path fill-rule="evenodd" clip-rule="evenodd" d="M100.198 85.6061C100.198 75.6274 93.3504 66.9527 83.6446 64.6349L67.619 60.8079V55.9453H49.1414V60.8079L32.1688 64.7435C22.462 66.9944 15.5898 75.6424 15.5898 85.6068V85.7844C15.7274 85.7881 15.8654 85.79 16.0039 85.79H27.8258L19.4805 105.542L52.3983 85.79H97.8423C98.6438 85.79 99.4306 85.7271 100.198 85.6061Z" fill="#EBF3FF"/>
<path d="M100.198 85.6061L100.315 86.3469L100.948 86.247L100.948 85.606L100.198 85.6061ZM83.6446 64.6349L83.8188 63.9054L83.6446 64.6349ZM67.619 60.8079H66.869V61.3998L67.4448 61.5373L67.619 60.8079ZM67.619 55.9453H68.369V55.1953H67.619V55.9453ZM49.1414 55.9453V55.1953H48.3914V55.9453H49.1414ZM49.1414 60.8079L49.3108 61.5385L49.8914 61.4038V60.8079H49.1414ZM32.1688 64.7435L31.9994 64.0129L32.1688 64.7435ZM15.5898 85.7844H14.8398V86.5143L15.5695 86.5341L15.5898 85.7844ZM27.8258 85.79L28.5167 86.0819L28.9569 85.04H27.8258V85.79ZM19.4805 105.542L18.7896 105.25L17.8947 107.369L19.8664 106.185L19.4805 105.542ZM52.3983 85.79V85.04H52.1905L52.0124 85.1469L52.3983 85.79ZM100.948 85.606C100.948 75.2803 93.8622 66.3038 83.8188 63.9054L83.4704 65.3643C92.8386 67.6015 99.4477 75.9746 99.448 85.6061L100.948 85.606ZM83.8188 63.9054L67.7932 60.0784L67.4448 61.5373L83.4704 65.3643L83.8188 63.9054ZM68.369 60.8079V55.9453H66.869V60.8079H68.369ZM67.619 55.1953H49.1414V56.6953H67.619V55.1953ZM48.3914 55.9453V60.8079H49.8914V55.9453H48.3914ZM48.972 60.0772L31.9994 64.0129L32.3383 65.4741L49.3108 61.5385L48.972 60.0772ZM31.9994 64.0129C21.9526 66.3426 14.8398 75.2934 14.8398 85.6068H16.3398C16.3398 75.9913 22.9713 67.6462 32.3383 65.4741L31.9994 64.0129ZM14.8398 85.6068V85.7844H16.3398V85.6068H14.8398ZM15.5695 86.5341C15.7139 86.538 15.8587 86.54 16.0039 86.54V85.04C15.8722 85.04 15.741 85.0382 15.6102 85.0347L15.5695 86.5341ZM16.0039 86.54H27.8258V85.04H16.0039V86.54ZM27.135 85.4981L18.7896 105.25L20.1713 105.834L28.5167 86.0819L27.135 85.4981ZM19.8664 106.185L52.7842 86.4331L52.0124 85.1469L19.0946 104.899L19.8664 106.185ZM52.3983 86.54H97.8423V85.04H52.3983V86.54ZM97.8423 86.54C98.6831 86.54 99.5089 86.474 100.315 86.3469L100.081 84.8652C99.3522 84.9802 98.6045 85.04 97.8423 85.04V86.54Z" fill="black"/>
</g>
<g id="Group 512769">
<g id="Union_2">
<path fill-rule="evenodd" clip-rule="evenodd" d="M114.865 103.113C110.524 103.113 107.004 106.633 107.004 110.975V143.309C107.004 147.65 110.524 151.17 114.865 151.17H147.213L163.249 160.999L161.18 151.17H170.135C174.477 151.17 177.997 147.65 177.997 143.309V110.975C177.997 106.633 174.477 103.113 170.135 103.113H114.865Z" fill="black"/>
<path d="M147.213 151.17L147.605 150.531L147.424 150.42H147.213V151.17ZM163.249 160.999L162.858 161.638L164.342 162.548L163.983 160.844L163.249 160.999ZM161.18 151.17V150.42H160.256L160.446 151.325L161.18 151.17ZM107.754 110.975C107.754 107.047 110.938 103.863 114.865 103.863V102.363C110.109 102.363 106.254 106.219 106.254 110.975H107.754ZM107.754 143.309V110.975H106.254V143.309H107.754ZM114.865 150.42C110.938 150.42 107.754 147.236 107.754 143.309H106.254C106.254 148.065 110.109 151.92 114.865 151.92V150.42ZM147.213 150.42H114.865V151.92H147.213V150.42ZM163.641 160.36L147.605 150.531L146.821 151.81L162.858 161.638L163.641 160.36ZM160.446 151.325L162.516 161.153L163.983 160.844L161.914 151.016L160.446 151.325ZM170.135 150.42H161.18V151.92H170.135V150.42ZM177.247 143.309C177.247 147.236 174.063 150.42 170.135 150.42V151.92C174.891 151.92 178.747 148.065 178.747 143.309H177.247ZM177.247 110.975V143.309H178.747V110.975H177.247ZM170.135 103.863C174.063 103.863 177.247 107.047 177.247 110.975H178.747C178.747 106.219 174.891 102.363 170.135 102.363V103.863ZM114.865 103.863H170.135V102.363H114.865V103.863Z" fill="black"/>
</g>
<g id="Union_3">
<path fill-rule="evenodd" clip-rule="evenodd" d="M114.865 103.113C110.524 103.113 107.004 106.633 107.004 110.975V141.124C107.004 145.466 110.524 148.986 114.865 148.986H143.938L159.976 158.815L157.907 148.986H167.951C172.293 148.986 175.813 145.466 175.813 141.124V110.975C175.813 106.633 172.293 103.113 167.951 103.113H114.865Z" fill="#F6F6F6"/>
<path d="M143.938 148.986L144.33 148.346L144.15 148.236H143.938V148.986ZM159.976 158.815L159.584 159.455L161.069 160.365L160.71 158.661L159.976 158.815ZM157.907 148.986V148.236H156.982L157.173 149.14L157.907 148.986ZM107.754 110.975C107.754 107.047 110.938 103.863 114.865 103.863V102.363C110.109 102.363 106.254 106.219 106.254 110.975H107.754ZM107.754 141.124V110.975H106.254V141.124H107.754ZM114.865 148.236C110.938 148.236 107.754 145.052 107.754 141.124H106.254C106.254 145.88 110.109 149.736 114.865 149.736V148.236ZM143.938 148.236H114.865V149.736H143.938V148.236ZM160.368 158.176L144.33 148.346L143.546 149.625L159.584 159.455L160.368 158.176ZM157.173 149.14L159.242 158.97L160.71 158.661L158.641 148.831L157.173 149.14ZM167.951 148.236H157.907V149.736H167.951V148.236ZM175.063 141.124C175.063 145.052 171.879 148.236 167.951 148.236V149.736C172.707 149.736 176.563 145.88 176.563 141.124H175.063ZM175.063 110.975V141.124H176.563V110.975H175.063ZM167.951 103.863C171.879 103.863 175.063 107.047 175.063 110.975H176.563C176.563 106.219 172.707 102.363 167.951 102.363V103.863ZM114.865 103.863H167.951V102.363H114.865V103.863Z" fill="black"/>
</g>
<path id="Vector 2706" d="M119.562 118.951H163.797" stroke="black" stroke-width="1.5"/>
<path id="Vector 2707" d="M119.562 131.51H163.797" stroke="black" stroke-width="1.5"/>
</g>
<path id="Vector 2911" d="M112.35 42.8184H113.773C124.267 42.8184 132.773 51.325 132.773 61.8184V74.875C132.773 85.3684 124.267 93.875 113.773 93.875H95.5747C86.5782 93.875 79.2852 101.168 79.2852 110.165V110.165C79.2852 119.161 86.5782 126.454 95.5747 126.454H107.002" stroke="black" stroke-width="1.5"/>
<path id="Vector 2912" d="M140.068 40.7523C145.417 40.7523 151.832 39.223 156.556 32.5173C161.281 25.8117 161.387 19.3732 161.109 14.565C161.387 19.3732 160.736 27.4513 166.202 33.5675C171.668 39.6837 177.016 40.9825 180.996 40.7523C177.812 40.9365 171.743 40.9659 166.944 46.3893C162.145 51.8128 160.879 61.213 160.845 65.2352C160.631 56.9391 157.574 40.7523 140.068 40.7523Z" stroke="black" stroke-width="1.5"/>
<path id="Vector 2913" d="M65.7738 132.121C62.8575 132.121 59.3603 131.288 56.7845 127.632C54.2087 123.976 54.1505 120.465 54.3021 117.844C54.1505 120.465 54.5054 124.87 51.5253 128.204C48.5452 131.539 45.6299 132.247 43.4596 132.121C45.1958 132.222 48.5048 132.238 51.121 135.195C53.7372 138.152 54.4279 143.277 54.4462 145.47C54.5627 140.946 56.2298 132.121 65.7738 132.121Z" stroke="black" stroke-width="1.5"/>
</g>
</svg>
